Harmattan-Regular.ufo
<glyph name="space" format="1">
  <advance width="453"/>
  <unicode hex="0020"/>
  <outline>
    <contour>
      <point x="226" y="186" type="move" name="alef"/>
    </contour>
    <contour>
      <point x="226" y="649" type="move" name="diaA"/>
    </contour>
    <contour>
      <point x="226" y="-700" type="move" name="diaB"/>
    </contour>
  </outline>
</glyph>
<glyph name="exclam" format="2">
  <advance width="573"/>
  <unicode hex="0021"/>
  <outline>
    <contour>
      <point x="337" y="330" type="line"/>
      <point x="342" y="547"/>
      <point x="338" y="807"/>
      <point x="367" y="1132" type="curve"/>
      <point x="176" y="1132" type="line"/>
      <point x="204" y="807"/>
      <point x="201" y="547"/>
      <point x="206" y="330" type="curve"/>
    </contour>
    <contour>
      <point x="168" y="82" type="curve" smooth="yes"/>
      <point x="168" y="27"/>
      <point x="214" y="-18"/>
      <point x="270" y="-18" type="curve" smooth="yes"/>
      <point x="325" y="-18"/>
      <point x="371" y="27"/>
      <point x="371" y="82" type="curve" smooth="yes"/>
      <point x="371" y="138"/>
      <point x="325" y="183"/>
      <point x="270" y="183" type="curve" smooth="yes"/>
      <point x="214" y="183"/>
      <point x="168" y="138"/>
    </contour>
  </outline>
</glyph>
<glyph name="quotedbl" format="1">
  <advance width="767"/>
  <unicode hex="0022"/>
  <outline>
    <contour>
      <point x="303" y="782" type="line" name="hr00"/>
      <point x="306" y="886"/>
      <point x="312" y="1001"/>
      <point x="333" y="1186" type="curve"/>
      <point x="180" y="1186" type="line"/>
      <point x="202" y="1001"/>
      <point x="206" y="886"/>
      <point x="209" y="782" type="curve"/>
    </contour>
    <contour>
      <point x="558" y="782" type="line"/>
      <point x="560" y="886"/>
      <point x="565" y="1001"/>
      <point x="587" y="1186" type="curve"/>
      <point x="434" y="1186" type="line"/>
      <point x="457" y="1001"/>
      <point x="461" y="886"/>
      <point x="464" y="782" type="curve"/>
    </contour>
  </outline>
</glyph>
<glyph name="numbersign" format="1">
  <advance width="898"/>
  <unicode hex="0023"/>
  <outline>
    <contour>
      <point x="364" y="1092" type="line"/>
      <point x="95" y="149" type="line"/>
      <point x="207" y="149" type="line"/>
      <point x="477" y="1092" type="line"/>
    </contour>
    <contour>
      <point x="19" y="430" type="line" name="hr01"/>
      <point x="835" y="430" type="line"/>
      <point x="835" y="542" type="line"/>
      <point x="19" y="542" type="line"/>
    </contour>
    <contour>
      <point x="63" y="718" type="line"/>
      <point x="879" y="718" type="line"/>
      <point x="879" y="830" type="line"/>
      <point x="63" y="830" type="line"/>
    </contour>
    <contour>
      <point x="682" y="1092" type="line" name="hr02"/>
      <point x="413" y="149" type="line"/>
      <point x="524" y="149" type="line"/>
      <point x="794" y="1092" type="line"/>
    </contour>
  </outline>
</glyph>
<glyph name="dollar" format="1">
  <advance width="898"/>
  <unicode hex="0024"/>
  <outline>
    <contour>
      <point x="414" y="1197" type="line"/>
      <point x="414" y="-164" type="line"/>
      <point x="511" y="-164" type="line"/>
      <point x="511" y="1197" type="line"/>
    </contour>
    <contour>
      <point x="737" y="977" type="line"/>
      <point x="647" y="1020"/>
      <point x="572" y="1039"/>
      <point x="465" y="1039" type="curve" smooth="yes"/>
      <point x="237" y="1039"/>
      <point x="142" y="878"/>
      <point x="142" y="761" type="curve" smooth="yes"/>
      <point x="142" y="643"/>
      <point x="189" y="553"/>
      <point x="404" y="488" type="curve" smooth="yes"/>
      <point x="618" y="424"/>
      <point x="652" y="368"/>
      <point x="652" y="296" type="curve" smooth="yes"/>
      <point x="652" y="184"/>
      <point x="548" y="121"/>
      <point x="438" y="121" type="curve" smooth="yes"/>
      <point x="336" y="121"/>
      <point x="237" y="155"/>
      <point x="145" y="235" type="curve"/>
      <point x="115" y="93" type="line"/>
      <point x="184" y="39"/>
      <point x="305" y="0"/>
      <point x="438" y="0" type="curve" smooth="yes"/>
      <point x="626" y="0"/>
      <point x="782" y="124"/>
      <point x="782" y="309" type="curve" smooth="yes"/>
      <point x="782" y="459"/>
      <point x="682" y="542"/>
      <point x="501" y="596" type="curve" smooth="yes"/>
      <point x="303" y="654"/>
      <point x="274" y="695"/>
      <point x="274" y="770" type="curve" smooth="yes"/>
      <point x="274" y="846"/>
      <point x="348" y="919"/>
      <point x="459" y="919" type="curve" smooth="yes"/>
      <point x="546" y="919"/>
      <point x="612" y="898"/>
      <point x="711" y="843" type="curve"/>
    </contour>
  </outline>
</glyph>
<glyph name="ampersand" format="1">
  <advance width="914"/>
  <unicode hex="0026"/>
  <outline>
    <contour>
      <point x="247" y="1111"/>
      <point x="116" y="1056"/>
      <point x="116" y="890" type="curve" smooth="yes"/>
      <point x="116" y="755"/>
      <point x="271" y="610"/>
      <point x="400" y="426" type="curve" smooth="yes"/>
      <point x="594" y="151"/>
      <point x="728" y="-19"/>
      <point x="767" y="-19" type="curve" smooth="yes"/>
      <point x="793" y="-19"/>
      <point x="851" y="28"/>
      <point x="879" y="52" type="curve"/>
      <point x="807" y="82"/>
      <point x="683" y="222"/>
      <point x="485" y="508" type="curve" smooth="yes"/>
      <point x="369" y="677"/>
      <point x="236" y="804"/>
      <point x="236" y="898" type="curve" smooth="yes"/>
      <point x="236" y="965"/>
      <point x="297" y="1010"/>
      <point x="355" y="1010" type="curve" smooth="yes"/>
      <point x="415" y="1010"/>
      <point x="471" y="967"/>
      <point x="471" y="902" type="curve" smooth="yes"/>
      <point x="471" y="835"/>
      <point x="391" y="750"/>
      <point x="261" y="628" type="curve" smooth="yes"/>
      <point x="108" y="486"/>
      <point x="41" y="394"/>
      <point x="41" y="280" type="curve" smooth="yes"/>
      <point x="41" y="113"/>
      <point x="162" y="-19"/>
      <point x="329" y="-19" type="curve" smooth="yes"/>
      <point x="534" y="-19"/>
      <point x="750" y="204"/>
      <point x="807" y="325" type="curve"/>
      <point x="730" y="426" type="line"/>
      <point x="681" y="301"/>
      <point x="471" y="112"/>
      <point x="340" y="112" type="curve" smooth="yes"/>
      <point x="232" y="112"/>
      <point x="172" y="199"/>
      <point x="172" y="284" type="curve" smooth="yes"/>
      <point x="172" y="366"/>
      <point x="221" y="439"/>
      <point x="351" y="554" type="curve" smooth="yes"/>
      <point x="486" y="673"/>
      <point x="591" y="799"/>
      <point x="591" y="898" type="curve" smooth="yes"/>
      <point x="591" y="1034"/>
      <point x="480" y="1111"/>
      <point x="366" y="1111" type="curve" smooth="yes"/>
    </contour>
  </outline>
</glyph>
<glyph name="quotesingle" format="1">
  <advance width="393"/>
  <unicode hex="0027"/>
  <outline>
    <contour>
      <point x="274" y="782" type="line" name="hr00"/>
      <point x="276" y="886"/>
      <point x="281" y="1001"/>
      <point x="303" y="1186" type="curve"/>
      <point x="149" y="1186" type="line"/>
      <point x="173" y="1001"/>
      <point x="177" y="886"/>
      <point x="180" y="782" type="curve"/>
    </contour>
  </outline>
</glyph>
<glyph name="parenright" format="2">
  <advance width="596"/>
  <unicode hex="0029"/>
  <outline>
    <contour>
      <point x="510" y="468" type="curve" smooth="yes"/>
      <point x="510" y="796"/>
      <point x="378" y="1083"/>
      <point x="180" y="1230" type="curve"/>
      <point x="123" y="1113" type="line"/>
      <point x="292" y="960"/>
      <point x="367" y="721"/>
      <point x="367" y="468" type="curve" smooth="yes"/>
      <point x="367" y="208"/>
      <point x="292" y="-6"/>
      <point x="123" y="-198" type="curve"/>
      <point x="195" y="-307" type="line"/>
      <point x="401" y="-93"/>
      <point x="510" y="163"/>
    </contour>
  </outline>
</glyph>
<glyph name="asterisk" format="2">
  <advance width="771"/>
  <unicode hex="002A"/>
  <outline>
    <contour>
      <point x="420" y="1200" type="curve"/>
      <point x="311" y="1200" type="line"/>
      <point x="325" y="1100"/>
      <point x="335" y="1040"/>
      <point x="337" y="975" type="curve"/>
      <point x="282" y="1008"/>
      <point x="231" y="1040"/>
      <point x="150" y="1098" type="curve"/>
      <point x="93" y="1005" type="line"/>
      <point x="187" y="967"/>
      <point x="245" y="945"/>
      <point x="303" y="915" type="curve"/>
      <point x="246" y="882"/>
      <point x="192" y="855"/>
      <point x="101" y="813" type="curve"/>
      <point x="153" y="720" type="line"/>
      <point x="232" y="781"/>
      <point x="282" y="820"/>
      <point x="337" y="855" type="curve"/>
      <point x="336" y="791"/>
      <point x="331" y="729"/>
      <point x="322" y="630" type="curve"/>
      <point x="427" y="630" type="line"/>
      <point x="412" y="729"/>
      <point x="408" y="789"/>
      <point x="405" y="855" type="curve"/>
      <point x="460" y="821"/>
      <point x="510" y="789"/>
      <point x="592" y="731" type="curve"/>
      <point x="648" y="825" type="line"/>
      <point x="554" y="861"/>
      <point x="497" y="884"/>
      <point x="438" y="915" type="curve"/>
      <point x="495" y="945"/>
      <point x="549" y="974"/>
      <point x="641" y="1016" type="curve"/>
      <point x="588" y="1110" type="line"/>
      <point x="510" y="1047"/>
      <point x="460" y="1011"/>
      <point x="405" y="975" type="curve"/>
      <point x="405" y="1040"/>
      <point x="410" y="1100"/>
    </contour>
  </outline>
</glyph>
<glyph name="plus" format="1">
  <advance width="898"/>
  <unicode hex="002B"/>
  <outline>
    <contour>
      <point x="393" y="883" type="line"/>
      <point x="393" y="214" type="line"/>
      <point x="504" y="214" type="line"/>
      <point x="504" y="883" type="line"/>
    </contour>
    <contour>
      <point x="116" y="494" type="line"/>
      <point x="782" y="494" type="line"/>
      <point x="782" y="605" type="line"/>
      <point x="116" y="605" type="line"/>
    </contour>
  </outline>
</glyph>
<glyph name="comma" format="2">
  <advance width="487"/>
  <unicode hex="002C"/>
  <outline>
    <contour>
      <point x="138" y="37" type="line"/>
      <point x="243" y="37" type="line"/>
      <point x="243" y="-38"/>
      <point x="186" y="-129"/>
      <point x="142" y="-172" type="curve"/>
      <point x="217" y="-202" type="line"/>
      <point x="305" y="-120"/>
      <point x="348" y="-27"/>
      <point x="348" y="63" type="curve" smooth="yes"/>
      <point x="348" y="139"/>
      <point x="300" y="187"/>
      <point x="240" y="187" type="curve" smooth="yes"/>
      <point x="197" y="187"/>
      <point x="148" y="159"/>
      <point x="138" y="112" type="curve"/>
    </contour>
  </outline>
</glyph>
<glyph name="period" format="1">
  <advance width="479"/>
  <unicode hex="002E"/>
  <outline>
    <contour>
      <point x="139" y="82" type="curve" smooth="yes" name="hr00"/>
      <point x="139" y="27"/>
      <point x="183" y="-19"/>
      <point x="239" y="-19" type="curve" smooth="yes"/>
      <point x="294" y="-19"/>
      <point x="340" y="27"/>
      <point x="340" y="82" type="curve" smooth="yes"/>
      <point x="340" y="138"/>
      <point x="294" y="183"/>
      <point x="239" y="183" type="curve" smooth="yes"/>
      <point x="183" y="183"/>
      <point x="139" y="138"/>
    </contour>
  </outline>
</glyph>
<glyph name="slash" format="1">
  <advance width="748"/>
  <unicode hex="002F"/>
  <outline>
    <contour>
      <point x="628" y="1197" type="line" name="hr00"/>
      <point x="7" y="-183" type="line"/>
      <point x="120" y="-183" type="line"/>
      <point x="740" y="1197" type="line"/>
    </contour>
  </outline>
</glyph>
<glyph name="zero" format="2">
  <advance width="900"/>
  <unicode hex="0030"/>
  <anchor x="453" y="-75" name="L"/>
  <anchor x="453" y="1147" name="U"/>
  <outline>
    <contour>
      <point x="682" y="536" type="curve" smooth="yes"/>
      <point x="682" y="231"/>
      <point x="594" y="108"/>
      <point x="450" y="108" type="curve" smooth="yes"/>
      <point x="301" y="108"/>
      <point x="217" y="228"/>
      <point x="217" y="558" type="curve" smooth="yes"/>
      <point x="217" y="864"/>
      <point x="305" y="986"/>
      <point x="450" y="986" type="curve" smooth="yes"/>
      <point x="601" y="986"/>
      <point x="682" y="867"/>
    </contour>
    <contour>
      <point x="832" y="555" type="curve" smooth="yes"/>
      <point x="832" y="964"/>
      <point x="675" y="1113"/>
      <point x="457" y="1113" type="curve" smooth="yes"/>
      <point x="240" y="1113"/>
      <point x="67" y="962"/>
      <point x="67" y="540" type="curve" smooth="yes"/>
      <point x="67" y="116"/>
      <point x="225" y="-18"/>
      <point x="442" y="-18" type="curve" smooth="yes"/>
      <point x="660" y="-18"/>
      <point x="832" y="113"/>
    </contour>
  </outline>
</glyph>
<glyph name="one" format="2">
  <advance width="776"/>
  <unicode hex="0031"/>
  <anchor x="450" y="-75" name="L"/>
  <anchor x="450" y="1147" name="U"/>
  <outline>
    <contour>
      <point x="401" y="127" type="line"/>
      <point x="165" y="127" type="line"/>
      <point x="165" y="0" type="line"/>
      <point x="780" y="0" type="line"/>
      <point x="780" y="127" type="line"/>
      <point x="543" y="127" type="line"/>
      <point x="543" y="1110" type="line"/>
      <point x="416" y="1110" type="line"/>
      <point x="157" y="951" type="line"/>
      <point x="176" y="816" type="line"/>
      <point x="401" y="945" type="line"/>
    </contour>
  </outline>
</glyph>
<glyph name="two" format="2">
  <advance width="900"/>
  <unicode hex="0032"/>
  <anchor x="450" y="-75" name="L"/>
  <anchor x="420" y="1147" name="U"/>
  <outline>
    <contour>
      <point x="810" y="135" type="line"/>
      <point x="750" y="124"/>
      <point x="631" y="123"/>
      <point x="483" y="123" type="curve" smooth="yes"/>
      <point x="292" y="123" type="line"/>
      <point x="456" y="261"/>
      <point x="757" y="523"/>
      <point x="757" y="765" type="curve" smooth="yes"/>
      <point x="757" y="959"/>
      <point x="600" y="1080"/>
      <point x="420" y="1080" type="curve" smooth="yes"/>
      <point x="293" y="1080"/>
      <point x="154" y="1018"/>
      <point x="93" y="934" type="curve"/>
      <point x="127" y="807" type="line"/>
      <point x="194" y="888"/>
      <point x="301" y="945"/>
      <point x="393" y="945" type="curve" smooth="yes"/>
      <point x="501" y="945"/>
      <point x="607" y="891"/>
      <point x="607" y="750" type="curve" smooth="yes"/>
      <point x="607" y="553"/>
      <point x="293" y="270"/>
      <point x="90" y="127" type="curve"/>
      <point x="90" y="0" type="line"/>
      <point x="810" y="0" type="line"/>
    </contour>
  </outline>
</glyph>
<glyph name="three" format="2">
  <advance width="900"/>
  <unicode hex="0033"/>
  <anchor x="450" y="-75" name="L"/>
  <anchor x="450" y="1147" name="U"/>
  <outline>
    <contour>
      <point x="307" y="634" type="line"/>
      <point x="307" y="507" type="line"/>
      <point x="360" y="507" type="line"/>
      <point x="562" y="507"/>
      <point x="661" y="397"/>
      <point x="661" y="294" type="curve" smooth="yes"/>
      <point x="661" y="200"/>
      <point x="581" y="112"/>
      <point x="423" y="112" type="curve" smooth="yes"/>
      <point x="288" y="112"/>
      <point x="183" y="174"/>
      <point x="101" y="266" type="curve"/>
      <point x="82" y="105" type="line"/>
      <point x="161" y="31"/>
      <point x="276" y="-18"/>
      <point x="408" y="-18" type="curve" smooth="yes"/>
      <point x="664" y="-18"/>
      <point x="808" y="141"/>
      <point x="808" y="297" type="curve" smooth="yes"/>
      <point x="808" y="418"/>
      <point x="723" y="537"/>
      <point x="540" y="582" type="curve"/>
      <point x="646" y="603"/>
      <point x="780" y="699"/>
      <point x="780" y="827" type="curve" smooth="yes"/>
      <point x="780" y="982"/>
      <point x="621" y="1080"/>
      <point x="435" y="1080" type="curve"/>
      <point x="309" y="1080"/>
      <point x="195" y="1029"/>
      <point x="135" y="960" type="curve"/>
      <point x="161" y="833" type="line"/>
      <point x="246" y="920"/>
      <point x="327" y="949"/>
      <point x="442" y="949" type="curve" smooth="yes"/>
      <point x="533" y="949"/>
      <point x="637" y="904"/>
      <point x="637" y="808" type="curve" smooth="yes"/>
      <point x="637" y="725"/>
      <point x="509" y="634"/>
      <point x="360" y="634" type="curve"/>
    </contour>
  </outline>
</glyph>
<glyph name="four" format="2">
  <advance width="900"/>
  <unicode hex="0034"/>
  <anchor x="455" y="-75" name="L"/>
  <anchor x="455" y="1147" name="U"/>
  <outline>
    <contour>
      <point x="843" y="296" type="line"/>
      <point x="843" y="412" type="line"/>
      <point x="701" y="412" type="line"/>
      <point x="701" y="1110" type="line"/>
      <point x="558" y="1110" type="line"/>
      <point x="67" y="412" type="line"/>
      <point x="67" y="296" type="line"/>
      <point x="558" y="296" type="line"/>
      <point x="558" y="0" type="line"/>
      <point x="701" y="0" type="line"/>
      <point x="701" y="296" type="line"/>
    </contour>
    <contour>
      <point x="558" y="922" type="line"/>
      <point x="558" y="412" type="line"/>
      <point x="197" y="412" type="line"/>
    </contour>
  </outline>
</glyph>
<glyph name="five" format="2">
  <advance width="900"/>
  <unicode hex="0035"/>
  <anchor x="450" y="-75" name="L"/>
  <anchor x="450" y="1147" name="U"/>
  <outline>
    <contour>
      <point x="146" y="513" type="line"/>
      <point x="239" y="549"/>
      <point x="303" y="562"/>
      <point x="382" y="562" type="curve" smooth="yes"/>
      <point x="502" y="562"/>
      <point x="652" y="504"/>
      <point x="652" y="352" type="curve" smooth="yes"/>
      <point x="652" y="201"/>
      <point x="547" y="116"/>
      <point x="397" y="116" type="curve" smooth="yes"/>
      <point x="292" y="116"/>
      <point x="220" y="136"/>
      <point x="120" y="217" type="curve"/>
      <point x="97" y="60" type="line"/>
      <point x="191" y="1"/>
      <point x="272" y="-18"/>
      <point x="388" y="-18" type="curve" smooth="yes"/>
      <point x="623" y="-18"/>
      <point x="795" y="122"/>
      <point x="795" y="356" type="curve" smooth="yes"/>
      <point x="795" y="556"/>
      <point x="624" y="697"/>
      <point x="408" y="697" type="curve" smooth="yes"/>
      <point x="354" y="697"/>
      <point x="308" y="693"/>
      <point x="285" y="690" type="curve"/>
      <point x="285" y="967" type="line"/>
      <point x="573" y="967" type="line"/>
      <point x="636" y="967"/>
      <point x="693" y="964"/>
      <point x="750" y="952" type="curve"/>
      <point x="750" y="1095" type="line"/>
      <point x="146" y="1095" type="line"/>
    </contour>
  </outline>
</glyph>
<glyph name="six" format="1">
  <advance width="896"/>
  <unicode hex="0036"/>
  <outline>
    <contour>
      <point x="773" y="1043" type="line" name="hr00"/>
      <point x="695" y="1096"/>
      <point x="631" y="1111"/>
      <point x="542" y="1111" type="curve" smooth="yes"/>
      <point x="186" y="1111"/>
      <point x="82" y="785"/>
      <point x="82" y="508" type="curve" smooth="yes"/>
      <point x="82" y="180"/>
      <point x="217" y="-19"/>
      <point x="448" y="-19" type="curve" smooth="yes"/>
      <point x="678" y="-19"/>
      <point x="834" y="123"/>
      <point x="834" y="351" type="curve" smooth="yes"/>
      <point x="834" y="538"/>
      <point x="705" y="670"/>
      <point x="498" y="670" type="curve" smooth="yes"/>
      <point x="354" y="670"/>
      <point x="245" y="583"/>
      <point x="161" y="467" type="curve"/>
      <point x="209" y="411" type="line"/>
      <point x="271" y="488"/>
      <point x="366" y="539"/>
      <point x="483" y="539" type="curve" smooth="yes"/>
      <point x="617" y="539"/>
      <point x="688" y="457"/>
      <point x="688" y="325" type="curve" smooth="yes"/>
      <point x="688" y="205"/>
      <point x="602" y="112"/>
      <point x="471" y="112" type="curve" smooth="yes"/>
      <point x="306" y="112"/>
      <point x="228" y="294"/>
      <point x="228" y="483" type="curve" smooth="yes"/>
      <point x="228" y="846"/>
      <point x="357" y="979"/>
      <point x="535" y="979" type="curve" smooth="yes"/>
      <point x="606" y="979"/>
      <point x="675" y="961"/>
      <point x="740" y="898" type="curve"/>
    </contour>
  </outline>
</glyph>
<glyph name="seven" format="1">
  <advance width="896"/>
  <unicode hex="0037"/>
  <outline>
    <contour>
      <point x="344" y="0" type="line" name="hr00"/>
      <point x="441" y="343"/>
      <point x="594" y="670"/>
      <point x="815" y="973" type="curve"/>
      <point x="815" y="1092" type="line"/>
      <point x="75" y="1092" type="line"/>
      <point x="75" y="954" type="line"/>
      <point x="132" y="965"/>
      <point x="218" y="969"/>
      <point x="359" y="969" type="curve" smooth="yes"/>
      <point x="651" y="969" type="line"/>
      <point x="458" y="682"/>
      <point x="328" y="423"/>
      <point x="205" y="0" type="curve"/>
    </contour>
  </outline>
</glyph>
<glyph name="eight" format="1">
  <advance width="896"/>
  <unicode hex="0038"/>
  <outline>
    <contour>
      <point x="641" y="-19"/>
      <point x="830" y="100"/>
      <point x="830" y="303" type="curve" smooth="yes"/>
      <point x="830" y="457"/>
      <point x="722" y="553"/>
      <point x="639" y="595" type="curve"/>
      <point x="698" y="632"/>
      <point x="785" y="691"/>
      <point x="785" y="826" type="curve" smooth="yes"/>
      <point x="785" y="1010"/>
      <point x="628" y="1111"/>
      <point x="456" y="1111" type="curve" smooth="yes"/>
      <point x="285" y="1111"/>
      <point x="112" y="1010"/>
      <point x="112" y="826" type="curve" smooth="yes"/>
      <point x="112" y="691"/>
      <point x="203" y="626"/>
      <point x="261" y="595" type="curve"/>
      <point x="165" y="542"/>
      <point x="66" y="457"/>
      <point x="66" y="303" type="curve" smooth="yes"/>
      <point x="66" y="100"/>
      <point x="257" y="-19"/>
      <point x="448" y="-19" type="curve" smooth="yes"/>
    </contour>
    <contour>
      <point x="643" y="711"/>
      <point x="556" y="647"/>
      <point x="448" y="647" type="curve" smooth="yes"/>
      <point x="342" y="647"/>
      <point x="255" y="711"/>
      <point x="255" y="826" type="curve" smooth="yes"/>
      <point x="255" y="937"/>
      <point x="342" y="992"/>
      <point x="448" y="992" type="curve" smooth="yes"/>
      <point x="556" y="992"/>
      <point x="643" y="937"/>
      <point x="643" y="826" type="curve" smooth="yes"/>
    </contour>
    <contour>
      <point x="680" y="186"/>
      <point x="581" y="108"/>
      <point x="448" y="108" type="curve" smooth="yes"/>
      <point x="314" y="108"/>
      <point x="217" y="186"/>
      <point x="217" y="318" type="curve" smooth="yes"/>
      <point x="217" y="443"/>
      <point x="314" y="531"/>
      <point x="448" y="531" type="curve" smooth="yes"/>
      <point x="581" y="531"/>
      <point x="680" y="443"/>
      <point x="680" y="318" type="curve" smooth="yes"/>
    </contour>
  </outline>
</glyph>
<glyph name="nine" format="1">
  <advance width="896"/>
  <unicode hex="0039"/>
  <outline>
    <contour>
      <point x="144" y="48" type="line" name="hr00"/>
      <point x="222" y="-4"/>
      <point x="286" y="-19"/>
      <point x="375" y="-19" type="curve" smooth="yes"/>
      <point x="731" y="-19"/>
      <point x="833" y="307"/>
      <point x="833" y="583" type="curve" smooth="yes"/>
      <point x="833" y="896"/>
      <point x="693" y="1111"/>
      <point x="461" y="1111" type="curve" smooth="yes"/>
      <point x="261" y="1111"/>
      <point x="84" y="977"/>
      <point x="84" y="750" type="curve" smooth="yes"/>
      <point x="84" y="579"/>
      <point x="211" y="438"/>
      <point x="418" y="438" type="curve" smooth="yes"/>
      <point x="560" y="438"/>
      <point x="690" y="537"/>
      <point x="762" y="656" type="curve"/>
      <point x="710" y="719" type="line"/>
      <point x="654" y="634"/>
      <point x="552" y="568"/>
      <point x="436" y="568" type="curve" smooth="yes"/>
      <point x="317" y="568"/>
      <point x="228" y="643"/>
      <point x="228" y="775" type="curve" smooth="yes"/>
      <point x="228" y="895"/>
      <point x="314" y="979"/>
      <point x="446" y="979" type="curve" smooth="yes"/>
      <point x="626" y="979"/>
      <point x="687" y="797"/>
      <point x="687" y="608" type="curve" smooth="yes"/>
      <point x="687" y="243"/>
      <point x="560" y="112"/>
      <point x="382" y="112" type="curve" smooth="yes"/>
      <point x="311" y="112"/>
      <point x="241" y="129"/>
      <point x="178" y="195" type="curve"/>
    </contour>
  </outline>
</glyph>
<glyph name="colon" format="1">
  <advance width="479"/>
  <unicode hex="003A"/>
  <outline>
    <contour>
      <point x="139" y="536"/>
      <point x="183" y="490"/>
      <point x="239" y="490" type="curve" smooth="yes"/>
      <point x="294" y="490"/>
      <point x="340" y="536"/>
      <point x="340" y="591" type="curve" smooth="yes"/>
      <point x="340" y="646"/>
      <point x="294" y="693"/>
      <point x="239" y="693" type="curve" smooth="yes"/>
      <point x="183" y="693"/>
      <point x="139" y="646"/>
      <point x="139" y="591" type="curve" smooth="yes"/>
    </contour>
    <contour>
      <point x="139" y="27"/>
      <point x="183" y="-19"/>
      <point x="239" y="-19" type="curve" smooth="yes"/>
      <point x="294" y="-19"/>
      <point x="340" y="27"/>
      <point x="340" y="82" type="curve" smooth="yes"/>
      <point x="340" y="138"/>
      <point x="294" y="183"/>
      <point x="239" y="183" type="curve" smooth="yes"/>
      <point x="183" y="183"/>
      <point x="139" y="138"/>
      <point x="139" y="82" type="curve" smooth="yes"/>
    </contour>
  </outline>
</glyph>
<glyph name="semicolon" format="1">
  <advance width="485"/>
  <unicode hex="003B"/>
  <outline>
    <contour>
      <point x="139" y="591" type="curve" smooth="yes" name="hr00"/>
      <point x="139" y="536"/>
      <point x="183" y="490"/>
      <point x="239" y="490" type="curve" smooth="yes"/>
      <point x="294" y="490"/>
      <point x="340" y="536"/>
      <point x="340" y="591" type="curve" smooth="yes"/>
      <point x="340" y="646"/>
      <point x="294" y="693"/>
      <point x="239" y="693" type="curve" smooth="yes"/>
      <point x="183" y="693"/>
      <point x="139" y="646"/>
    </contour>
    <contour>
      <point x="139" y="37" type="line"/>
      <point x="243" y="37" type="line"/>
      <point x="243" y="-38"/>
      <point x="185" y="-128"/>
      <point x="142" y="-173" type="curve"/>
      <point x="217" y="-202" type="line"/>
      <point x="304" y="-120"/>
      <point x="348" y="-28"/>
      <point x="348" y="64" type="curve" smooth="yes"/>
      <point x="348" y="139"/>
      <point x="299" y="186"/>
      <point x="239" y="186" type="curve" smooth="yes"/>
      <point x="197" y="186"/>
      <point x="147" y="160"/>
      <point x="139" y="112" type="curve"/>
    </contour>
  </outline>
</glyph>
<glyph name="less" format="1">
  <advance width="898"/>
  <unicode hex="003C"/>
  <outline>
    <contour>
      <point x="807" y="318" type="line"/>
      <point x="217" y="545" type="line"/>
      <point x="807" y="774" type="line"/>
      <point x="807" y="909" type="line"/>
      <point x="75" y="610" type="line"/>
      <point x="75" y="483" type="line"/>
      <point x="807" y="183" type="line"/>
    </contour>
  </outline>
</glyph>
<glyph name="equal" format="2">
  <advance width="898"/>
  <unicode hex="003D"/>
  <outline>
    <contour>
      <point x="89" y="359" type="line"/>
      <point x="807" y="359" type="line"/>
      <point x="807" y="471" type="line"/>
      <point x="89" y="471" type="line"/>
    </contour>
    <contour>
      <point x="89" y="620" type="line"/>
      <point x="807" y="620" type="line"/>
      <point x="807" y="733" type="line"/>
      <point x="89" y="733" type="line"/>
    </contour>
  </outline>
</glyph>
<glyph name="greater" format="1">
  <advance width="898"/>
  <unicode hex="003E"/>
  <outline>
    <contour>
      <point x="89" y="774" type="line" name="hr00"/>
      <point x="680" y="545" type="line"/>
      <point x="89" y="318" type="line"/>
      <point x="89" y="183" type="line"/>
      <point x="823" y="483" type="line"/>
      <point x="823" y="610" type="line"/>
      <point x="89" y="909" type="line"/>
    </contour>
  </outline>
</glyph>
<glyph name="question" format="2">
  <advance width="787"/>
  <unicode hex="003F"/>
  <outline>
    <contour>
      <point x="345" y="1155" type="curve" smooth="yes"/>
      <point x="251" y="1155"/>
      <point x="154" y="1119"/>
      <point x="105" y="1072" type="curve"/>
      <point x="138" y="938" type="line"/>
      <point x="195" y="997"/>
      <point x="264" y="1023"/>
      <point x="324" y="1023" type="curve" smooth="yes"/>
      <point x="434" y="1023"/>
      <point x="468" y="966"/>
      <point x="468" y="922" type="curve" smooth="yes"/>
      <point x="468" y="869"/>
      <point x="429" y="819"/>
      <point x="363" y="735" type="curve" smooth="yes"/>
      <point x="297" y="650"/>
      <point x="266" y="547"/>
      <point x="266" y="330" type="curve"/>
      <point x="405" y="330" type="line"/>
      <point x="405" y="540"/>
      <point x="420" y="604"/>
      <point x="498" y="695" type="curve" smooth="yes"/>
      <point x="564" y="771"/>
      <point x="622" y="837"/>
      <point x="622" y="930" type="curve" smooth="yes"/>
      <point x="622" y="1066"/>
      <point x="522" y="1155"/>
    </contour>
    <contour>
      <point x="236" y="82" type="curve" smooth="yes"/>
      <point x="236" y="27"/>
      <point x="282" y="-18"/>
      <point x="337" y="-18" type="curve" smooth="yes"/>
      <point x="393" y="-18"/>
      <point x="438" y="27"/>
      <point x="438" y="82" type="curve" smooth="yes"/>
      <point x="438" y="138"/>
      <point x="393" y="183"/>
      <point x="337" y="183" type="curve" smooth="yes"/>
      <point x="282" y="183"/>
      <point x="236" y="138"/>
    </contour>
  </outline>
</glyph>
<glyph name="at" format="2">
  <advance width="1276"/>
  <unicode hex="0040"/>
  <outline>
    <contour>
      <point x="1203" y="525" type="curve" smooth="yes"/>
      <point x="1203" y="845"/>
      <point x="980" y="1053"/>
      <point x="660" y="1053" type="curve" smooth="yes"/>
      <point x="348" y="1053"/>
      <point x="71" y="844"/>
      <point x="71" y="431" type="curve" smooth="yes"/>
      <point x="71" y="36"/>
      <point x="348" y="-176"/>
      <point x="641" y="-176" type="curve" smooth="yes"/>
      <point x="742" y="-176"/>
      <point x="862" y="-141"/>
      <point x="937" y="-88" type="curve"/>
      <point x="858" y="-7" type="line"/>
      <point x="793" y="-52"/>
      <point x="722" y="-71"/>
      <point x="652" y="-71" type="curve" smooth="yes"/>
      <point x="392" y="-71"/>
      <point x="180" y="130"/>
      <point x="180" y="453" type="curve" smooth="yes"/>
      <point x="180" y="752"/>
      <point x="406" y="952"/>
      <point x="652" y="952" type="curve" smooth="yes"/>
      <point x="947" y="952"/>
      <point x="1098" y="751"/>
      <point x="1098" y="502" type="curve" smooth="yes"/>
      <point x="1098" y="324"/>
      <point x="1011" y="236"/>
      <point x="960" y="236" type="curve" smooth="yes"/>
      <point x="915" y="236"/>
      <point x="881" y="307"/>
      <point x="881" y="472" type="curve" smooth="yes"/>
      <point x="881" y="735" type="line"/>
      <point x="816" y="761"/>
      <point x="720" y="780"/>
      <point x="660" y="780" type="curve" smooth="yes"/>
      <point x="537" y="780"/>
      <point x="460" y="728"/>
      <point x="397" y="626" type="curve" smooth="yes"/>
      <point x="361" y="567"/>
      <point x="341" y="489"/>
      <point x="341" y="397" type="curve" smooth="yes"/>
      <point x="341" y="220"/>
      <point x="450" y="137"/>
      <point x="551" y="137" type="curve" smooth="yes"/>
      <point x="639" y="137"/>
      <point x="741" y="274"/>
      <point x="780" y="367" type="curve"/>
      <point x="787" y="241"/>
      <point x="846" y="135"/>
      <point x="937" y="135" type="curve" smooth="yes"/>
      <point x="1068" y="135"/>
      <point x="1203" y="276"/>
    </contour>
    <contour>
      <point x="637" y="678" type="curve" smooth="yes"/>
      <point x="693" y="678"/>
      <point x="744" y="664"/>
      <point x="768" y="652" type="curve"/>
      <point x="768" y="540" type="line"/>
      <point x="744" y="436"/>
      <point x="628" y="240"/>
      <point x="561" y="240" type="curve" smooth="yes"/>
      <point x="507" y="240"/>
      <point x="453" y="298"/>
      <point x="453" y="431" type="curve" smooth="yes"/>
      <point x="453" y="489"/>
      <point x="465" y="548"/>
      <point x="487" y="585" type="curve" smooth="yes"/>
      <point x="529" y="657"/>
      <point x="586" y="678"/>
    </contour>
  </outline>
</glyph>
<glyph name="A" format="2">
  <advance width="1043"/>
  <unicode hex="0041"/>
  <anchor x="514" y="1150" name="above"/>
  <outline>
    <contour>
      <point x="183" y="0" type="line"/>
      <point x="283" y="288" type="line"/>
      <point x="743" y="288" type="line"/>
      <point x="845" y="0" type="line"/>
      <point x="998" y="0" type="line"/>
      <point x="973" y="60"/>
      <point x="944" y="127"/>
      <point x="894" y="265" type="curve" smooth="yes"/>
      <point x="595" y="1092" type="line"/>
      <point x="434" y="1092" type="line"/>
      <point x="135" y="265" type="line" smooth="yes"/>
      <point x="84" y="125"/>
      <point x="57" y="61"/>
      <point x="29" y="0" type="curve"/>
    </contour>
    <contour>
      <point x="703" y="404" type="line"/>
      <point x="324" y="404" type="line"/>
      <point x="513" y="946" type="line"/>
    </contour>
  </outline>
</glyph>
<glyph name="B" format="2">
  <advance width="963"/>
  <unicode hex="0042"/>
  <anchor x="461" y="-75" name="L"/>
  <anchor x="461" y="1147" name="U"/>
  <outline>
    <contour>
      <point x="273" y="982" type="line"/>
      <point x="305" y="984"/>
      <point x="384" y="986"/>
      <point x="442" y="986" type="curve" smooth="yes"/>
      <point x="593" y="986"/>
      <point x="652" y="929"/>
      <point x="652" y="817" type="curve" smooth="yes"/>
      <point x="652" y="713"/>
      <point x="580" y="641"/>
      <point x="420" y="641" type="curve" smooth="yes"/>
      <point x="273" y="641" type="line"/>
    </contour>
    <contour>
      <point x="131" y="341" type="line"/>
      <point x="131" y="192"/>
      <point x="131" y="60"/>
      <point x="120" y="0" type="curve"/>
      <point x="159" y="-3"/>
      <point x="301" y="-7"/>
      <point x="453" y="-7" type="curve" smooth="yes"/>
      <point x="741" y="-7"/>
      <point x="855" y="132"/>
      <point x="855" y="315" type="curve" smooth="yes"/>
      <point x="855" y="501"/>
      <point x="730" y="569"/>
      <point x="615" y="600" type="curve"/>
      <point x="717" y="639"/>
      <point x="798" y="714"/>
      <point x="798" y="840" type="curve" smooth="yes"/>
      <point x="798" y="1035"/>
      <point x="672" y="1102"/>
      <point x="450" y="1102" type="curve" smooth="yes"/>
      <point x="323" y="1102"/>
      <point x="186" y="1099"/>
      <point x="120" y="1095" type="curve"/>
      <point x="131" y="1035"/>
      <point x="131" y="897"/>
      <point x="131" y="750" type="curve" smooth="yes"/>
    </contour>
    <contour>
      <point x="273" y="525" type="line"/>
      <point x="450" y="525" type="line" smooth="yes"/>
      <point x="624" y="525"/>
      <point x="708" y="453"/>
      <point x="708" y="315" type="curve" smooth="yes"/>
      <point x="708" y="159"/>
      <point x="585" y="112"/>
      <point x="457" y="112" type="curve" smooth="yes"/>
      <point x="373" y="112"/>
      <point x="301" y="114"/>
      <point x="273" y="116" type="curve"/>
    </contour>
  </outline>
</glyph>
<glyph name="C" format="2">
  <advance width="1014"/>
  <unicode hex="0043"/>
  <anchor x="559" y="-1" name="below"/>
  <outline>
    <contour>
      <point x="890" y="251" type="line"/>
      <point x="806" y="166"/>
      <point x="682" y="112"/>
      <point x="568" y="112" type="curve" smooth="yes"/>
      <point x="366" y="112"/>
      <point x="217" y="281"/>
      <point x="217" y="550" type="curve" smooth="yes"/>
      <point x="217" y="837"/>
      <point x="367" y="983"/>
      <point x="576" y="983" type="curve" smooth="yes"/>
      <point x="666" y="983"/>
      <point x="770" y="956"/>
      <point x="864" y="872" type="curve"/>
      <point x="909" y="1006" type="line"/>
      <point x="802" y="1086"/>
      <point x="683" y="1111"/>
      <point x="576" y="1111" type="curve" smooth="yes"/>
      <point x="313" y="1111"/>
      <point x="71" y="917"/>
      <point x="71" y="531" type="curve" smooth="yes"/>
      <point x="71" y="195"/>
      <point x="258" y="-19"/>
      <point x="560" y="-19" type="curve" smooth="yes"/>
      <point x="674" y="-19"/>
      <point x="833" y="24"/>
      <point x="920" y="104" type="curve"/>
    </contour>
  </outline>
</glyph>
<glyph name="D" format="1">
  <advance width="1073"/>
  <unicode hex="0044"/>
  <outline>
    <contour>
      <point x="131" y="340" type="line" name="hr00"/>
      <point x="129" y="193"/>
      <point x="131" y="60"/>
      <point x="120" y="0" type="curve"/>
      <point x="120" y="0"/>
      <point x="349" y="-8"/>
      <point x="445" y="-8" type="curve" smooth="yes"/>
      <point x="664" y="-8"/>
      <point x="983" y="108"/>
      <point x="983" y="554" type="curve" smooth="yes"/>
      <point x="983" y="1042"/>
      <point x="620" y="1099"/>
      <point x="460" y="1099" type="curve" smooth="yes"/>
      <point x="359" y="1099"/>
      <point x="183" y="1096"/>
      <point x="120" y="1092" type="curve"/>
      <point x="131" y="1033"/>
      <point x="131" y="895"/>
      <point x="131" y="748" type="curve" smooth="yes"/>
    </contour>
    <contour>
      <point x="274" y="977" type="line"/>
      <point x="311" y="978"/>
      <point x="392" y="979"/>
      <point x="441" y="979" type="curve" smooth="yes"/>
      <point x="656" y="979"/>
      <point x="838" y="873"/>
      <point x="838" y="539" type="curve" smooth="yes"/>
      <point x="838" y="231"/>
      <point x="638" y="116"/>
      <point x="438" y="116" type="curve" smooth="yes"/>
      <point x="366" y="116"/>
      <point x="308" y="121"/>
      <point x="274" y="123" type="curve"/>
    </contour>
  </outline>
</glyph>
<glyph name="E" format="1">
  <advance width="867"/>
  <unicode hex="0045"/>
  <outline>
    <contour>
      <point x="274" y="633" type="line" name="hr00"/>
      <point x="274" y="969" type="line"/>
      <point x="755" y="969" type="line"/>
      <point x="755" y="1092" type="line"/>
      <point x="120" y="1092" type="line"/>
      <point x="131" y="1033"/>
      <point x="131" y="914"/>
      <point x="131" y="767" type="curve" smooth="yes"/>
      <point x="131" y="325" type="line" smooth="yes"/>
      <point x="131" y="178"/>
      <point x="131" y="60"/>
      <point x="120" y="0" type="curve"/>
      <point x="778" y="0" type="line"/>
      <point x="778" y="135" type="line"/>
      <point x="718" y="123"/>
      <point x="617" y="123"/>
      <point x="471" y="123" type="curve" smooth="yes"/>
      <point x="274" y="123" type="line"/>
      <point x="274" y="513" type="line"/>
      <point x="699" y="513" type="line"/>
      <point x="699" y="633" type="line"/>
    </contour>
    <contour>
      <point x="442" y="1150" type="move" name="above"/>
    </contour>
  </outline>
</glyph>
<glyph name="F" format="2">
  <advance width="862"/>
  <unicode hex="0046"/>
  <anchor x="446" y="-75" name="L"/>
  <anchor x="446" y="1147" name="U"/>
  <outline>
    <contour>
      <point x="120" y="0" type="curve"/>
      <point x="285" y="0" type="line"/>
      <point x="273" y="58"/>
      <point x="273" y="177"/>
      <point x="273" y="326" type="curve" smooth="yes"/>
      <point x="273" y="506" type="line"/>
      <point x="708" y="506" type="line"/>
      <point x="708" y="626" type="line"/>
      <point x="273" y="626" type="line"/>
      <point x="273" y="971" type="line"/>
      <point x="772" y="971" type="line"/>
      <point x="772" y="1095" type="line"/>
      <point x="120" y="1095" type="line"/>
      <point x="131" y="1035"/>
      <point x="131" y="912"/>
      <point x="131" y="765" type="curve" smooth="yes"/>
      <point x="131" y="326" type="line" smooth="yes"/>
      <point x="131" y="178"/>
      <point x="131" y="60"/>
    </contour>
  </outline>
</glyph>
<glyph name="G" format="2">
  <advance width="1065"/>
  <unicode hex="0047"/>
  <anchor x="558" y="0" name="H"/>
  <anchor x="558" y="-75" name="L"/>
  <anchor x="558" y="1147" name="U"/>
  <outline>
    <contour>
      <point x="956" y="558" type="line"/>
      <point x="551" y="558" type="line"/>
      <point x="551" y="435" type="line"/>
      <point x="813" y="435" type="line"/>
      <point x="813" y="183" type="line"/>
      <point x="722" y="128"/>
      <point x="657" y="112"/>
      <point x="567" y="112" type="curve" smooth="yes"/>
      <point x="353" y="112"/>
      <point x="217" y="282"/>
      <point x="217" y="558" type="curve" smooth="yes"/>
      <point x="217" y="820"/>
      <point x="360" y="986"/>
      <point x="588" y="986" type="curve" smooth="yes"/>
      <point x="688" y="986"/>
      <point x="784" y="964"/>
      <point x="896" y="873" type="curve"/>
      <point x="945" y="1008" type="line"/>
      <point x="813" y="1096"/>
      <point x="710" y="1113"/>
      <point x="588" y="1113" type="curve" smooth="yes"/>
      <point x="301" y="1113"/>
      <point x="71" y="899"/>
      <point x="71" y="540" type="curve" smooth="yes"/>
      <point x="71" y="180"/>
      <point x="275" y="-18"/>
      <point x="558" y="-18" type="curve" smooth="yes"/>
      <point x="688" y="-18"/>
      <point x="802" y="8"/>
      <point x="956" y="116" type="curve"/>
    </contour>
  </outline>
</glyph>
<glyph name="H" format="2">
  <advance width="1106"/>
  <unicode hex="0048"/>
  <anchor x="213" y="0" name="H"/>
  <anchor x="543" y="-75" name="L"/>
  <anchor x="543" y="1147" name="U"/>
  <outline>
    <contour>
      <point x="120" y="0" type="curve"/>
      <point x="273" y="0" type="line"/>
      <point x="273" y="506" type="line"/>
      <point x="813" y="506" type="line"/>
      <point x="813" y="0" type="line"/>
      <point x="967" y="0" type="line"/>
      <point x="956" y="60"/>
      <point x="956" y="178"/>
      <point x="956" y="326" type="curve" smooth="yes"/>
      <point x="956" y="768" type="line" smooth="yes"/>
      <point x="956" y="916"/>
      <point x="956" y="1035"/>
      <point x="967" y="1095" type="curve"/>
      <point x="813" y="1095" type="line"/>
      <point x="813" y="626" type="line"/>
      <point x="273" y="626" type="line"/>
      <point x="273" y="1095" type="line"/>
      <point x="120" y="1095" type="line"/>
      <point x="131" y="1035"/>
      <point x="131" y="916"/>
      <point x="131" y="768" type="curve" smooth="yes"/>
      <point x="131" y="326" type="line" smooth="yes"/>
      <point x="131" y="178"/>
      <point x="131" y="60"/>
    </contour>
  </outline>
</glyph>
<glyph name="I" format="2">
  <advance width="731"/>
  <unicode hex="0049"/>
  <anchor x="357" y="0" name="H"/>
  <anchor x="357" y="-75" name="L"/>
  <anchor x="504" y="0" name="O"/>
  <anchor x="731" y="900" name="R"/>
  <anchor x="357" y="1147" name="U"/>
  <outline>
    <contour>
      <point x="105" y="0" type="line"/>
      <point x="611" y="0" type="line"/>
      <point x="611" y="108" type="line"/>
      <point x="427" y="108" type="line"/>
      <point x="427" y="986" type="line"/>
      <point x="611" y="986" type="line"/>
      <point x="611" y="1095" type="line"/>
      <point x="105" y="1095" type="line"/>
      <point x="105" y="986" type="line"/>
      <point x="285" y="986" type="line"/>
      <point x="285" y="108" type="line"/>
      <point x="105" y="108" type="line"/>
    </contour>
  </outline>
</glyph>
<glyph name="J" format="1">
  <advance width="722"/>
  <unicode hex="004A"/>
  <outline>
    <contour>
      <point x="430" y="1092" type="line" name="hr00"/>
      <point x="440" y="1013"/>
      <point x="441" y="879"/>
      <point x="441" y="733" type="curve"/>
      <point x="441" y="363" type="line" smooth="yes"/>
      <point x="441" y="192"/>
      <point x="364" y="116"/>
      <point x="255" y="116" type="curve" smooth="yes"/>
      <point x="185" y="116"/>
      <point x="109" y="147"/>
      <point x="60" y="205" type="curve"/>
      <point x="26" y="66" type="line"/>
      <point x="79" y="7"/>
      <point x="186" y="-19"/>
      <point x="258" y="-19" type="curve" smooth="yes"/>
      <point x="450" y="-19"/>
      <point x="583" y="88"/>
      <point x="583" y="400" type="curve" smooth="yes"/>
      <point x="583" y="1092" type="line"/>
    </contour>
  </outline>
</glyph>
<glyph name="K" format="1">
  <advance width="979"/>
  <unicode hex="004B"/>
  <outline>
    <contour>
      <point x="693" y="1092" type="line" name="hr00"/>
      <point x="220" y="525" type="line"/>
      <point x="318" y="558" type="line"/>
      <point x="396" y="554" type="line"/>
      <point x="872" y="1092" type="line"/>
    </contour>
    <contour>
      <point x="261" y="550" type="line"/>
      <point x="737" y="0" type="line"/>
      <point x="920" y="0" type="line"/>
      <point x="363" y="643" type="line"/>
    </contour>
    <contour>
      <point x="274" y="1092" type="line"/>
      <point x="120" y="1092" type="line"/>
      <point x="131" y="1033"/>
      <point x="131" y="914"/>
      <point x="131" y="767" type="curve" smooth="yes"/>
      <point x="131" y="325" type="line" smooth="yes"/>
      <point x="131" y="178"/>
      <point x="131" y="60"/>
      <point x="120" y="0" type="curve"/>
      <point x="274" y="0" type="line"/>
    </contour>
  </outline>
</glyph>
<glyph name="L" format="2">
  <advance width="810"/>
  <unicode hex="004C"/>
  <anchor x="444" y="0" name="H"/>
  <anchor x="444" y="-75" name="L"/>
  <anchor x="405" y="900" name="R"/>
  <anchor x="444" y="1147" name="U"/>
  <outline>
    <contour>
      <point x="120" y="0" type="curve"/>
      <point x="768" y="0" type="line"/>
      <point x="768" y="135" type="line"/>
      <point x="708" y="124"/>
      <point x="589" y="123"/>
      <point x="441" y="123" type="curve" smooth="yes"/>
      <point x="273" y="123" type="line"/>
      <point x="273" y="1095" type="line"/>
      <point x="120" y="1095" type="line"/>
      <point x="131" y="1035"/>
      <point x="131" y="916"/>
      <point x="131" y="768" type="curve" smooth="yes"/>
      <point x="131" y="326" type="line" smooth="yes"/>
      <point x="131" y="178"/>
      <point x="131" y="60"/>
    </contour>
  </outline>
</glyph>
<glyph name="M" format="1">
  <advance width="1342"/>
  <unicode hex="004D"/>
  <outline>
    <contour>
      <point x="662" y="154" type="line" name="hr00"/>
      <point x="340" y="1092" type="line"/>
      <point x="214" y="1092" type="line"/>
      <point x="591" y="0" type="line"/>
      <point x="737" y="0" type="line"/>
      <point x="1112" y="1092" type="line"/>
      <point x="987" y="1092" type="line"/>
    </contour>
    <contour>
      <point x="172" y="1092" type="line"/>
      <point x="172" y="1092"/>
      <point x="139" y="147"/>
      <point x="120" y="0" type="curve"/>
      <point x="258" y="0" type="line"/>
      <point x="282" y="902" type="line"/>
      <point x="303" y="1092" type="line"/>
    </contour>
    <contour>
      <point x="1204" y="0" type="line"/>
      <point x="1183" y="147"/>
      <point x="1152" y="1092"/>
      <point x="1152" y="1092" type="curve"/>
      <point x="1021" y="1092" type="line"/>
      <point x="1045" y="902" type="line"/>
      <point x="1066" y="0" type="line"/>
    </contour>
  </outline>
</glyph>
<glyph name="N" format="1">
  <advance width="1122"/>
  <unicode hex="004E"/>
  <outline>
    <contour>
      <point x="149" y="1014" type="line" name="hr00"/>
      <point x="849" y="0" type="line"/>
      <point x="954" y="75" type="line"/>
      <point x="255" y="1092" type="line"/>
    </contour>
    <contour>
      <point x="849" y="0" type="line"/>
      <point x="973" y="0" type="line"/>
      <point x="973" y="767" type="line" smooth="yes"/>
      <point x="973" y="914"/>
      <point x="974" y="1033"/>
      <point x="983" y="1092" type="curve"/>
      <point x="849" y="1092" type="line"/>
    </contour>
    <contour>
      <point x="255" y="1092" type="line"/>
      <point x="120" y="1092" type="line"/>
      <point x="131" y="1033"/>
      <point x="131" y="914"/>
      <point x="131" y="767" type="curve" smooth="yes"/>
      <point x="131" y="325" type="line" smooth="yes"/>
      <point x="131" y="178"/>
      <point x="131" y="60"/>
      <point x="120" y="0" type="curve"/>
      <point x="255" y="0" type="line"/>
    </contour>
    <contour>
      <point x="546" y="1150" type="move" name="above"/>
    </contour>
  </outline>
</glyph>
<glyph name="O" format="1">
  <advance width="1092"/>
  <unicode hex="004F"/>
  <outline>
    <contour>
      <point x="857" y="535" type="curve" smooth="yes" name="hr00"/>
      <point x="857" y="269"/>
      <point x="722" y="112"/>
      <point x="539" y="112" type="curve" smooth="yes"/>
      <point x="344" y="112"/>
      <point x="217" y="284"/>
      <point x="217" y="558" type="curve" smooth="yes"/>
      <point x="217" y="816"/>
      <point x="349" y="979"/>
      <point x="539" y="979" type="curve" smooth="yes"/>
      <point x="728" y="979"/>
      <point x="857" y="811"/>
    </contour>
    <contour>
      <point x="1002" y="554" type="curve" smooth="yes"/>
      <point x="1002" y="912"/>
      <point x="784" y="1111"/>
      <point x="545" y="1111" type="curve" smooth="yes"/>
      <point x="304" y="1111"/>
      <point x="71" y="897"/>
      <point x="71" y="539" type="curve" smooth="yes"/>
      <point x="71" y="180"/>
      <point x="291" y="-19"/>
      <point x="531" y="-19" type="curve" smooth="yes"/>
      <point x="770" y="-19"/>
      <point x="1002" y="195"/>
    </contour>
    <contour>
      <point x="545" y="1150" type="move" name="above"/>
    </contour>
  </outline>
</glyph>
<glyph name="P" format="1">
  <advance width="894"/>
  <unicode hex="0050"/>
  <outline>
    <contour>
      <point x="274" y="423" type="line" name="hr00"/>
      <point x="321" y="417"/>
      <point x="383" y="415"/>
      <point x="438" y="415" type="curve" smooth="yes"/>
      <point x="683" y="415"/>
      <point x="834" y="551"/>
      <point x="834" y="770" type="curve" smooth="yes"/>
      <point x="834" y="989"/>
      <point x="679" y="1099"/>
      <point x="438" y="1099" type="curve" smooth="yes"/>
      <point x="278" y="1099"/>
      <point x="120" y="1092"/>
      <point x="120" y="1092" type="curve"/>
      <point x="131" y="1033"/>
      <point x="131" y="895"/>
      <point x="131" y="748" type="curve"/>
      <point x="131" y="325" type="line" smooth="yes"/>
      <point x="131" y="178"/>
      <point x="131" y="60"/>
      <point x="120" y="0" type="curve"/>
      <point x="284" y="0" type="line"/>
      <point x="274" y="58"/>
      <point x="274" y="178"/>
      <point x="274" y="325" type="curve" smooth="yes"/>
    </contour>
    <contour>
      <point x="274" y="977" type="line"/>
      <point x="324" y="978"/>
      <point x="360" y="979"/>
      <point x="430" y="979" type="curve" smooth="yes"/>
      <point x="630" y="979"/>
      <point x="693" y="875"/>
      <point x="693" y="755" type="curve" smooth="yes"/>
      <point x="693" y="636"/>
      <point x="636" y="531"/>
      <point x="426" y="531" type="curve" smooth="yes"/>
      <point x="370" y="531"/>
      <point x="320" y="533"/>
      <point x="274" y="539" type="curve"/>
    </contour>
  </outline>
</glyph>
<glyph name="Q" format="1">
  <advance width="1103"/>
  <unicode hex="0051"/>
  <outline>
    <contour>
      <point x="1002" y="554" type="curve" smooth="yes"/>
      <point x="1002" y="912"/>
      <point x="788" y="1111"/>
      <point x="545" y="1111" type="curve" smooth="yes"/>
      <point x="304" y="1111"/>
      <point x="71" y="897"/>
      <point x="71" y="539" type="curve" smooth="yes"/>
      <point x="71" y="180"/>
      <point x="286" y="-19"/>
      <point x="527" y="-19" type="curve" smooth="yes"/>
      <point x="574" y="-19"/>
      <point x="612" y="-14"/>
      <point x="655" y="0" type="curve" name="hr01"/>
      <point x="706" y="0"/>
      <point x="924" y="-143"/>
      <point x="987" y="-143" type="curve" smooth="yes" name="hr02"/>
      <point x="1027" y="-143"/>
      <point x="1071" y="-61"/>
      <point x="1089" y="-34" type="curve"/>
      <point x="989" y="-21"/>
      <point x="902" y="21"/>
      <point x="807" y="79" type="curve"/>
      <point x="940" y="177"/>
      <point x="1002" y="358"/>
    </contour>
    <contour>
      <point x="857" y="535" type="curve" smooth="yes"/>
      <point x="857" y="269"/>
      <point x="722" y="112"/>
      <point x="539" y="112" type="curve" smooth="yes"/>
      <point x="344" y="112"/>
      <point x="217" y="284"/>
      <point x="217" y="558" type="curve" smooth="yes"/>
      <point x="217" y="816"/>
      <point x="349" y="979"/>
      <point x="539" y="979" type="curve" smooth="yes"/>
      <point x="728" y="979"/>
      <point x="857" y="811"/>
    </contour>
  </outline>
</glyph>
<glyph name="R" format="1">
  <advance width="977"/>
  <unicode hex="0052"/>
  <outline>
    <contour>
      <point x="274" y="467" type="line"/>
      <point x="464" y="467" type="line"/>
      <point x="602" y="467"/>
      <point x="815" y="556"/>
      <point x="815" y="793" type="curve" smooth="yes"/>
      <point x="815" y="1010"/>
      <point x="655" y="1099"/>
      <point x="423" y="1099" type="curve" smooth="yes"/>
      <point x="247" y="1099"/>
      <point x="120" y="1092"/>
      <point x="120" y="1092" type="curve"/>
      <point x="131" y="1033"/>
      <point x="131" y="895"/>
      <point x="131" y="748" type="curve" smooth="yes"/>
      <point x="131" y="325" type="line"/>
      <point x="131" y="178"/>
      <point x="131" y="60"/>
      <point x="120" y="0" type="curve"/>
      <point x="284" y="0" type="line"/>
      <point x="274" y="58"/>
      <point x="274" y="178"/>
      <point x="274" y="325" type="curve"/>
    </contour>
    <contour>
      <point x="274" y="977" type="line"/>
      <point x="313" y="978"/>
      <point x="363" y="979"/>
      <point x="415" y="979" type="curve" smooth="yes"/>
      <point x="598" y="979"/>
      <point x="674" y="910"/>
      <point x="674" y="782" type="curve" smooth="yes"/>
      <point x="674" y="657"/>
      <point x="583" y="583"/>
      <point x="415" y="583" type="curve"/>
      <point x="274" y="583" type="line"/>
    </contour>
    <contour>
      <point x="420" y="475" type="line"/>
      <point x="740" y="0" type="line"/>
      <point x="932" y="0" type="line"/>
      <point x="881" y="55"/>
      <point x="535" y="531"/>
      <point x="535" y="531" type="curve"/>
    </contour>
  </outline>
</glyph>
<glyph name="S" format="2">
  <advance width="881"/>
  <unicode hex="0053"/>
  <anchor x="435" y="0" name="H"/>
  <anchor x="435" y="-75" name="L"/>
  <anchor x="435" y="1147" name="U"/>
  <outline>
    <contour>
      <point x="423" y="-18" type="curve" smooth="yes"/>
      <point x="628" y="-18"/>
      <point x="798" y="117"/>
      <point x="798" y="318" type="curve" smooth="yes"/>
      <point x="798" y="480"/>
      <point x="690" y="571"/>
      <point x="491" y="630" type="curve" smooth="yes"/>
      <point x="277" y="692"/>
      <point x="243" y="738"/>
      <point x="243" y="821" type="curve" smooth="yes"/>
      <point x="243" y="903"/>
      <point x="326" y="982"/>
      <point x="446" y="982" type="curve" smooth="yes"/>
      <point x="542" y="982"/>
      <point x="612" y="959"/>
      <point x="720" y="900" type="curve"/>
      <point x="750" y="1046" type="line"/>
      <point x="652" y="1093"/>
      <point x="569" y="1113"/>
      <point x="453" y="1113" type="curve" smooth="yes"/>
      <point x="204" y="1113"/>
      <point x="101" y="937"/>
      <point x="101" y="810" type="curve" smooth="yes"/>
      <point x="101" y="682"/>
      <point x="152" y="583"/>
      <point x="386" y="513" type="curve" smooth="yes"/>
      <point x="620" y="443"/>
      <point x="656" y="382"/>
      <point x="656" y="303" type="curve" smooth="yes"/>
      <point x="656" y="182"/>
      <point x="544" y="112"/>
      <point x="423" y="112" type="curve" smooth="yes"/>
      <point x="312" y="112"/>
      <point x="204" y="150"/>
      <point x="105" y="236" type="curve"/>
      <point x="71" y="82" type="line"/>
      <point x="147" y="23"/>
      <point x="279" y="-18"/>
    </contour>
  </outline>
</glyph>
<glyph name="T" format="2">
  <advance width="948"/>
  <unicode hex="0054"/>
  <anchor x="466" y="0" name="H"/>
  <anchor x="466" y="-75" name="L"/>
  <anchor x="466" y="1147" name="U"/>
  <outline>
    <contour>
      <point x="33" y="1095" type="line"/>
      <point x="33" y="956" type="line"/>
      <point x="93" y="969"/>
      <point x="150" y="971"/>
      <point x="217" y="971" type="curve" smooth="yes"/>
      <point x="393" y="971" type="line"/>
      <point x="393" y="326" type="line" smooth="yes"/>
      <point x="393" y="178"/>
      <point x="391" y="60"/>
      <point x="378" y="0" type="curve"/>
      <point x="551" y="0" type="line"/>
      <point x="538" y="60"/>
      <point x="536" y="178"/>
      <point x="536" y="326" type="curve" smooth="yes"/>
      <point x="536" y="971" type="line"/>
      <point x="716" y="971" type="line" smooth="yes"/>
      <point x="783" y="971"/>
      <point x="840" y="969"/>
      <point x="900" y="956" type="curve"/>
      <point x="900" y="1095" type="line"/>
    </contour>
  </outline>
</glyph>
<glyph name="U" format="1">
  <advance width="1077"/>
  <unicode hex="0055"/>
  <outline>
    <contour>
      <point x="785" y="1092" type="line" name="hr00"/>
      <point x="785" y="419" type="line" smooth="yes"/>
      <point x="785" y="223"/>
      <point x="724" y="101"/>
      <point x="531" y="101" type="curve" smooth="yes"/>
      <point x="334" y="101"/>
      <point x="274" y="223"/>
      <point x="274" y="419" type="curve" smooth="yes"/>
      <point x="274" y="1092" type="line"/>
      <point x="120" y="1092" type="line"/>
      <point x="129" y="1033"/>
      <point x="131" y="914"/>
      <point x="131" y="767" type="curve" smooth="yes"/>
      <point x="131" y="385" type="line"/>
      <point x="131" y="142"/>
      <point x="258" y="-19"/>
      <point x="531" y="-19" type="curve" smooth="yes"/>
      <point x="801" y="-19"/>
      <point x="927" y="142"/>
      <point x="927" y="385" type="curve"/>
      <point x="927" y="767" type="line" smooth="yes"/>
      <point x="927" y="921"/>
      <point x="929" y="1033"/>
      <point x="939" y="1092" type="curve"/>
    </contour>
    <contour>
      <point x="531" y="1150" type="move" name="above"/>
    </contour>
  </outline>
</glyph>
<glyph name="V" format="1">
  <advance width="1021"/>
  <unicode hex="0056"/>
  <outline>
    <contour>
      <point x="819" y="1092" type="line"/>
      <point x="503" y="145" type="line"/>
      <point x="186" y="1092" type="line"/>
      <point x="26" y="1092" type="line"/>
      <point x="51" y="1031"/>
      <point x="75" y="962"/>
      <point x="126" y="819" type="curve" smooth="yes"/>
      <point x="419" y="0" type="line"/>
      <point x="587" y="0" type="line"/>
      <point x="875" y="819" type="line" smooth="yes"/>
      <point x="926" y="963"/>
      <point x="953" y="1031"/>
      <point x="979" y="1092" type="curve"/>
    </contour>
  </outline>
</glyph>
<glyph name="W" format="1">
  <advance width="1556"/>
  <unicode hex="0057"/>
  <outline>
    <contour>
      <point x="1107" y="0" type="line" name="hr00"/>
      <point x="1193" y="0" type="line"/>
      <point x="1421" y="819" type="line" smooth="yes"/>
      <point x="1461" y="964"/>
      <point x="1483" y="1031"/>
      <point x="1508" y="1092" type="curve"/>
      <point x="1342" y="1092" type="line"/>
      <point x="1099" y="97" type="line"/>
    </contour>
    <contour>
      <point x="838" y="1092" type="line"/>
      <point x="699" y="1092" type="line"/>
      <point x="740" y="977" type="line"/>
      <point x="1024" y="0" type="line"/>
      <point x="1107" y="0" type="line"/>
      <point x="1122" y="97" type="line"/>
    </contour>
    <contour>
      <point x="434" y="0" type="line"/>
      <point x="513" y="0" type="line"/>
      <point x="797" y="977" type="line"/>
      <point x="838" y="1092" type="line"/>
      <point x="699" y="1092" type="line"/>
      <point x="419" y="97" type="line"/>
    </contour>
    <contour>
      <point x="195" y="1092" type="line"/>
      <point x="29" y="1092" type="line"/>
      <point x="53" y="1034"/>
      <point x="76" y="961"/>
      <point x="116" y="819" type="curve" smooth="yes"/>
      <point x="344" y="0" type="line"/>
      <point x="434" y="0" type="line"/>
      <point x="441" y="97" type="line"/>
    </contour>
  </outline>
</glyph>
<glyph name="X" format="1">
  <advance width="992"/>
  <unicode hex="0058"/>
  <outline>
    <contour>
      <point x="402" y="584" type="line"/>
      <point x="199" y="255" type="line" smooth="yes"/>
      <point x="102" y="99"/>
      <point x="77" y="64"/>
      <point x="29" y="0" type="curve"/>
      <point x="201" y="0" type="line"/>
      <point x="480" y="459" type="line"/>
      <point x="770" y="0" type="line"/>
      <point x="942" y="0" type="line"/>
      <point x="897" y="61"/>
      <point x="872" y="95"/>
      <point x="773" y="252" type="curve" smooth="yes"/>
      <point x="570" y="574" type="line"/>
      <point x="727" y="830" type="line" smooth="yes"/>
      <point x="821" y="982"/>
      <point x="859" y="1035"/>
      <point x="904" y="1092" type="curve"/>
      <point x="730" y="1092" type="line"/>
      <point x="491" y="698" type="line"/>
      <point x="243" y="1092" type="line"/>
      <point x="66" y="1092" type="line"/>
      <point x="115" y="1030"/>
      <point x="151" y="981"/>
      <point x="246" y="830" type="curve"/>
    </contour>
  </outline>
</glyph>
<glyph name="Z" format="2">
  <advance width="922"/>
  <unicode hex="005A"/>
  <anchor x="453" y="-75" name="L"/>
  <anchor x="453" y="1147" name="U"/>
  <outline>
    <contour>
      <point x="828" y="1095" type="line"/>
      <point x="101" y="1095" type="line"/>
      <point x="101" y="956" type="line"/>
      <point x="161" y="969"/>
      <point x="249" y="971"/>
      <point x="397" y="971" type="curve" smooth="yes"/>
      <point x="652" y="971" type="line"/>
      <point x="56" y="93" type="line"/>
      <point x="56" y="0" type="line"/>
      <point x="851" y="0" type="line"/>
      <point x="851" y="138" type="line"/>
      <point x="791" y="128"/>
      <point x="672" y="123"/>
      <point x="525" y="123" type="curve" smooth="yes"/>
      <point x="232" y="123" type="line"/>
      <point x="828" y="997" type="line"/>
    </contour>
  </outline>
</glyph>
<glyph name="bracketleft" format="1">
  <advance width="591"/>
  <unicode hex="005B"/>
  <outline>
    <contour>
      <point x="479" y="-307" type="line"/>
      <point x="479" y="-195" type="line"/>
      <point x="288" y="-195" type="line"/>
      <point x="288" y="1084" type="line"/>
      <point x="479" y="1084" type="line"/>
      <point x="479" y="1197" type="line"/>
      <point x="149" y="1197" type="line"/>
      <point x="149" y="-307" type="line"/>
    </contour>
  </outline>
</glyph>
<glyph name="backslash" format="2">
  <advance width="748"/>
  <unicode hex="005C"/>
  <outline>
    <contour>
      <point x="740" y="-183" type="line"/>
      <point x="120" y="1197" type="line"/>
      <point x="7" y="1197" type="line"/>
      <point x="628" y="-183" type="line"/>
    </contour>
  </outline>
</glyph>
<glyph name="bracketright" format="1">
  <advance width="591"/>
  <unicode hex="005D"/>
  <outline>
    <contour>
      <point x="441" y="-307" type="line"/>
      <point x="441" y="1197" type="line"/>
      <point x="112" y="1197" type="line"/>
      <point x="112" y="1084" type="line"/>
      <point x="303" y="1084" type="line" name="hr01"/>
      <point x="303" y="-195" type="line"/>
      <point x="112" y="-195" type="line" name="hr02"/>
      <point x="112" y="-307" type="line"/>
    </contour>
  </outline>
</glyph>
<glyph name="asciicircum" format="1">
  <advance width="636"/>
  <unicode hex="005E"/>
  <outline>
    <contour>
      <point x="112" y="875" type="line" name="hr00"/>
      <point x="318" y="1084" type="line"/>
      <point x="523" y="875" type="line"/>
      <point x="636" y="875" type="line"/>
      <point x="381" y="1197" type="line"/>
      <point x="255" y="1197" type="line"/>
      <point x="0" y="875" type="line"/>
    </contour>
    <contour>
      <point x="318" y="1223" type="move" name="U"/>
    </contour>
  </outline>
</glyph>
<glyph name="underscore" format="1">
  <advance width="953"/>
  <unicode hex="005F"/>
  <outline>
    <contour>
      <point x="0" y="-239" type="line" name="hr00"/>
      <point x="953" y="-239" type="line"/>
      <point x="953" y="-127" type="line"/>
      <point x="0" y="-127" type="line"/>
    </contour>
  </outline>
</glyph>
<glyph name="grave" format="1">
  <advance width="434"/>
  <unicode hex="0060"/>
  <outline>
    <contour>
      <point x="0" y="1197" type="line" name="hr00"/>
      <point x="314" y="875" type="line"/>
      <point x="434" y="875" type="line"/>
      <point x="172" y="1197" type="line"/>
    </contour>
    <contour>
      <point x="269" y="850" type="move" name="_above"/>
    </contour>
  </outline>
</glyph>
<glyph name="a" format="2">
  <advance width="840"/>
  <unicode hex="0061"/>
  <anchor x="405" y="0" name="H"/>
  <anchor x="405" y="-75" name="L"/>
  <anchor x="843" y="0" name="O"/>
  <anchor x="840" y="750" name="R"/>
  <anchor x="405" y="825" name="U"/>
  <outline>
    <contour>
      <point x="315" y="-18" type="curve" smooth="yes"/>
      <point x="408" y="-18"/>
      <point x="507" y="21"/>
      <point x="596" y="116" type="curve"/>
      <point x="606" y="68"/>
      <point x="624" y="24"/>
      <point x="633" y="0" type="curve"/>
      <point x="768" y="0" type="line"/>
      <point x="735" y="84"/>
      <point x="712" y="169"/>
      <point x="712" y="277" type="curve"/>
      <point x="712" y="570" type="line"/>
      <point x="712" y="689"/>
      <point x="600" y="780"/>
      <point x="427" y="780" type="curve" smooth="yes"/>
      <point x="313" y="780"/>
      <point x="234" y="745"/>
      <point x="157" y="712" type="curve"/>
      <point x="153" y="680"/>
      <point x="150" y="599"/>
      <point x="150" y="566" type="curve"/>
      <point x="237" y="627"/>
      <point x="314" y="660"/>
      <point x="393" y="660" type="curve" smooth="yes"/>
      <point x="506" y="660"/>
      <point x="573" y="623"/>
      <point x="573" y="532" type="curve" smooth="yes"/>
      <point x="573" y="476" type="line"/>
      <point x="543" y="474"/>
      <point x="423" y="462"/>
      <point x="371" y="457" type="curve" smooth="yes"/>
      <point x="139" y="435"/>
      <point x="71" y="305"/>
      <point x="71" y="191" type="curve" smooth="yes"/>
      <point x="71" y="80"/>
      <point x="174" y="-18"/>
    </contour>
    <contour>
      <point x="337" y="105" type="curve" smooth="yes"/>
      <point x="255" y="105"/>
      <point x="206" y="143"/>
      <point x="206" y="210" type="curve" smooth="yes"/>
      <point x="206" y="279"/>
      <point x="251" y="337"/>
      <point x="378" y="352" type="curve" smooth="yes"/>
      <point x="426" y="358"/>
      <point x="536" y="369"/>
      <point x="573" y="371" type="curve"/>
      <point x="573" y="243" type="line"/>
      <point x="483" y="123"/>
      <point x="414" y="105"/>
    </contour>
  </outline>
</glyph>
<glyph name="b" format="1">
  <advance width="864"/>
  <unicode hex="0062"/>
  <outline>
    <contour>
      <point x="97" y="1197" type="line"/>
      <point x="108" y="1113"/>
      <point x="108" y="953"/>
      <point x="108" y="845" type="curve"/>
      <point x="108" y="48" type="line"/>
      <point x="203" y="19"/>
      <point x="309" y="-19"/>
      <point x="430" y="-19" type="curve" smooth="yes"/>
      <point x="651" y="-19"/>
      <point x="793" y="147"/>
      <point x="793" y="404" type="curve" smooth="yes"/>
      <point x="793" y="622"/>
      <point x="686" y="778"/>
      <point x="535" y="778" type="curve" smooth="yes"/>
      <point x="408" y="778"/>
      <point x="316" y="708"/>
      <point x="246" y="617" type="curve"/>
      <point x="246" y="685"/>
      <point x="246" y="1197"/>
      <point x="246" y="1197" type="curve"/>
    </contour>
    <contour>
      <point x="246" y="438" type="line"/>
      <point x="297" y="561"/>
      <point x="397" y="647"/>
      <point x="490" y="647" type="curve" smooth="yes"/>
      <point x="598" y="647"/>
      <point x="658" y="543"/>
      <point x="658" y="378" type="curve" smooth="yes"/>
      <point x="658" y="209"/>
      <point x="562" y="97"/>
      <point x="430" y="97" type="curve" smooth="yes"/>
      <point x="366" y="97"/>
      <point x="320" y="107"/>
      <point x="246" y="139" type="curve"/>
    </contour>
  </outline>
</glyph>
<glyph name="c" format="2">
  <advance width="765"/>
  <unicode hex="0063"/>
  <anchor x="435" y="0" name="H"/>
  <anchor x="435" y="-75" name="L"/>
  <anchor x="765" y="750" name="R"/>
  <anchor x="427" y="825" name="U"/>
  <outline>
    <contour>
      <point x="435" y="-18" type="curve" smooth="yes"/>
      <point x="547" y="-18"/>
      <point x="618" y="6"/>
      <point x="693" y="63" type="curve"/>
      <point x="678" y="195" type="line"/>
      <point x="613" y="137"/>
      <point x="540" y="105"/>
      <point x="450" y="105" type="curve" smooth="yes"/>
      <point x="304" y="105"/>
      <point x="213" y="213"/>
      <point x="213" y="375" type="curve" smooth="yes"/>
      <point x="213" y="552"/>
      <point x="316" y="656"/>
      <point x="450" y="656" type="curve" smooth="yes"/>
      <point x="527" y="656"/>
      <point x="592" y="630"/>
      <point x="660" y="581" type="curve"/>
      <point x="686" y="716" type="line"/>
      <point x="631" y="753"/>
      <point x="561" y="780"/>
      <point x="461" y="780" type="curve" smooth="yes"/>
      <point x="222" y="780"/>
      <point x="71" y="594"/>
      <point x="71" y="367" type="curve" smooth="yes"/>
      <point x="71" y="128"/>
      <point x="234" y="-18"/>
    </contour>
  </outline>
</glyph>
<glyph name="e" format="2">
  <advance width="819"/>
  <unicode hex="0065"/>
  <anchor x="423" y="850" name="above"/>
  <outline>
    <contour>
      <point x="740" y="363" type="line"/>
      <point x="740" y="376"/>
      <point x="740" y="408"/>
      <point x="740" y="421" type="curve" smooth="yes"/>
      <point x="740" y="590"/>
      <point x="677" y="778"/>
      <point x="430" y="778" type="curve" smooth="yes"/>
      <point x="208" y="778"/>
      <point x="71" y="617"/>
      <point x="71" y="370" type="curve" smooth="yes"/>
      <point x="71" y="116"/>
      <point x="239" y="-19"/>
      <point x="430" y="-19" type="curve" smooth="yes"/>
      <point x="545" y="-19"/>
      <point x="638" y="1"/>
      <point x="744" y="56" type="curve"/>
      <point x="730" y="180" type="line"/>
      <point x="638" y="123"/>
      <point x="545" y="104"/>
      <point x="448" y="104" type="curve" smooth="yes"/>
      <point x="309" y="104"/>
      <point x="209" y="193"/>
      <point x="209" y="378" type="curve" smooth="yes"/>
      <point x="209" y="576"/>
      <point x="288" y="665"/>
      <point x="419" y="665" type="curve" smooth="yes"/>
      <point x="527" y="665"/>
      <point x="605" y="597"/>
      <point x="605" y="467" type="curve"/>
      <point x="183" y="467" type="line"/>
      <point x="183" y="363" type="line"/>
    </contour>
  </outline>
</glyph>
<glyph name="f" format="1">
  <advance width="560"/>
  <unicode hex="0066"/>
  <outline>
    <contour>
      <point x="29" y="636" type="line" name="hr00"/>
      <point x="180" y="636" type="line"/>
      <point x="180" y="0" type="line"/>
      <point x="340" y="0" type="line"/>
      <point x="324" y="79"/>
      <point x="318" y="224"/>
      <point x="318" y="369" type="curve" smooth="yes"/>
      <point x="318" y="636" type="line"/>
      <point x="520" y="636" type="line"/>
      <point x="520" y="744" type="line"/>
      <point x="318" y="744" type="line"/>
      <point x="318" y="904" type="line" smooth="yes"/>
      <point x="318" y="1034"/>
      <point x="360" y="1084"/>
      <point x="438" y="1084" type="curve" smooth="yes"/>
      <point x="481" y="1084"/>
      <point x="531" y="1067"/>
      <point x="568" y="1039" type="curve"/>
      <point x="602" y="1159" type="line"/>
      <point x="556" y="1192"/>
      <point x="496" y="1212"/>
      <point x="438" y="1212" type="curve" smooth="yes"/>
      <point x="276" y="1212"/>
      <point x="180" y="1099"/>
      <point x="180" y="875" type="curve" smooth="yes"/>
      <point x="180" y="744" type="line"/>
      <point x="29" y="744" type="line"/>
    </contour>
  </outline>
</glyph>
<glyph name="g" format="1">
  <advance width="819"/>
  <unicode hex="0067"/>
  <outline>
    <contour>
      <point x="246" y="295" type="line"/>
      <point x="175" y="267"/>
      <point x="135" y="205"/>
      <point x="135" y="161" type="curve" smooth="yes"/>
      <point x="135" y="91"/>
      <point x="197" y="20"/>
      <point x="408" y="-4" type="curve" smooth="yes"/>
      <point x="602" y="-26"/>
      <point x="658" y="-67"/>
      <point x="658" y="-127" type="curve" smooth="yes"/>
      <point x="658" y="-191"/>
      <point x="546" y="-270"/>
      <point x="411" y="-270" type="curve" smooth="yes"/>
      <point x="241" y="-270"/>
      <point x="161" y="-196"/>
      <point x="161" y="-135" type="curve" smooth="yes"/>
      <point x="161" y="-91"/>
      <point x="182" y="-42"/>
      <point x="348" y="15" type="curve"/>
      <point x="343" y="37"/>
      <point x="217" y="56"/>
      <point x="217" y="56" type="curve"/>
      <point x="85" y="1"/>
      <point x="22" y="-67"/>
      <point x="22" y="-150" type="curve" smooth="yes"/>
      <point x="22" y="-306"/>
      <point x="226" y="-378"/>
      <point x="400" y="-378" type="curve" smooth="yes"/>
      <point x="581" y="-378"/>
      <point x="797" y="-280"/>
      <point x="797" y="-120" type="curve" smooth="yes"/>
      <point x="797" y="-6"/>
      <point x="723" y="66"/>
      <point x="501" y="93" type="curve" smooth="yes"/>
      <point x="306" y="117"/>
      <point x="258" y="147"/>
      <point x="258" y="176" type="curve" smooth="yes"/>
      <point x="258" y="202"/>
      <point x="287" y="237"/>
      <point x="374" y="261" type="curve"/>
    </contour>
    <contour>
      <point x="785" y="778" type="line"/>
      <point x="712" y="773"/>
      <point x="613" y="746"/>
      <point x="545" y="703" type="curve"/>
      <point x="595" y="617" type="line"/>
      <point x="663" y="645"/>
      <point x="723" y="656"/>
      <point x="778" y="658" type="curve"/>
    </contour>
    <contour>
      <point x="85" y="508" type="curve" smooth="yes" name="hr01"/>
      <point x="85" y="356"/>
      <point x="217" y="243"/>
      <point x="385" y="243" type="curve" smooth="yes"/>
      <point x="555" y="243"/>
      <point x="684" y="356"/>
      <point x="684" y="508" type="curve" smooth="yes"/>
      <point x="684" y="661"/>
      <point x="555" y="778"/>
      <point x="385" y="778" type="curve" smooth="yes"/>
      <point x="217" y="778"/>
      <point x="85" y="661"/>
    </contour>
    <contour>
      <point x="214" y="508" type="curve" smooth="yes"/>
      <point x="214" y="600"/>
      <point x="285" y="670"/>
      <point x="385" y="670" type="curve" smooth="yes"/>
      <point x="485" y="670"/>
      <point x="558" y="600"/>
      <point x="558" y="508" type="curve" smooth="yes"/>
      <point x="558" y="417"/>
      <point x="485" y="348"/>
      <point x="385" y="348" type="curve" smooth="yes"/>
      <point x="285" y="348"/>
      <point x="214" y="417"/>
    </contour>
  </outline>
</glyph>
<glyph name="h" format="2">
  <advance width="881"/>
  <unicode hex="0068"/>
  <anchor x="187" y="0" name="H"/>
  <anchor x="438" y="-75" name="L"/>
  <anchor x="438" y="1226" name="U"/>
  <outline>
    <contour>
      <point x="108" y="0" type="curve"/>
      <point x="247" y="0" type="line"/>
      <point x="247" y="435" type="line"/>
      <point x="280" y="537"/>
      <point x="383" y="648"/>
      <point x="491" y="648" type="curve" smooth="yes"/>
      <point x="591" y="648"/>
      <point x="641" y="600"/>
      <point x="641" y="412" type="curve" smooth="yes"/>
      <point x="641" y="309"/>
      <point x="641" y="0"/>
      <point x="641" y="0" type="curve"/>
      <point x="780" y="0" type="line"/>
      <point x="780" y="0"/>
      <point x="780" y="344"/>
      <point x="780" y="468" type="curve" smooth="yes"/>
      <point x="780" y="675"/>
      <point x="692" y="780"/>
      <point x="532" y="780" type="curve" smooth="yes"/>
      <point x="427" y="780"/>
      <point x="321" y="726"/>
      <point x="247" y="622" type="curve"/>
      <point x="247" y="657"/>
      <point x="247" y="1200"/>
      <point x="247" y="1200" type="curve"/>
      <point x="97" y="1200" type="line"/>
      <point x="108" y="1135"/>
      <point x="108" y="1008"/>
      <point x="108" y="847" type="curve" smooth="yes"/>
      <point x="108" y="701"/>
      <point x="108" y="0"/>
    </contour>
  </outline>
</glyph>
<glyph name="i" format="2">
  <advance width="423"/>
  <unicode hex="0069"/>
  <outline>
    <contour>
      <point x="280" y="763" type="line"/>
      <point x="131" y="763" type="line"/>
      <point x="141" y="684"/>
      <point x="142" y="542"/>
      <point x="142" y="396" type="curve" smooth="yes"/>
      <point x="142" y="252"/>
      <point x="142" y="0"/>
      <point x="142" y="0" type="curve"/>
      <point x="295" y="0" type="line"/>
      <point x="285" y="80"/>
      <point x="280" y="258"/>
      <point x="280" y="355" type="curve" smooth="yes"/>
    </contour>
    <contour>
      <point x="116" y="951"/>
      <point x="154" y="904"/>
      <point x="209" y="904" type="curve" smooth="yes"/>
      <point x="265" y="904"/>
      <point x="306" y="951"/>
      <point x="306" y="1006" type="curve" smooth="yes"/>
      <point x="306" y="1061"/>
      <point x="265" y="1107"/>
      <point x="209" y="1107" type="curve" smooth="yes"/>
      <point x="154" y="1107"/>
      <point x="116" y="1061"/>
      <point x="116" y="1006" type="curve" smooth="yes"/>
    </contour>
  </outline>
</glyph>
<glyph name="j" format="2">
  <advance width="446"/>
  <unicode hex="006A"/>
  <anchor x="93" y="-375" name="L"/>
  <anchor x="234" y="825" name="U"/>
  <outline>
    <contour>
      <point x="303" y="765" type="line"/>
      <point x="153" y="765" type="line"/>
      <point x="163" y="686"/>
      <point x="165" y="543"/>
      <point x="165" y="397" type="curve"/>
      <point x="165" y="-18" type="line"/>
      <point x="165" y="-166"/>
      <point x="110" y="-225"/>
      <point x="30" y="-225" type="curve" smooth="yes"/>
      <point x="-12" y="-225"/>
      <point x="-83" y="-204"/>
      <point x="-116" y="-180" type="curve"/>
      <point x="-142" y="-303" type="line"/>
      <point x="-97" y="-334"/>
      <point x="-19" y="-352"/>
      <point x="22" y="-352" type="curve" smooth="yes"/>
      <point x="193" y="-352"/>
      <point x="303" y="-261"/>
      <point x="303" y="18" type="curve" smooth="yes"/>
    </contour>
    <contour>
      <point x="138" y="1008" type="curve" smooth="yes"/>
      <point x="138" y="953"/>
      <point x="177" y="907"/>
      <point x="232" y="907" type="curve" smooth="yes"/>
      <point x="288" y="907"/>
      <point x="330" y="953"/>
      <point x="330" y="1008" type="curve" smooth="yes"/>
      <point x="330" y="1064"/>
      <point x="288" y="1110"/>
      <point x="232" y="1110" type="curve" smooth="yes"/>
      <point x="177" y="1110"/>
      <point x="138" y="1064"/>
    </contour>
  </outline>
</glyph>
<glyph name="k" format="1">
  <advance width="774"/>
  <unicode hex="006B"/>
  <outline>
    <contour>
      <point x="246" y="0" type="line" name="hr00"/>
      <point x="246" y="1197" type="line"/>
      <point x="97" y="1197" type="line"/>
      <point x="108" y="1132"/>
      <point x="108" y="1006"/>
      <point x="108" y="845" type="curve" smooth="yes"/>
      <point x="108" y="698"/>
      <point x="108" y="0"/>
      <point x="108" y="0" type="curve"/>
    </contour>
    <contour>
      <point x="550" y="763" type="line"/>
      <point x="209" y="411" type="line"/>
      <point x="326" y="392" type="line"/>
      <point x="737" y="763" type="line"/>
    </contour>
    <contour>
      <point x="228" y="411" type="line"/>
      <point x="576" y="0" type="line"/>
      <point x="759" y="0" type="line"/>
      <point x="306" y="494" type="line"/>
    </contour>
  </outline>
</glyph>
<glyph name="l" format="2">
  <advance width="423"/>
  <unicode hex="006C"/>
  <anchor x="217" y="0" name="H"/>
  <anchor x="217" y="-75" name="L"/>
  <anchor x="412" y="750" name="R"/>
  <anchor x="213" y="1226" name="U"/>
  <outline>
    <contour>
      <point x="281" y="1200" type="line"/>
      <point x="127" y="1200" type="line"/>
      <point x="137" y="1113"/>
      <point x="142" y="993"/>
      <point x="142" y="847" type="curve" smooth="yes"/>
      <point x="142" y="0" type="line"/>
      <point x="296" y="0" type="line"/>
      <point x="286" y="81"/>
      <point x="281" y="259"/>
      <point x="281" y="356" type="curve" smooth="yes"/>
    </contour>
  </outline>
</glyph>
<glyph name="m" format="1">
  <advance width="1261"/>
  <unicode hex="006D"/>
  <outline>
    <contour>
      <point x="707" y="494" type="line"/>
      <point x="750" y="587"/>
      <point x="824" y="647"/>
      <point x="898" y="647" type="curve" smooth="yes"/>
      <point x="981" y="647"/>
      <point x="1006" y="604"/>
      <point x="1006" y="411" type="curve" smooth="yes"/>
      <point x="1006" y="0" type="line"/>
      <point x="1144" y="0" type="line"/>
      <point x="1144" y="494" type="line" smooth="yes"/>
      <point x="1144" y="678"/>
      <point x="1094" y="778"/>
      <point x="942" y="778" type="curve" smooth="yes"/>
      <point x="864" y="778"/>
      <point x="782" y="753"/>
      <point x="690" y="653" type="curve"/>
      <point x="664" y="718"/>
      <point x="602" y="778"/>
      <point x="504" y="778" type="curve" smooth="yes"/>
      <point x="419" y="778"/>
      <point x="343" y="752"/>
      <point x="253" y="647" type="curve"/>
      <point x="246" y="683"/>
      <point x="239" y="731"/>
      <point x="228" y="763" type="curve" name="hr01"/>
      <point x="94" y="763" type="line"/>
      <point x="108" y="712"/>
      <point x="131" y="606"/>
      <point x="131" y="460" type="curve" smooth="yes"/>
      <point x="131" y="0" type="line"/>
      <point x="269" y="0" type="line"/>
      <point x="269" y="494" type="line"/>
      <point x="309" y="583"/>
      <point x="387" y="647"/>
      <point x="460" y="647" type="curve" smooth="yes" name="hr02"/>
      <point x="543" y="647"/>
      <point x="568" y="612"/>
      <point x="568" y="426" type="curve" smooth="yes"/>
      <point x="568" y="0" type="line"/>
      <point x="707" y="0" type="line"/>
    </contour>
  </outline>
</glyph>
<glyph name="n" format="1">
  <advance width="886"/>
  <unicode hex="006E"/>
  <outline>
    <contour>
      <point x="785" y="0" type="line"/>
      <point x="785" y="0"/>
      <point x="785" y="343"/>
      <point x="785" y="467" type="curve" smooth="yes"/>
      <point x="785" y="674"/>
      <point x="698" y="778"/>
      <point x="539" y="778" type="curve" smooth="yes"/>
      <point x="433" y="778"/>
      <point x="338" y="731"/>
      <point x="243" y="617" type="curve"/>
      <point x="237" y="654"/>
      <point x="224" y="731"/>
      <point x="214" y="763" type="curve" name="hr01"/>
      <point x="79" y="763" type="line"/>
      <point x="95" y="712"/>
      <point x="116" y="606"/>
      <point x="116" y="460" type="curve" smooth="yes"/>
      <point x="116" y="314"/>
      <point x="116" y="0"/>
      <point x="116" y="0" type="curve"/>
      <point x="255" y="0" type="line"/>
      <point x="255" y="434" type="line"/>
      <point x="287" y="536"/>
      <point x="390" y="647"/>
      <point x="498" y="647" type="curve" smooth="yes" name="hr02"/>
      <point x="598" y="647"/>
      <point x="647" y="598"/>
      <point x="647" y="411" type="curve" smooth="yes"/>
      <point x="647" y="309"/>
      <point x="647" y="0"/>
      <point x="647" y="0" type="curve"/>
    </contour>
    <contour>
      <point x="442" y="850" type="move" name="above"/>
    </contour>
  </outline>
</glyph>
<glyph name="o" format="1">
  <advance width="853"/>
  <unicode hex="006F"/>
  <outline>
    <contour>
      <point x="71" y="121"/>
      <point x="214" y="-19"/>
      <point x="419" y="-19" type="curve" smooth="yes"/>
      <point x="616" y="-19"/>
      <point x="782" y="121"/>
      <point x="782" y="378" type="curve" smooth="yes"/>
      <point x="782" y="636"/>
      <point x="639" y="778"/>
      <point x="434" y="778" type="curve" smooth="yes"/>
      <point x="237" y="778"/>
      <point x="71" y="636"/>
      <point x="71" y="378" type="curve" smooth="yes"/>
    </contour>
    <contour>
      <point x="209" y="553"/>
      <point x="305" y="658"/>
      <point x="426" y="658" type="curve" smooth="yes"/>
      <point x="555" y="658"/>
      <point x="643" y="553"/>
      <point x="643" y="378" type="curve" smooth="yes"/>
      <point x="643" y="203"/>
      <point x="546" y="101"/>
      <point x="426" y="101" type="curve" smooth="yes"/>
      <point x="297" y="101"/>
      <point x="209" y="203"/>
      <point x="209" y="378" type="curve" smooth="yes"/>
    </contour>
    <contour>
      <point x="430" y="850" type="move" name="above"/>
    </contour>
  </outline>
</glyph>
<glyph name="p" format="1">
  <advance width="875"/>
  <unicode hex="0070"/>
  <outline>
    <contour>
      <point x="79" y="763" type="line"/>
      <point x="112" y="678"/>
      <point x="116" y="548"/>
      <point x="116" y="363" type="curve" smooth="yes"/>
      <point x="116" y="218"/>
      <point x="116" y="-367"/>
      <point x="116" y="-367" type="curve"/>
      <point x="274" y="-367" type="line"/>
      <point x="260" y="-303"/>
      <point x="255" y="-233"/>
      <point x="255" y="-113" type="curve"/>
      <point x="255" y="64" type="line"/>
      <point x="325" y="13"/>
      <point x="384" y="-19"/>
      <point x="464" y="-19" type="curve" smooth="yes"/>
      <point x="652" y="-19"/>
      <point x="804" y="144"/>
      <point x="804" y="400" type="curve" smooth="yes"/>
      <point x="804" y="619"/>
      <point x="691" y="778"/>
      <point x="520" y="778" type="curve" smooth="yes" name="hr01"/>
      <point x="408" y="778"/>
      <point x="313" y="713"/>
      <point x="243" y="620" type="curve"/>
      <point x="237" y="690"/>
      <point x="224" y="737"/>
      <point x="214" y="763" type="curve" name="hr02"/>
    </contour>
    <contour>
      <point x="255" y="430" type="line"/>
      <point x="309" y="575"/>
      <point x="408" y="651"/>
      <point x="494" y="651" type="curve" smooth="yes" name="hr03"/>
      <point x="601" y="651"/>
      <point x="665" y="543"/>
      <point x="665" y="378" type="curve" smooth="yes"/>
      <point x="665" y="208"/>
      <point x="570" y="104"/>
      <point x="464" y="104" type="curve" smooth="yes"/>
      <point x="395" y="104"/>
      <point x="357" y="123"/>
      <point x="255" y="195" type="curve"/>
    </contour>
  </outline>
</glyph>
<glyph name="q" format="2">
  <advance width="847"/>
  <unicode hex="0071"/>
  <anchor x="416" y="-375" name="L"/>
  <anchor x="847" y="750" name="R"/>
  <anchor x="416" y="825" name="U"/>
  <outline>
    <contour>
      <point x="596" y="-367" type="line"/>
      <point x="753" y="-367" type="line"/>
      <point x="741" y="-303"/>
      <point x="735" y="-232"/>
      <point x="735" y="-112" type="curve" smooth="yes"/>
      <point x="735" y="-19"/>
      <point x="735" y="723"/>
      <point x="735" y="723" type="curve"/>
      <point x="654" y="750"/>
      <point x="559" y="780"/>
      <point x="468" y="780" type="curve" smooth="yes"/>
      <point x="195" y="780"/>
      <point x="78" y="556"/>
      <point x="78" y="326" type="curve" smooth="yes"/>
      <point x="78" y="87"/>
      <point x="240" y="-18"/>
      <point x="378" y="-18" type="curve" smooth="yes"/>
      <point x="448" y="-18"/>
      <point x="518" y="14"/>
      <point x="596" y="105" type="curve"/>
    </contour>
    <contour>
      <point x="596" y="273" type="line"/>
      <point x="534" y="164"/>
      <point x="459" y="108"/>
      <point x="390" y="108" type="curve" smooth="yes"/>
      <point x="309" y="108"/>
      <point x="217" y="177"/>
      <point x="217" y="363" type="curve" smooth="yes"/>
      <point x="217" y="505"/>
      <point x="282" y="652"/>
      <point x="446" y="652" type="curve" smooth="yes"/>
      <point x="492" y="652"/>
      <point x="551" y="639"/>
      <point x="596" y="622" type="curve"/>
    </contour>
  </outline>
</glyph>
<glyph name="r" format="1">
  <advance width="665"/>
  <unicode hex="0072"/>
  <outline>
    <contour>
      <point x="255" y="0" type="line"/>
      <point x="255" y="434" type="line"/>
      <point x="287" y="536"/>
      <point x="390" y="643"/>
      <point x="453" y="643" type="curve" smooth="yes"/>
      <point x="512" y="643"/>
      <point x="539" y="576"/>
      <point x="539" y="501" type="curve"/>
      <point x="658" y="527" type="line"/>
      <point x="658" y="658"/>
      <point x="612" y="778"/>
      <point x="485" y="778" type="curve" smooth="yes"/>
      <point x="418" y="778"/>
      <point x="315" y="721"/>
      <point x="243" y="617" type="curve"/>
      <point x="237" y="654"/>
      <point x="224" y="731"/>
      <point x="214" y="763" type="curve"/>
      <point x="79" y="763" type="line"/>
      <point x="95" y="712"/>
      <point x="116" y="606"/>
      <point x="116" y="460" type="curve" smooth="yes"/>
      <point x="116" y="0" type="line"/>
    </contour>
  </outline>
</glyph>
<glyph name="s" format="2">
  <advance width="723"/>
  <unicode hex="0073"/>
  <anchor x="371" y="0" name="H"/>
  <anchor x="371" y="-75" name="L"/>
  <anchor x="371" y="825" name="U"/>
  <outline>
    <contour>
      <point x="626" y="720" type="line"/>
      <point x="574" y="748"/>
      <point x="495" y="780"/>
      <point x="386" y="780" type="curve" smooth="yes"/>
      <point x="158" y="780"/>
      <point x="97" y="624"/>
      <point x="97" y="555" type="curve" smooth="yes"/>
      <point x="97" y="462"/>
      <point x="136" y="385"/>
      <point x="318" y="341" type="curve" smooth="yes"/>
      <point x="486" y="300"/>
      <point x="525" y="258"/>
      <point x="525" y="202" type="curve" smooth="yes"/>
      <point x="525" y="150"/>
      <point x="462" y="101"/>
      <point x="375" y="101" type="curve" smooth="yes"/>
      <point x="295" y="101"/>
      <point x="187" y="141"/>
      <point x="120" y="202" type="curve"/>
      <point x="82" y="67" type="line"/>
      <point x="141" y="21"/>
      <point x="249" y="-18"/>
      <point x="371" y="-18" type="curve" smooth="yes"/>
      <point x="532" y="-18"/>
      <point x="660" y="86"/>
      <point x="660" y="221" type="curve" smooth="yes"/>
      <point x="660" y="360"/>
      <point x="548" y="419"/>
      <point x="412" y="450" type="curve" smooth="yes"/>
      <point x="255" y="486"/>
      <point x="232" y="510"/>
      <point x="232" y="562" type="curve" smooth="yes"/>
      <point x="232" y="607"/>
      <point x="268" y="660"/>
      <point x="378" y="660" type="curve" smooth="yes"/>
      <point x="471" y="660"/>
      <point x="549" y="618"/>
      <point x="600" y="588" type="curve"/>
    </contour>
  </outline>
</glyph>
<glyph name="t" format="1">
  <advance width="624"/>
  <unicode hex="0074"/>
  <outline>
    <contour>
      <point x="568" y="161" type="line" name="hr00"/>
      <point x="503" y="123"/>
      <point x="448" y="104"/>
      <point x="406" y="104" type="curve" smooth="yes"/>
      <point x="339" y="104"/>
      <point x="311" y="138"/>
      <point x="311" y="292" type="curve" smooth="yes"/>
      <point x="311" y="395"/>
      <point x="311" y="987"/>
      <point x="311" y="987" type="curve"/>
      <point x="172" y="987" type="line"/>
      <point x="172" y="987"/>
      <point x="172" y="325"/>
      <point x="172" y="201" type="curve" smooth="yes"/>
      <point x="172" y="28"/>
      <point x="266" y="-19"/>
      <point x="383" y="-19" type="curve" smooth="yes"/>
      <point x="435" y="-19"/>
      <point x="500" y="-3"/>
      <point x="568" y="41" type="curve"/>
    </contour>
    <contour>
      <point x="22" y="636" type="line"/>
      <point x="554" y="636" type="line"/>
      <point x="554" y="744" type="line"/>
      <point x="22" y="744" type="line"/>
    </contour>
  </outline>
</glyph>
<glyph name="u" format="2">
  <advance width="888"/>
  <unicode hex="0075"/>
  <anchor x="441" y="0" name="H"/>
  <anchor x="441" y="-75" name="L"/>
  <anchor x="894" y="0" name="O"/>
  <anchor x="888" y="750" name="R"/>
  <anchor x="441" y="825" name="U"/>
  <outline>
    <contour>
      <point x="817" y="0" type="line"/>
      <point x="786" y="84"/>
      <point x="768" y="192"/>
      <point x="768" y="337" type="curve" smooth="yes"/>
      <point x="768" y="484"/>
      <point x="768" y="765"/>
      <point x="768" y="765" type="curve"/>
      <point x="615" y="765" type="line"/>
      <point x="628" y="673"/>
      <point x="630" y="624"/>
      <point x="630" y="525" type="curve" smooth="yes"/>
      <point x="630" y="315" type="line"/>
      <point x="590" y="223"/>
      <point x="471" y="105"/>
      <point x="382" y="105" type="curve" smooth="yes"/>
      <point x="287" y="105"/>
      <point x="255" y="178"/>
      <point x="255" y="348" type="curve" smooth="yes"/>
      <point x="255" y="452"/>
      <point x="255" y="765"/>
      <point x="255" y="765" type="curve"/>
      <point x="101" y="765" type="line"/>
      <point x="114" y="675"/>
      <point x="116" y="620"/>
      <point x="116" y="525" type="curve" smooth="yes"/>
      <point x="116" y="510"/>
      <point x="116" y="318"/>
      <point x="116" y="303" type="curve" smooth="yes"/>
      <point x="116" y="90"/>
      <point x="196" y="-18"/>
      <point x="356" y="-18" type="curve" smooth="yes"/>
      <point x="461" y="-18"/>
      <point x="558" y="39"/>
      <point x="648" y="150" type="curve"/>
      <point x="656" y="93"/>
      <point x="675" y="34"/>
      <point x="690" y="0" type="curve"/>
    </contour>
  </outline>
</glyph>
<glyph name="v" format="2">
  <advance width="802"/>
  <unicode hex="0076"/>
  <anchor x="411" y="0" name="H"/>
  <anchor x="401" y="-75" name="L"/>
  <anchor x="543" y="0" name="O"/>
  <anchor x="401" y="825" name="U"/>
  <outline>
    <contour>
      <point x="330" y="0" type="curve"/>
      <point x="472" y="0" type="line"/>
      <point x="472" y="0"/>
      <point x="631" y="402"/>
      <point x="671" y="498" type="curve" smooth="yes"/>
      <point x="696" y="558"/>
      <point x="744" y="678"/>
      <point x="787" y="765" type="curve"/>
      <point x="630" y="765" type="line"/>
      <point x="401" y="150" type="line"/>
      <point x="172" y="765" type="line"/>
      <point x="15" y="765" type="line"/>
      <point x="56" y="678"/>
      <point x="107" y="559"/>
      <point x="131" y="498" type="curve" smooth="yes"/>
      <point x="177" y="382"/>
      <point x="330" y="0"/>
    </contour>
  </outline>
</glyph>
<glyph name="w" format="1">
  <advance width="1159"/>
  <unicode hex="0077"/>
  <outline>
    <contour>
      <point x="523" y="763" type="line" name="hr00"/>
      <point x="329" y="161" type="line"/>
      <point x="172" y="763" type="line"/>
      <point x="34" y="763" type="line"/>
      <point x="68" y="648"/>
      <point x="90" y="576"/>
      <point x="112" y="498" type="curve" smooth="yes"/>
      <point x="251" y="0" type="line"/>
      <point x="393" y="0" type="line"/>
      <point x="579" y="587" type="line"/>
      <point x="767" y="0" type="line"/>
      <point x="909" y="0" type="line"/>
      <point x="1047" y="498" type="line" smooth="yes"/>
      <point x="1072" y="586"/>
      <point x="1091" y="650"/>
      <point x="1126" y="763" type="curve"/>
      <point x="987" y="763" type="line"/>
      <point x="830" y="161" type="line"/>
      <point x="636" y="763" type="line"/>
    </contour>
  </outline>
</glyph>
<glyph name="x" format="2">
  <advance width="813"/>
  <unicode hex="0078"/>
  <anchor x="675" y="0" name="H"/>
  <anchor x="406" y="-75" name="L"/>
  <anchor x="406" y="825" name="U"/>
  <outline>
    <contour>
      <point x="603" y="0" type="line"/>
      <point x="776" y="0" type="line"/>
      <point x="695" y="106"/>
      <point x="676" y="127"/>
      <point x="622" y="202" type="curve" smooth="yes"/>
      <point x="217" y="765" type="line"/>
      <point x="45" y="765" type="line"/>
      <point x="126" y="665"/>
      <point x="152" y="632"/>
      <point x="202" y="562" type="curve"/>
    </contour>
    <contour>
      <point x="37" y="0" type="curve"/>
      <point x="206" y="0" type="line"/>
      <point x="417" y="303" type="line"/>
      <point x="366" y="462" type="line"/>
      <point x="187" y="202" type="line" smooth="yes"/>
      <point x="141" y="136"/>
      <point x="120" y="107"/>
    </contour>
    <contour>
      <point x="438" y="303" type="line"/>
      <point x="615" y="562" type="line" smooth="yes"/>
      <point x="662" y="631"/>
      <point x="687" y="664"/>
      <point x="765" y="765" type="curve"/>
      <point x="596" y="765" type="line"/>
      <point x="390" y="461" type="line"/>
    </contour>
  </outline>
</glyph>
<glyph name="y" format="1">
  <advance width="793"/>
  <unicode hex="0079"/>
  <outline>
    <contour>
      <point x="456" y="45" type="line" name="hr00"/>
      <point x="172" y="763" type="line"/>
      <point x="22" y="763" type="line"/>
      <point x="80" y="646"/>
      <point x="115" y="565"/>
      <point x="142" y="498" type="curve" smooth="yes"/>
      <point x="393" y="-124" type="line"/>
    </contour>
    <contour>
      <point x="670" y="498" type="line"/>
      <point x="694" y="566"/>
      <point x="726" y="647"/>
      <point x="778" y="763" type="curve"/>
      <point x="628" y="763" type="line"/>
      <point x="628" y="763"/>
      <point x="422" y="172"/>
      <point x="374" y="41" type="curve" smooth="yes"/>
      <point x="293" y="-185"/>
      <point x="236" y="-224"/>
      <point x="168" y="-224" type="curve" smooth="yes"/>
      <point x="119" y="-224"/>
      <point x="61" y="-195"/>
      <point x="29" y="-168" type="curve"/>
      <point x="-15" y="-288" type="line"/>
      <point x="40" y="-328"/>
      <point x="100" y="-352"/>
      <point x="168" y="-352" type="curve" smooth="yes"/>
      <point x="295" y="-352"/>
      <point x="386" y="-286"/>
      <point x="490" y="0" type="curve"/>
    </contour>
    <contour>
      <point x="416" y="850" type="move" name="above"/>
    </contour>
  </outline>
</glyph>
<glyph name="z" format="1">
  <advance width="687"/>
  <unicode hex="007A"/>
  <outline>
    <contour>
      <point x="52" y="763" type="line" name="hr00"/>
      <point x="52" y="639" type="line"/>
      <point x="79" y="651"/>
      <point x="124" y="651"/>
      <point x="168" y="651" type="curve" smooth="yes"/>
      <point x="459" y="651" type="line"/>
      <point x="30" y="82" type="line"/>
      <point x="30" y="0" type="line"/>
      <point x="658" y="0" type="line"/>
      <point x="658" y="123" type="line"/>
      <point x="613" y="112"/>
      <point x="567" y="112"/>
      <point x="524" y="112" type="curve" smooth="yes"/>
      <point x="202" y="112" type="line"/>
      <point x="646" y="693" type="line"/>
      <point x="646" y="763" type="line"/>
    </contour>
    <contour>
      <point x="338" y="850" type="move" name="above"/>
    </contour>
  </outline>
</glyph>
<glyph name="braceleft" format="1">
  <advance width="748"/>
  <unicode hex="007B"/>
  <outline>
    <contour>
      <point x="157" y="460" type="curve" smooth="yes" name="hr00"/>
      <point x="157" y="436"/>
      <point x="286" y="363"/>
      <point x="306" y="336" type="curve" smooth="yes"/>
      <point x="324" y="313"/>
      <point x="317" y="-154"/>
      <point x="370" y="-214" type="curve" smooth="yes"/>
      <point x="400" y="-247"/>
      <point x="521" y="-286"/>
      <point x="598" y="-307" type="curve"/>
      <point x="628" y="-202" type="line"/>
      <point x="579" y="-184"/>
      <point x="485" y="-148"/>
      <point x="471" y="-127" type="curve" smooth="yes"/>
      <point x="446" y="-92"/>
      <point x="456" y="334"/>
      <point x="441" y="363" type="curve" smooth="yes"/>
      <point x="427" y="390"/>
      <point x="324" y="444"/>
      <point x="321" y="460" type="curve"/>
      <point x="324" y="477"/>
      <point x="427" y="531"/>
      <point x="441" y="558" type="curve" smooth="yes"/>
      <point x="456" y="585"/>
      <point x="446" y="1013"/>
      <point x="471" y="1047" type="curve" smooth="yes"/>
      <point x="485" y="1069"/>
      <point x="579" y="1105"/>
      <point x="628" y="1122" type="curve"/>
      <point x="598" y="1226" type="line"/>
      <point x="521" y="1206"/>
      <point x="400" y="1167"/>
      <point x="370" y="1133" type="curve" smooth="yes"/>
      <point x="317" y="1073"/>
      <point x="324" y="607"/>
      <point x="306" y="583" type="curve" smooth="yes"/>
      <point x="286" y="557"/>
      <point x="157" y="484"/>
    </contour>
  </outline>
</glyph>
<glyph name="bar" format="1">
  <advance width="516"/>
  <unicode hex="007C"/>
  <outline>
    <contour>
      <point x="201" y="1197" type="line"/>
      <point x="201" y="-293" type="line"/>
      <point x="314" y="-293" type="line"/>
      <point x="314" y="1197" type="line"/>
    </contour>
  </outline>
</glyph>
<glyph name="braceright" format="1">
  <advance width="748"/>
  <unicode hex="007D"/>
  <outline>
    <contour>
      <point x="591" y="460" type="curve" smooth="yes" name="hr00"/>
      <point x="591" y="484"/>
      <point x="462" y="557"/>
      <point x="441" y="583" type="curve" smooth="yes"/>
      <point x="423" y="607"/>
      <point x="431" y="1073"/>
      <point x="378" y="1133" type="curve" smooth="yes"/>
      <point x="348" y="1167"/>
      <point x="227" y="1206"/>
      <point x="149" y="1226" type="curve"/>
      <point x="120" y="1122" type="line"/>
      <point x="169" y="1105"/>
      <point x="261" y="1069"/>
      <point x="276" y="1047" type="curve" smooth="yes"/>
      <point x="301" y="1013"/>
      <point x="292" y="585"/>
      <point x="306" y="558" type="curve" smooth="yes"/>
      <point x="321" y="531"/>
      <point x="423" y="477"/>
      <point x="426" y="460" type="curve"/>
      <point x="423" y="444"/>
      <point x="321" y="390"/>
      <point x="306" y="363" type="curve" smooth="yes"/>
      <point x="292" y="334"/>
      <point x="301" y="-92"/>
      <point x="276" y="-127" type="curve" smooth="yes"/>
      <point x="261" y="-148"/>
      <point x="169" y="-184"/>
      <point x="120" y="-202" type="curve"/>
      <point x="149" y="-307" type="line"/>
      <point x="227" y="-286"/>
      <point x="348" y="-247"/>
      <point x="378" y="-214" type="curve" smooth="yes"/>
      <point x="431" y="-154"/>
      <point x="423" y="313"/>
      <point x="441" y="336" type="curve" smooth="yes"/>
      <point x="462" y="363"/>
      <point x="591" y="436"/>
    </contour>
  </outline>
</glyph>
<glyph name="asciitilde" format="1">
  <advance width="834"/>
  <unicode hex="007E"/>
  <outline>
    <contour>
      <point x="94" y="280" type="line"/>
      <point x="97" y="317"/>
      <point x="121" y="348"/>
      <point x="180" y="348" type="curve" smooth="yes"/>
      <point x="311" y="348"/>
      <point x="460" y="269"/>
      <point x="633" y="269" type="curve" smooth="yes" name="hr01"/>
      <point x="751" y="269"/>
      <point x="807" y="360"/>
      <point x="807" y="456" type="curve"/>
      <point x="730" y="456" type="line"/>
      <point x="724" y="422"/>
      <point x="701" y="381"/>
      <point x="639" y="381" type="curve" smooth="yes"/>
      <point x="463" y="381"/>
      <point x="345" y="460"/>
      <point x="180" y="460" type="curve" smooth="yes" name="hr02"/>
      <point x="69" y="460"/>
      <point x="15" y="372"/>
      <point x="15" y="280" type="curve"/>
    </contour>
  </outline>
</glyph>
<glyph name="nobreakspace" format="1">
  <advance width="453"/>
  <unicode hex="00A0"/>
  <outline>
    <contour>
      <point x="168" y="139" type="move" name="alef"/>
    </contour>
    <contour>
      <point x="168" y="485" type="move" name="diaA"/>
    </contour>
    <contour>
      <point x="168" y="-523" type="move" name="diaB"/>
    </contour>
  </outline>
</glyph>
<glyph name="exclamdown" format="1">
  <advance width="572"/>
  <unicode hex="00A1"/>
  <outline>
    <contour>
      <point x="207" y="494" type="line"/>
      <point x="202" y="276"/>
      <point x="202" y="18"/>
      <point x="175" y="-307" type="curve"/>
      <point x="365" y="-307" type="line"/>
      <point x="336" y="18"/>
      <point x="336" y="276"/>
      <point x="332" y="494" type="curve"/>
    </contour>
    <contour>
      <point x="169" y="731" type="curve" smooth="yes" name="hr01"/>
      <point x="169" y="676"/>
      <point x="215" y="632"/>
      <point x="271" y="632" type="curve" smooth="yes"/>
      <point x="325" y="632"/>
      <point x="370" y="676"/>
      <point x="370" y="731" type="curve" smooth="yes"/>
      <point x="370" y="787"/>
      <point x="325" y="832"/>
      <point x="271" y="832" type="curve" smooth="yes"/>
      <point x="215" y="832"/>
      <point x="169" y="787"/>
    </contour>
  </outline>
</glyph>
<glyph name="cent" format="2">
  <advance width="900"/>
  <unicode hex="00A2"/>
  <outline>
    <contour>
      <point x="499" y="37" type="curve" smooth="yes"/>
      <point x="606" y="37"/>
      <point x="673" y="62"/>
      <point x="745" y="116" type="curve"/>
      <point x="731" y="240" type="line"/>
      <point x="669" y="186"/>
      <point x="599" y="155"/>
      <point x="513" y="155" type="curve" smooth="yes"/>
      <point x="375" y="155"/>
      <point x="289" y="258"/>
      <point x="289" y="411" type="curve" smooth="yes"/>
      <point x="289" y="579"/>
      <point x="387" y="678"/>
      <point x="513" y="678" type="curve" smooth="yes"/>
      <point x="587" y="678"/>
      <point x="648" y="654"/>
      <point x="713" y="607" type="curve"/>
      <point x="738" y="735" type="line"/>
      <point x="686" y="771"/>
      <point x="619" y="796"/>
      <point x="524" y="796" type="curve" smooth="yes"/>
      <point x="297" y="796"/>
      <point x="153" y="619"/>
      <point x="153" y="405" type="curve" smooth="yes"/>
      <point x="153" y="177"/>
      <point x="308" y="37"/>
    </contour>
    <contour>
      <point x="453" y="-157" type="line"/>
      <point x="551" y="-157" type="line"/>
      <point x="551" y="990" type="line"/>
      <point x="453" y="990" type="line"/>
    </contour>
  </outline>
</glyph>
<glyph name="sterling" format="1">
  <advance width="898"/>
  <unicode hex="00A3"/>
  <outline>
    <contour>
      <point x="281" y="123" type="line"/>
      <point x="339" y="181"/>
      <point x="358" y="256"/>
      <point x="358" y="348" type="curve" smooth="yes"/>
      <point x="358" y="475"/>
      <point x="333" y="672"/>
      <point x="333" y="804" type="curve" smooth="yes" name="hr01"/>
      <point x="333" y="940"/>
      <point x="397" y="992"/>
      <point x="490" y="992" type="curve" smooth="yes"/>
      <point x="534" y="992"/>
      <point x="603" y="974"/>
      <point x="641" y="946" type="curve"/>
      <point x="675" y="1058" type="line"/>
      <point x="630" y="1092"/>
      <point x="548" y="1111"/>
      <point x="490" y="1111" type="curve" smooth="yes"/>
      <point x="313" y="1111"/>
      <point x="195" y="998"/>
      <point x="195" y="774" type="curve" smooth="yes"/>
      <point x="195" y="636"/>
      <point x="219" y="446"/>
      <point x="219" y="294" type="curve" smooth="yes" name="hr02"/>
      <point x="219" y="209"/>
      <point x="168" y="141"/>
      <point x="108" y="97" type="curve"/>
      <point x="108" y="0" type="line"/>
      <point x="759" y="0" type="line"/>
      <point x="759" y="135" type="line"/>
      <point x="699" y="123"/>
      <point x="580" y="123"/>
      <point x="433" y="123" type="curve" smooth="yes"/>
    </contour>
    <contour>
      <point x="116" y="516" type="line" name="hr03"/>
      <point x="573" y="516" type="line"/>
      <point x="573" y="624" type="line"/>
      <point x="116" y="624" type="line"/>
    </contour>
  </outline>
</glyph>
<glyph name="currency" format="2">
  <advance width="900"/>
  <unicode hex="00A4"/>
  <outline>
    <contour>
      <point x="872" y="308" type="line"/>
      <point x="714" y="466" type="line"/>
      <point x="756" y="522"/>
      <point x="777" y="585"/>
      <point x="777" y="657" type="curve" smooth="yes"/>
      <point x="777" y="729"/>
      <point x="751" y="798"/>
      <point x="712" y="852" type="curve"/>
      <point x="872" y="1012" type="line"/>
      <point x="801" y="1083" type="line"/>
      <point x="639" y="920" type="line"/>
      <point x="586" y="960"/>
      <point x="523" y="985"/>
      <point x="453" y="985" type="curve" smooth="yes"/>
      <point x="381" y="985"/>
      <point x="314" y="962"/>
      <point x="259" y="921" type="curve"/>
      <point x="98" y="1083" type="line"/>
      <point x="27" y="1012" type="line"/>
      <point x="189" y="851" type="line"/>
      <point x="143" y="797"/>
      <point x="122" y="726"/>
      <point x="122" y="655" type="curve" smooth="yes"/>
      <point x="122" y="583"/>
      <point x="144" y="522"/>
      <point x="186" y="466" type="curve"/>
      <point x="27" y="308" type="line"/>
      <point x="98" y="238" type="line"/>
      <point x="256" y="396" type="line"/>
      <point x="312" y="351"/>
      <point x="376" y="327"/>
      <point x="453" y="327" type="curve" smooth="yes"/>
      <point x="523" y="327"/>
      <point x="588" y="352"/>
      <point x="643" y="396" type="curve"/>
      <point x="801" y="238" type="line"/>
    </contour>
    <contour>
      <point x="678" y="657" type="curve" smooth="yes"/>
      <point x="678" y="528"/>
      <point x="583" y="426"/>
      <point x="453" y="426" type="curve" smooth="yes"/>
      <point x="321" y="426"/>
      <point x="220" y="523"/>
      <point x="220" y="655" type="curve" smooth="yes"/>
      <point x="220" y="789"/>
      <point x="319" y="886"/>
      <point x="453" y="886" type="curve" smooth="yes"/>
      <point x="582" y="886"/>
      <point x="678" y="785"/>
    </contour>
  </outline>
</glyph>
<glyph name="yen" format="2">
  <advance width="900"/>
  <unicode hex="00A5"/>
  <outline>
    <contour>
      <point x="412" y="420" type="line"/>
      <point x="525" y="506" type="line"/>
      <point x="172" y="1095" type="line"/>
      <point x="0" y="1095" type="line"/>
      <point x="84" y="983"/>
      <point x="133" y="897"/>
      <point x="191" y="798" type="curve" smooth="yes"/>
    </contour>
    <contour>
      <point x="491" y="420" type="line"/>
      <point x="712" y="798" type="line" smooth="yes"/>
      <point x="769" y="896"/>
      <point x="811" y="968"/>
      <point x="900" y="1095" type="curve"/>
      <point x="727" y="1095" type="line"/>
      <point x="393" y="506" type="line"/>
    </contour>
    <contour>
      <point x="378" y="521" type="line"/>
      <point x="378" y="326" type="line" smooth="yes"/>
      <point x="378" y="178"/>
      <point x="378" y="60"/>
      <point x="367" y="0" type="curve"/>
      <point x="532" y="0" type="line"/>
      <point x="521" y="60"/>
      <point x="521" y="178"/>
      <point x="521" y="326" type="curve" smooth="yes"/>
      <point x="521" y="521" type="line"/>
    </contour>
    <contour>
      <point x="150" y="468" type="line"/>
      <point x="756" y="468" type="line"/>
      <point x="756" y="577" type="line"/>
      <point x="150" y="577" type="line"/>
    </contour>
    <contour>
      <point x="150" y="281" type="line"/>
      <point x="756" y="281" type="line"/>
      <point x="756" y="390" type="line"/>
      <point x="150" y="390" type="line"/>
    </contour>
  </outline>
</glyph>
<glyph name="brokenbar" format="1">
  <advance width="766"/>
  <unicode hex="00A6"/>
  <outline>
    <contour>
      <point x="329" y="333" type="line"/>
      <point x="329" y="-293" type="line"/>
      <point x="441" y="-293" type="line"/>
      <point x="441" y="333" type="line"/>
    </contour>
    <contour>
      <point x="441" y="579" type="line"/>
      <point x="441" y="1197" type="line"/>
      <point x="329" y="1197" type="line"/>
      <point x="329" y="579" type="line"/>
    </contour>
  </outline>
</glyph>
<glyph name="section" format="1">
  <advance width="766"/>
  <unicode hex="00A7"/>
  <outline>
    <contour>
      <point x="370" y="112" type="line" name="hr00"/>
      <point x="539" y="112"/>
      <point x="658" y="225"/>
      <point x="658" y="383" type="curve" smooth="yes"/>
      <point x="658" y="495"/>
      <point x="587" y="564"/>
      <point x="453" y="662" type="curve" smooth="yes"/>
      <point x="320" y="758"/>
      <point x="232" y="812"/>
      <point x="232" y="887" type="curve" smooth="yes"/>
      <point x="232" y="939"/>
      <point x="275" y="992"/>
      <point x="378" y="992" type="curve" smooth="yes"/>
      <point x="471" y="992"/>
      <point x="548" y="950"/>
      <point x="598" y="920" type="curve"/>
      <point x="624" y="1052" type="line"/>
      <point x="573" y="1079"/>
      <point x="494" y="1111"/>
      <point x="385" y="1111" type="curve" smooth="yes"/>
      <point x="173" y="1111"/>
      <point x="97" y="978"/>
      <point x="97" y="857" type="curve" smooth="yes"/>
      <point x="97" y="764"/>
      <point x="168" y="680"/>
      <point x="327" y="580" type="curve" smooth="yes"/>
      <point x="480" y="484"/>
      <point x="523" y="423"/>
      <point x="523" y="359" type="curve" smooth="yes"/>
      <point x="523" y="289"/>
      <point x="462" y="232"/>
      <point x="374" y="232" type="curve"/>
    </contour>
    <contour>
      <point x="385" y="670" type="line"/>
      <point x="224" y="670"/>
      <point x="97" y="579"/>
      <point x="97" y="427" type="curve" smooth="yes"/>
      <point x="97" y="295"/>
      <point x="168" y="220"/>
      <point x="303" y="126" type="curve" smooth="yes"/>
      <point x="435" y="35"/>
      <point x="523" y="-28"/>
      <point x="523" y="-124" type="curve" smooth="yes"/>
      <point x="523" y="-176"/>
      <point x="462" y="-233"/>
      <point x="374" y="-233" type="curve" smooth="yes"/>
      <point x="294" y="-233"/>
      <point x="186" y="-192"/>
      <point x="120" y="-131" type="curve"/>
      <point x="82" y="-265" type="line"/>
      <point x="142" y="-313"/>
      <point x="249" y="-352"/>
      <point x="370" y="-352" type="curve" smooth="yes"/>
      <point x="531" y="-352"/>
      <point x="658" y="-239"/>
      <point x="658" y="-105" type="curve" smooth="yes"/>
      <point x="658" y="8"/>
      <point x="586" y="108"/>
      <point x="427" y="208" type="curve" smooth="yes"/>
      <point x="275" y="304"/>
      <point x="232" y="363"/>
      <point x="232" y="430" type="curve" smooth="yes"/>
      <point x="232" y="503"/>
      <point x="294" y="550"/>
      <point x="381" y="550" type="curve"/>
    </contour>
  </outline>
</glyph>
<glyph name="dieresis" format="1">
  <advance width="508"/>
  <unicode hex="00A8"/>
  <outline>
    <contour>
      <point x="314" y="951"/>
      <point x="356" y="904"/>
      <point x="411" y="904" type="curve" smooth="yes"/>
      <point x="467" y="904"/>
      <point x="508" y="951"/>
      <point x="508" y="1006" type="curve" smooth="yes"/>
      <point x="508" y="1061"/>
      <point x="467" y="1107"/>
      <point x="411" y="1107" type="curve" smooth="yes"/>
      <point x="356" y="1107"/>
      <point x="314" y="1061"/>
      <point x="314" y="1006" type="curve" smooth="yes"/>
    </contour>
    <contour>
      <point x="0" y="951"/>
      <point x="42" y="904"/>
      <point x="97" y="904" type="curve" smooth="yes"/>
      <point x="154" y="904"/>
      <point x="195" y="951"/>
      <point x="195" y="1006" type="curve" smooth="yes"/>
      <point x="195" y="1061"/>
      <point x="154" y="1107"/>
      <point x="97" y="1107" type="curve" smooth="yes"/>
      <point x="42" y="1107"/>
      <point x="0" y="1061"/>
      <point x="0" y="1006" type="curve" smooth="yes"/>
    </contour>
    <contour>
      <point x="256" y="850" type="move" name="_above"/>
    </contour>
  </outline>
</glyph>
<glyph name="copyright" format="2">
  <advance width="1136"/>
  <unicode hex="00A9"/>
  <outline>
    <contour>
      <point x="566" y="1023" type="curve" smooth="yes"/>
      <point x="790" y="1023"/>
      <point x="1005" y="858"/>
      <point x="1005" y="547" type="curve" smooth="yes"/>
      <point x="1005" y="236"/>
      <point x="790" y="71"/>
      <point x="566" y="71" type="curve" smooth="yes"/>
      <point x="342" y="71"/>
      <point x="131" y="236"/>
      <point x="131" y="547" type="curve" smooth="yes"/>
      <point x="131" y="858"/>
      <point x="342" y="1023"/>
    </contour>
    <contour>
      <point x="566" y="1113" type="curve" smooth="yes"/>
      <point x="297" y="1113"/>
      <point x="37" y="922"/>
      <point x="37" y="547" type="curve" smooth="yes"/>
      <point x="37" y="165"/>
      <point x="297" y="-18"/>
      <point x="566" y="-18" type="curve" smooth="yes"/>
      <point x="827" y="-18"/>
      <point x="1098" y="165"/>
      <point x="1098" y="547" type="curve" smooth="yes"/>
      <point x="1098" y="922"/>
      <point x="827" y="1113"/>
    </contour>
    <contour>
      <point x="757" y="378" type="line"/>
      <point x="705" y="325"/>
      <point x="639" y="288"/>
      <point x="570" y="288" type="curve" smooth="yes"/>
      <point x="442" y="288"/>
      <point x="360" y="418"/>
      <point x="360" y="551" type="curve" smooth="yes"/>
      <point x="360" y="720"/>
      <point x="457" y="813"/>
      <point x="573" y="813" type="curve" smooth="yes"/>
      <point x="631" y="813"/>
      <point x="682" y="793"/>
      <point x="742" y="738" type="curve"/>
      <point x="772" y="828" type="line"/>
      <point x="704" y="879"/>
      <point x="642" y="896"/>
      <point x="573" y="896" type="curve" smooth="yes"/>
      <point x="420" y="896"/>
      <point x="266" y="771"/>
      <point x="266" y="540" type="curve" smooth="yes"/>
      <point x="266" y="339"/>
      <point x="384" y="202"/>
      <point x="562" y="202" type="curve" smooth="yes"/>
      <point x="635" y="202"/>
      <point x="720" y="229"/>
      <point x="776" y="281" type="curve"/>
    </contour>
  </outline>
</glyph>
<glyph name="ordfeminine" format="2">
  <advance width="606"/>
  <unicode hex="00AA"/>
  <outline>
    <component base="a" xScale="0.68301" yScale="0.68301" xOffset="10" yOffset="508"/>
    <contour>
      <point x="61" y="375" type="line"/>
      <point x="532" y="375" type="line"/>
      <point x="532" y="450" type="line"/>
      <point x="61" y="450" type="line"/>
    </contour>
  </outline>
</glyph>
<glyph name="guillemetleft" format="2">
  <advance width="975"/>
  <unicode hex="00AB"/>
  <outline>
    <contour>
      <point x="521" y="0" type="line"/>
      <point x="228" y="384" type="line"/>
      <point x="521" y="765" type="line"/>
      <point x="382" y="765" type="line"/>
      <point x="56" y="384" type="line"/>
      <point x="384" y="0" type="line"/>
    </contour>
    <contour>
      <point x="888" y="0" type="line"/>
      <point x="596" y="384" type="line"/>
      <point x="888" y="765" type="line"/>
      <point x="750" y="765" type="line"/>
      <point x="423" y="384" type="line"/>
      <point x="752" y="0" type="line"/>
    </contour>
  </outline>
</glyph>
<glyph name="guillemotleft" format="1">
  <advance width="973"/>
  <unicode hex="00AB"/>
  <outline>
    <contour>
      <point x="520" y="0" type="line" name="hr00"/>
      <point x="228" y="383" type="line"/>
      <point x="520" y="763" type="line"/>
      <point x="381" y="763" type="line"/>
      <point x="56" y="383" type="line"/>
      <point x="384" y="0" type="line"/>
    </contour>
    <contour>
      <point x="886" y="0" type="line"/>
      <point x="595" y="383" type="line"/>
      <point x="886" y="763" type="line"/>
      <point x="748" y="763" type="line"/>
      <point x="423" y="383" type="line"/>
      <point x="750" y="0" type="line"/>
    </contour>
  </outline>
</glyph>
<glyph name="logicalnot" format="1">
  <advance width="898"/>
  <unicode hex="00AC"/>
  <outline>
    <contour>
      <point x="797" y="255" type="line"/>
      <point x="797" y="598" type="line"/>
      <point x="82" y="598" type="line"/>
      <point x="82" y="485" type="line"/>
      <point x="684" y="485" type="line"/>
      <point x="684" y="255" type="line"/>
    </contour>
  </outline>
</glyph>
<glyph name="registered" format="1">
  <advance width="1208"/>
  <unicode hex="00AE"/>
  <outline>
    <contour>
      <point x="372" y="1111"/>
      <point x="112" y="920"/>
      <point x="112" y="545" type="curve" smooth="yes"/>
      <point x="112" y="164"/>
      <point x="372" y="-19"/>
      <point x="639" y="-19" type="curve" smooth="yes"/>
      <point x="900" y="-19"/>
      <point x="1171" y="164"/>
      <point x="1171" y="545" type="curve" smooth="yes"/>
      <point x="1171" y="920"/>
      <point x="900" y="1111"/>
      <point x="639" y="1111" type="curve" smooth="yes"/>
    </contour>
    <contour>
      <point x="863" y="1021"/>
      <point x="1077" y="857"/>
      <point x="1077" y="545" type="curve" smooth="yes"/>
      <point x="1077" y="236"/>
      <point x="863" y="71"/>
      <point x="639" y="71" type="curve" smooth="yes"/>
      <point x="416" y="71"/>
      <point x="205" y="236"/>
      <point x="205" y="545" type="curve" smooth="yes"/>
      <point x="205" y="857"/>
      <point x="416" y="1021"/>
      <point x="639" y="1021" type="curve" smooth="yes"/>
    </contour>
    <contour>
      <point x="504" y="500" type="line"/>
      <point x="598" y="500" type="line"/>
      <point x="793" y="217" type="line"/>
      <point x="909" y="217" type="line"/>
      <point x="883" y="245"/>
      <point x="739" y="439"/>
      <point x="688" y="508" type="curve"/>
      <point x="762" y="527"/>
      <point x="842" y="581"/>
      <point x="842" y="693" type="curve" smooth="yes"/>
      <point x="842" y="823"/>
      <point x="737" y="883"/>
      <point x="595" y="883" type="curve" smooth="yes"/>
      <point x="483" y="883"/>
      <point x="408" y="875"/>
      <point x="408" y="875" type="curve"/>
      <point x="414" y="837"/>
      <point x="414" y="765"/>
      <point x="414" y="672" type="curve" smooth="yes"/>
      <point x="414" y="410" type="line" smooth="yes"/>
      <point x="414" y="316"/>
      <point x="414" y="256"/>
      <point x="408" y="217" type="curve"/>
      <point x="513" y="217" type="line"/>
      <point x="505" y="255"/>
      <point x="504" y="316"/>
      <point x="504" y="410" type="curve"/>
    </contour>
    <contour>
      <point x="504" y="802" type="line"/>
      <point x="531" y="803"/>
      <point x="558" y="805"/>
      <point x="591" y="805" type="curve" smooth="yes"/>
      <point x="701" y="805"/>
      <point x="748" y="759"/>
      <point x="748" y="684" type="curve" smooth="yes"/>
      <point x="748" y="614"/>
      <point x="693" y="574"/>
      <point x="591" y="574" type="curve"/>
      <point x="504" y="574" type="line"/>
    </contour>
  </outline>
</glyph>
<glyph name="degree" format="1">
  <advance width="479"/>
  <unicode hex="00B0"/>
  <outline>
    <contour>
      <point x="340" y="867"/>
      <point x="295" y="823"/>
      <point x="239" y="823" type="curve" smooth="yes"/>
      <point x="183" y="823"/>
      <point x="139" y="867"/>
      <point x="139" y="923" type="curve" smooth="yes"/>
      <point x="139" y="979"/>
      <point x="183" y="1024"/>
      <point x="239" y="1024" type="curve" smooth="yes"/>
      <point x="295" y="1024"/>
      <point x="340" y="979"/>
      <point x="340" y="923" type="curve"/>
    </contour>
    <contour>
      <point x="52" y="819"/>
      <point x="135" y="737"/>
      <point x="239" y="737" type="curve" smooth="yes"/>
      <point x="344" y="737"/>
      <point x="426" y="819"/>
      <point x="426" y="923" type="curve" smooth="yes"/>
      <point x="426" y="1029"/>
      <point x="344" y="1111"/>
      <point x="239" y="1111" type="curve" smooth="yes"/>
      <point x="135" y="1111"/>
      <point x="52" y="1029"/>
      <point x="52" y="923" type="curve"/>
    </contour>
  </outline>
</glyph>
<glyph name="plusminus" format="1">
  <advance width="898"/>
  <unicode hex="00B1"/>
  <outline>
    <contour>
      <point x="116" y="624" type="line"/>
      <point x="393" y="624" type="line"/>
      <point x="393" y="351" type="line"/>
      <point x="504" y="351" type="line"/>
      <point x="504" y="624" type="line"/>
      <point x="782" y="624" type="line"/>
      <point x="782" y="737" type="line"/>
      <point x="504" y="737" type="line"/>
      <point x="504" y="1021" type="line"/>
      <point x="393" y="1021" type="line"/>
      <point x="393" y="737" type="line"/>
      <point x="116" y="737" type="line"/>
    </contour>
    <contour>
      <point x="116" y="149" type="line"/>
      <point x="782" y="149" type="line"/>
      <point x="782" y="261" type="line"/>
      <point x="116" y="261" type="line"/>
    </contour>
  </outline>
</glyph>
<glyph name="twosuperior" format="1">
  <advance width="628"/>
  <unicode hex="00B2"/>
  <outline>
    <contour>
      <point x="569" y="596" type="line" name="hr00"/>
      <point x="528" y="588"/>
      <point x="445" y="588"/>
      <point x="342" y="588" type="curve" smooth="yes"/>
      <point x="208" y="588" type="line"/>
      <point x="323" y="679"/>
      <point x="532" y="862"/>
      <point x="532" y="1026" type="curve" smooth="yes"/>
      <point x="532" y="1151"/>
      <point x="423" y="1230"/>
      <point x="297" y="1230" type="curve" smooth="yes"/>
      <point x="209" y="1230"/>
      <point x="112" y="1190"/>
      <point x="70" y="1135" type="curve"/>
      <point x="92" y="1053" type="line"/>
      <point x="140" y="1105"/>
      <point x="214" y="1143"/>
      <point x="279" y="1143" type="curve" smooth="yes"/>
      <point x="354" y="1143"/>
      <point x="428" y="1107"/>
      <point x="428" y="1016" type="curve" smooth="yes"/>
      <point x="428" y="882"/>
      <point x="209" y="686"/>
      <point x="66" y="590" type="curve"/>
      <point x="66" y="508" type="line"/>
      <point x="569" y="508" type="line"/>
    </contour>
    <contour>
      <point x="314" y="1253" type="move" name="U"/>
    </contour>
    <contour>
      <point x="314" y="460" type="move" name="L"/>
    </contour>
  </outline>
</glyph>
<glyph name="threesuperior" format="1">
  <advance width="628"/>
  <unicode hex="00B3"/>
  <outline>
    <contour>
      <point x="218" y="931" type="line"/>
      <point x="218" y="848" type="line"/>
      <point x="255" y="848" type="line"/>
      <point x="379" y="848"/>
      <point x="473" y="794"/>
      <point x="473" y="715" type="curve" smooth="yes"/>
      <point x="473" y="625"/>
      <point x="380" y="581"/>
      <point x="300" y="581" type="curve" smooth="yes"/>
      <point x="206" y="581"/>
      <point x="131" y="621"/>
      <point x="75" y="680" type="curve"/>
      <point x="61" y="576" type="line"/>
      <point x="117" y="528"/>
      <point x="197" y="496"/>
      <point x="290" y="496" type="curve" smooth="yes"/>
      <point x="440" y="496"/>
      <point x="574" y="590"/>
      <point x="574" y="705" type="curve" smooth="yes"/>
      <point x="574" y="835"/>
      <point x="455" y="885"/>
      <point x="381" y="897" type="curve"/>
      <point x="455" y="911"/>
      <point x="549" y="973"/>
      <point x="549" y="1062" type="curve" smooth="yes"/>
      <point x="549" y="1166"/>
      <point x="437" y="1230"/>
      <point x="308" y="1230" type="curve"/>
      <point x="220" y="1230"/>
      <point x="140" y="1196"/>
      <point x="99" y="1153" type="curve"/>
      <point x="117" y="1070" type="line"/>
      <point x="176" y="1126"/>
      <point x="232" y="1144"/>
      <point x="313" y="1144" type="curve" smooth="yes"/>
      <point x="376" y="1144"/>
      <point x="449" y="1116"/>
      <point x="449" y="1050" type="curve" smooth="yes"/>
      <point x="449" y="990"/>
      <point x="359" y="931"/>
      <point x="255" y="931" type="curve"/>
    </contour>
    <contour>
      <point x="314" y="460" type="move" name="L"/>
    </contour>
    <contour>
      <point x="314" y="1253" type="move" name="U"/>
    </contour>
  </outline>
</glyph>
<glyph name="micro" format="1">
  <advance width="886"/>
  <unicode hex="00B5"/>
  <outline>
    <contour>
      <point x="815" y="0" type="line"/>
      <point x="784" y="84"/>
      <point x="767" y="192"/>
      <point x="767" y="336" type="curve" smooth="yes"/>
      <point x="767" y="483"/>
      <point x="767" y="763"/>
      <point x="767" y="763" type="curve"/>
      <point x="614" y="763" type="line"/>
      <point x="626" y="672"/>
      <point x="628" y="622"/>
      <point x="628" y="523" type="curve" smooth="yes"/>
      <point x="628" y="314" type="line"/>
      <point x="597" y="220"/>
      <point x="497" y="104"/>
      <point x="422" y="104" type="curve" smooth="yes" name="hr01"/>
      <point x="339" y="104"/>
      <point x="255" y="178"/>
      <point x="255" y="348" type="curve" smooth="yes"/>
      <point x="255" y="451"/>
      <point x="255" y="763"/>
      <point x="255" y="763" type="curve"/>
      <point x="101" y="763" type="line"/>
      <point x="115" y="674"/>
      <point x="116" y="618"/>
      <point x="116" y="523" type="curve" smooth="yes"/>
      <point x="116" y="510"/>
      <point x="116" y="317"/>
      <point x="116" y="303" type="curve" smooth="yes"/>
      <point x="116" y="-367" type="line"/>
      <point x="274" y="-367" type="line"/>
      <point x="260" y="-303"/>
      <point x="255" y="-233"/>
      <point x="255" y="-113" type="curve"/>
      <point x="255" y="60" type="line"/>
      <point x="282" y="20"/>
      <point x="339" y="-19"/>
      <point x="408" y="-19" type="curve" smooth="yes"/>
      <point x="503" y="-19"/>
      <point x="599" y="75"/>
      <point x="647" y="149" type="curve"/>
      <point x="655" y="94"/>
      <point x="674" y="34"/>
      <point x="688" y="0" type="curve" name="hr02"/>
    </contour>
  </outline>
</glyph>
<glyph name="paragraph" format="1">
  <advance width="767"/>
  <unicode hex="00B6"/>
  <outline>
    <contour>
      <point x="722" y="1006" type="line"/>
      <point x="722" y="1092" type="line"/>
      <point x="329" y="1092" type="line" smooth="yes"/>
      <point x="211" y="1092"/>
      <point x="37" y="1034"/>
      <point x="37" y="833" type="curve" smooth="yes"/>
      <point x="37" y="633"/>
      <point x="212" y="573"/>
      <point x="314" y="573" type="curve" name="hr01"/>
      <point x="314" y="0" type="line"/>
      <point x="415" y="0" type="line"/>
      <point x="415" y="1006" type="line"/>
      <point x="535" y="1006" type="line"/>
      <point x="535" y="0" type="line"/>
      <point x="636" y="0" type="line"/>
      <point x="636" y="1006" type="line"/>
    </contour>
  </outline>
</glyph>
<glyph name="periodcentered" format="1">
  <advance width="507"/>
  <unicode hex="00B7"/>
  <outline>
    <contour>
      <point x="154" y="475"/>
      <point x="199" y="430"/>
      <point x="254" y="430" type="curve" smooth="yes"/>
      <point x="309" y="430"/>
      <point x="354" y="475"/>
      <point x="354" y="531" type="curve" smooth="yes"/>
      <point x="354" y="585"/>
      <point x="309" y="631"/>
      <point x="254" y="631" type="curve" smooth="yes"/>
      <point x="199" y="631"/>
      <point x="154" y="585"/>
      <point x="154" y="531" type="curve" smooth="yes"/>
    </contour>
  </outline>
</glyph>
<glyph name="onesuperior" format="1">
  <advance width="628"/>
  <unicode hex="00B9"/>
  <outline>
    <component base="one" xOffset="-14" yOffset="508" xScale="0.7" yScale="0.65"/>
    <contour>
      <point x="313" y="1253" type="move" name="U"/>
    </contour>
    <contour>
      <point x="313" y="460" type="move" name="L"/>
    </contour>
  </outline>
</glyph>
<glyph name="ordmasculine" format="2">
  <advance width="598"/>
  <unicode hex="00BA"/>
  <outline>
    <contour>
      <point x="53" y="756" type="curve" smooth="yes"/>
      <point x="53" y="588"/>
      <point x="153" y="498"/>
      <point x="297" y="498" type="curve" smooth="yes"/>
      <point x="435" y="498"/>
      <point x="552" y="588"/>
      <point x="552" y="756" type="curve" smooth="yes"/>
      <point x="552" y="924"/>
      <point x="452" y="1017"/>
      <point x="308" y="1017" type="curve" smooth="yes"/>
      <point x="170" y="1017"/>
      <point x="53" y="924"/>
    </contour>
    <contour>
      <point x="150" y="756" type="curve" smooth="yes"/>
      <point x="150" y="870"/>
      <point x="218" y="939"/>
      <point x="303" y="939" type="curve" smooth="yes"/>
      <point x="393" y="939"/>
      <point x="455" y="870"/>
      <point x="455" y="756" type="curve" smooth="yes"/>
      <point x="455" y="642"/>
      <point x="387" y="576"/>
      <point x="303" y="576" type="curve" smooth="yes"/>
      <point x="213" y="576"/>
      <point x="150" y="642"/>
    </contour>
    <contour>
      <point x="53" y="375" type="line"/>
      <point x="552" y="375" type="line"/>
      <point x="552" y="450" type="line"/>
      <point x="53" y="450" type="line"/>
    </contour>
  </outline>
</glyph>
<glyph name="guillemotright" format="1">
  <advance width="973"/>
  <unicode hex="00BB"/>
  <outline>
    <contour>
      <point x="588" y="0" type="line" name="hr00"/>
      <point x="917" y="383" type="line"/>
      <point x="591" y="763" type="line"/>
      <point x="453" y="763" type="line"/>
      <point x="744" y="383" type="line"/>
      <point x="453" y="0" type="line"/>
    </contour>
    <contour>
      <point x="222" y="0" type="line"/>
      <point x="550" y="383" type="line"/>
      <point x="224" y="763" type="line"/>
      <point x="85" y="763" type="line"/>
      <point x="378" y="383" type="line"/>
      <point x="85" y="0" type="line"/>
    </contour>
  </outline>
</glyph>
<glyph name="onequarter" format="2">
  <advance width="1200"/>
  <unicode hex="00BC"/>
  <anchor x="260" y="488" name="L"/>
  <anchor x="260" y="1245" name="U"/>
  <outline>
    <contour>
      <point x="172" y="-37" type="line"/>
      <point x="270" y="-37" type="line"/>
      <point x="1081" y="1200" type="line"/>
      <point x="983" y="1200" type="line"/>
    </contour>
    <contour>
      <point x="238" y="534" type="line"/>
      <point x="337" y="534" type="line"/>
      <point x="331" y="585"/>
      <point x="328" y="696"/>
      <point x="328" y="757" type="curve" smooth="yes"/>
      <point x="328" y="1201" type="line"/>
      <point x="238" y="1201" type="line"/>
      <point x="91" y="1104" type="line"/>
      <point x="104" y="1020" type="line"/>
      <point x="238" y="1106" type="line"/>
    </contour>
    <contour>
      <point x="941" y="0" type="line"/>
      <point x="1038" y="0" type="line"/>
      <point x="1038" y="195" type="line"/>
      <point x="1140" y="195" type="line"/>
      <point x="1140" y="273" type="line"/>
      <point x="1038" y="273" type="line"/>
      <point x="1038" y="667" type="line"/>
      <point x="941" y="667" type="line"/>
      <point x="648" y="273" type="line"/>
      <point x="648" y="195" type="line"/>
      <point x="941" y="195" type="line"/>
    </contour>
    <contour>
      <point x="750" y="273" type="line"/>
      <point x="941" y="540" type="line"/>
      <point x="941" y="273" type="line"/>
    </contour>
  </outline>
</glyph>
<glyph name="onehalf" format="1">
  <advance width="1197"/>
  <unicode hex="00BD"/>
  <outline>
    <contour>
      <point x="955" y="1197" type="line"/>
      <point x="154" y="-38" type="line"/>
      <point x="251" y="-38" type="line"/>
      <point x="1053" y="1197" type="line"/>
    </contour>
    <contour>
      <point x="1159" y="85" type="line"/>
      <point x="1123" y="80"/>
      <point x="1054" y="79"/>
      <point x="964" y="79" type="curve" smooth="yes"/>
      <point x="857" y="79" type="line"/>
      <point x="955" y="155"/>
      <point x="1130" y="327"/>
      <point x="1130" y="479" type="curve" smooth="yes"/>
      <point x="1130" y="595"/>
      <point x="1035" y="670"/>
      <point x="926" y="670" type="curve" smooth="yes"/>
      <point x="851" y="670"/>
      <point x="766" y="630"/>
      <point x="730" y="579" type="curve"/>
      <point x="752" y="498" type="line"/>
      <point x="791" y="545"/>
      <point x="857" y="579"/>
      <point x="913" y="579" type="curve" smooth="yes"/>
      <point x="977" y="579"/>
      <point x="1033" y="556"/>
      <point x="1033" y="471" type="curve" smooth="yes"/>
      <point x="1033" y="347"/>
      <point x="851" y="169"/>
      <point x="730" y="82" type="curve"/>
      <point x="730" y="0" type="line"/>
      <point x="1159" y="0" type="line"/>
    </contour>
    <contour>
      <point x="334" y="1198" type="line"/>
      <point x="239" y="1198" type="line"/>
      <point x="83" y="1103" type="line"/>
      <point x="95" y="1020" type="line"/>
      <point x="239" y="1105" type="line"/>
      <point x="239" y="523" type="line"/>
      <point x="344" y="523" type="line"/>
      <point x="337" y="573"/>
      <point x="334" y="683"/>
      <point x="334" y="743" type="curve" smooth="yes"/>
    </contour>
  </outline>
</glyph>
<glyph name="threequarters" format="1">
  <advance width="1197"/>
  <unicode hex="00BE"/>
  <outline>
    <contour>
      <point x="1133" y="195" type="line"/>
      <point x="1133" y="274" type="line"/>
      <point x="744" y="274" type="line"/>
      <point x="935" y="539" type="line"/>
      <point x="935" y="0" type="line"/>
      <point x="1047" y="0" type="line"/>
      <point x="1039" y="48"/>
      <point x="1036" y="156"/>
      <point x="1036" y="214" type="curve" smooth="yes"/>
      <point x="1036" y="665" type="line"/>
      <point x="935" y="665" type="line"/>
      <point x="643" y="274" type="line"/>
      <point x="643" y="195" type="line"/>
    </contour>
    <contour>
      <point x="504" y="833"/>
      <point x="419" y="892"/>
      <point x="355" y="898" type="curve"/>
      <point x="419" y="905"/>
      <point x="483" y="962"/>
      <point x="483" y="1036" type="curve" smooth="yes"/>
      <point x="483" y="1132"/>
      <point x="407" y="1201"/>
      <point x="295" y="1201" type="curve" smooth="yes"/>
      <point x="229" y="1201"/>
      <point x="176" y="1180"/>
      <point x="123" y="1141" type="curve"/>
      <point x="142" y="1062" type="line"/>
      <point x="202" y="1105"/>
      <point x="240" y="1114"/>
      <point x="288" y="1114" type="curve" smooth="yes"/>
      <point x="345" y="1114"/>
      <point x="393" y="1093"/>
      <point x="393" y="1033" type="curve" smooth="yes"/>
      <point x="393" y="977"/>
      <point x="336" y="932"/>
      <point x="246" y="932" type="curve" smooth="yes"/>
      <point x="214" y="932" type="line"/>
      <point x="214" y="849" type="line"/>
      <point x="246" y="849" type="line" smooth="yes"/>
      <point x="353" y="849"/>
      <point x="411" y="803"/>
      <point x="411" y="730" type="curve" smooth="yes"/>
      <point x="411" y="642"/>
      <point x="352" y="605"/>
      <point x="276" y="605" type="curve" smooth="yes"/>
      <point x="213" y="605"/>
      <point x="145" y="638"/>
      <point x="104" y="684" type="curve"/>
      <point x="94" y="587" type="line"/>
      <point x="136" y="550"/>
      <point x="205" y="520"/>
      <point x="280" y="520" type="curve" smooth="yes"/>
      <point x="410" y="520"/>
      <point x="504" y="617"/>
      <point x="504" y="722" type="curve" smooth="yes"/>
    </contour>
    <contour>
      <point x="974" y="1197" type="line"/>
      <point x="172" y="-38" type="line"/>
      <point x="269" y="-38" type="line"/>
      <point x="1072" y="1197" type="line"/>
    </contour>
  </outline>
</glyph>
<glyph name="AE" format="1">
  <advance width="1351"/>
  <unicode hex="00C6"/>
  <outline>
    <contour>
      <point x="791" y="288" type="line"/>
      <point x="746" y="404" type="line"/>
      <point x="343" y="404" type="line"/>
      <point x="298" y="288" type="line"/>
    </contour>
    <contour>
      <point x="1182" y="513" type="line"/>
      <point x="1182" y="633" type="line"/>
      <point x="830" y="633" type="line"/>
      <point x="830" y="969" type="line"/>
      <point x="1238" y="969" type="line"/>
      <point x="1238" y="1092" type="line"/>
      <point x="605" y="1092" type="line"/>
      <point x="220" y="298" type="line" smooth="yes"/>
      <point x="169" y="193"/>
      <point x="126" y="111"/>
      <point x="60" y="0" type="curve"/>
      <point x="209" y="0" type="line"/>
      <point x="688" y="969" type="line"/>
      <point x="688" y="181"/>
      <point x="688" y="60"/>
      <point x="677" y="0" type="curve"/>
      <point x="1261" y="0" type="line"/>
      <point x="1261" y="135" type="line"/>
      <point x="1201" y="123"/>
      <point x="1100" y="123"/>
      <point x="953" y="123" type="curve" smooth="yes"/>
      <point x="830" y="123" type="line"/>
      <point x="830" y="513" type="line"/>
    </contour>
  </outline>
</glyph>
<glyph name="Eth" format="2">
  <advance width="1076"/>
  <unicode hex="00D0"/>
  <anchor x="536" y="-75" name="L"/>
  <anchor x="536" y="1147" name="U"/>
  <outline>
    <contour>
      <point x="446" y="-7" type="curve" smooth="yes"/>
      <point x="666" y="-7"/>
      <point x="986" y="108"/>
      <point x="986" y="555" type="curve" smooth="yes"/>
      <point x="986" y="1045"/>
      <point x="621" y="1102"/>
      <point x="461" y="1102" type="curve" smooth="yes"/>
      <point x="360" y="1102"/>
      <point x="183" y="1099"/>
      <point x="120" y="1095" type="curve"/>
      <point x="131" y="1035"/>
      <point x="131" y="897"/>
      <point x="131" y="750" type="curve" smooth="yes"/>
      <point x="131" y="626" type="line"/>
      <point x="0" y="626" type="line"/>
      <point x="0" y="517" type="line"/>
      <point x="131" y="517" type="line"/>
      <point x="131" y="341" type="line" smooth="yes"/>
      <point x="131" y="192"/>
      <point x="131" y="60"/>
      <point x="120" y="0" type="curve"/>
      <point x="120" y="0"/>
      <point x="350" y="-7"/>
    </contour>
    <contour>
      <point x="438" y="116" type="curve" smooth="yes"/>
      <point x="367" y="116"/>
      <point x="309" y="120"/>
      <point x="273" y="123" type="curve"/>
      <point x="273" y="517" type="line"/>
      <point x="558" y="517" type="line"/>
      <point x="558" y="626" type="line"/>
      <point x="273" y="626" type="line"/>
      <point x="273" y="978" type="line"/>
      <point x="311" y="980"/>
      <point x="393" y="982"/>
      <point x="442" y="982" type="curve" smooth="yes"/>
      <point x="658" y="982"/>
      <point x="840" y="875"/>
      <point x="840" y="540" type="curve" smooth="yes"/>
      <point x="840" y="231"/>
      <point x="639" y="116"/>
    </contour>
  </outline>
</glyph>
<glyph name="multiply" format="1">
  <advance width="898"/>
  <unicode hex="00D7"/>
  <outline>
    <contour>
      <point x="147" y="764" type="line"/>
      <point x="371" y="540" type="line"/>
      <point x="152" y="321" type="line"/>
      <point x="232" y="241" type="line"/>
      <point x="450" y="461" type="line"/>
      <point x="666" y="245" type="line"/>
      <point x="746" y="324" type="line"/>
      <point x="530" y="540" type="line"/>
      <point x="750" y="760" type="line"/>
      <point x="671" y="839" type="line"/>
      <point x="450" y="619" type="line"/>
      <point x="227" y="843" type="line"/>
    </contour>
  </outline>
</glyph>
<glyph name="Oslash" format="1">
  <advance width="1092"/>
  <unicode hex="00D8"/>
  <outline>
    <contour>
      <point x="857" y="535" type="curve" smooth="yes" name="hr00"/>
      <point x="857" y="269"/>
      <point x="722" y="112"/>
      <point x="539" y="112" type="curve" smooth="yes"/>
      <point x="344" y="112"/>
      <point x="217" y="284"/>
      <point x="217" y="558" type="curve" smooth="yes"/>
      <point x="217" y="816"/>
      <point x="349" y="979"/>
      <point x="539" y="979" type="curve" smooth="yes"/>
      <point x="728" y="979"/>
      <point x="857" y="811"/>
    </contour>
    <contour>
      <point x="1002" y="554" type="curve" smooth="yes"/>
      <point x="1002" y="912"/>
      <point x="784" y="1111"/>
      <point x="545" y="1111" type="curve" smooth="yes"/>
      <point x="304" y="1111"/>
      <point x="71" y="897"/>
      <point x="71" y="539" type="curve" smooth="yes"/>
      <point x="71" y="180"/>
      <point x="291" y="-19"/>
      <point x="531" y="-19" type="curve" smooth="yes"/>
      <point x="770" y="-19"/>
      <point x="1002" y="195"/>
    </contour>
    <contour>
      <point x="793" y="1144" type="line"/>
      <point x="145" y="-56" type="line"/>
      <point x="256" y="-56" type="line"/>
      <point x="902" y="1144" type="line"/>
    </contour>
  </outline>
</glyph>
<glyph name="Thorn" format="2">
  <advance width="897"/>
  <unicode hex="00DE"/>
  <anchor x="478" y="-75" name="L"/>
  <anchor x="478" y="1147" name="U"/>
  <outline>
    <contour>
      <point x="120" y="0" type="curve"/>
      <point x="285" y="0" type="line"/>
      <point x="274" y="58"/>
      <point x="273" y="221"/>
      <point x="273" y="221" type="curve"/>
      <point x="322" y="216"/>
      <point x="384" y="213"/>
      <point x="439" y="213" type="curve" smooth="yes"/>
      <point x="686" y="213"/>
      <point x="837" y="349"/>
      <point x="837" y="570" type="curve" smooth="yes"/>
      <point x="837" y="789"/>
      <point x="681" y="900"/>
      <point x="439" y="900" type="curve" smooth="yes"/>
      <point x="380" y="900"/>
      <point x="324" y="898"/>
      <point x="273" y="897" type="curve"/>
      <point x="273" y="1095" type="line"/>
      <point x="120" y="1095" type="line"/>
      <point x="131" y="1035"/>
      <point x="131" y="897"/>
      <point x="131" y="750" type="curve" smooth="yes"/>
      <point x="131" y="326" type="line" smooth="yes"/>
      <point x="131" y="178"/>
      <point x="131" y="60"/>
    </contour>
    <contour>
      <point x="427" y="330" type="curve" smooth="yes"/>
      <point x="371" y="330"/>
      <point x="321" y="331"/>
      <point x="273" y="337" type="curve"/>
      <point x="273" y="776" type="line"/>
      <point x="324" y="778"/>
      <point x="360" y="780"/>
      <point x="431" y="780" type="curve" smooth="yes"/>
      <point x="630" y="780"/>
      <point x="693" y="675"/>
      <point x="693" y="555" type="curve" smooth="yes"/>
      <point x="693" y="434"/>
      <point x="637" y="330"/>
    </contour>
  </outline>
</glyph>
<glyph name="germandbls" format="2">
  <advance width="928"/>
  <unicode hex="00DF"/>
  <anchor x="442" y="-75" name="L"/>
  <anchor x="465" y="1226" name="U"/>
  <outline>
    <contour>
      <point x="398" y="36" type="line"/>
      <point x="436" y="9"/>
      <point x="522" y="-18"/>
      <point x="594" y="-18" type="curve" smooth="yes"/>
      <point x="765" y="-18"/>
      <point x="887" y="79"/>
      <point x="887" y="246" type="curve" smooth="yes"/>
      <point x="887" y="377"/>
      <point x="790" y="447"/>
      <point x="714" y="492" type="curve" smooth="yes"/>
      <point x="648" y="531"/>
      <point x="571" y="556"/>
      <point x="571" y="633" type="curve" smooth="yes"/>
      <point x="571" y="765"/>
      <point x="812" y="723"/>
      <point x="812" y="963" type="curve" smooth="yes"/>
      <point x="812" y="1091"/>
      <point x="696" y="1215"/>
      <point x="465" y="1215" type="curve" smooth="yes"/>
      <point x="290" y="1215"/>
      <point x="120" y="1110"/>
      <point x="120" y="840" type="curve" smooth="yes"/>
      <point x="120" y="370" type="line" smooth="yes"/>
      <point x="120" y="225"/>
      <point x="114" y="78"/>
      <point x="97" y="0" type="curve"/>
      <point x="258" y="0" type="line"/>
      <point x="258" y="855" type="line" smooth="yes"/>
      <point x="258" y="1009"/>
      <point x="365" y="1095"/>
      <point x="491" y="1095" type="curve" smooth="yes"/>
      <point x="574" y="1095"/>
      <point x="675" y="1034"/>
      <point x="675" y="948" type="curve" smooth="yes"/>
      <point x="675" y="800"/>
      <point x="436" y="821"/>
      <point x="436" y="633" type="curve" smooth="yes"/>
      <point x="436" y="504"/>
      <point x="537" y="437"/>
      <point x="624" y="393" type="curve" smooth="yes"/>
      <point x="694" y="358"/>
      <point x="755" y="306"/>
      <point x="755" y="239" type="curve" smooth="yes"/>
      <point x="755" y="151"/>
      <point x="687" y="101"/>
      <point x="594" y="101" type="curve" smooth="yes"/>
      <point x="537" y="101"/>
      <point x="471" y="135"/>
      <point x="435" y="171" type="curve"/>
    </contour>
  </outline>
</glyph>
<glyph name="ae" format="1">
  <advance width="1305"/>
  <unicode hex="00E6"/>
  <outline>
    <contour>
      <point x="823" y="778"/>
      <point x="725" y="730"/>
      <point x="658" y="647" type="curve"/>
      <point x="605" y="735"/>
      <point x="505" y="778"/>
      <point x="404" y="778" type="curve" smooth="yes"/>
      <point x="291" y="778"/>
      <point x="235" y="743"/>
      <point x="157" y="711" type="curve"/>
      <point x="153" y="678"/>
      <point x="151" y="598"/>
      <point x="149" y="564" type="curve"/>
      <point x="237" y="626"/>
      <point x="292" y="658"/>
      <point x="370" y="658" type="curve" smooth="yes"/>
      <point x="483" y="658"/>
      <point x="564" y="621"/>
      <point x="564" y="531" type="curve" smooth="yes"/>
      <point x="564" y="467" type="line"/>
      <point x="534" y="465"/>
      <point x="414" y="463"/>
      <point x="363" y="456" type="curve" smooth="yes"/>
      <point x="140" y="426"/>
      <point x="71" y="304"/>
      <point x="71" y="191" type="curve" smooth="yes"/>
      <point x="71" y="80"/>
      <point x="174" y="-19"/>
      <point x="314" y="-19" type="curve" smooth="yes"/>
      <point x="407" y="-19"/>
      <point x="499" y="14"/>
      <point x="586" y="109" type="curve" smooth="yes"/>
      <point x="598" y="121"/>
      <point x="611" y="134"/>
      <point x="620" y="146" type="curve"/>
      <point x="686" y="37"/>
      <point x="800" y="-19"/>
      <point x="923" y="-19" type="curve" smooth="yes"/>
      <point x="1039" y="-19"/>
      <point x="1124" y="1"/>
      <point x="1231" y="56" type="curve"/>
      <point x="1216" y="180" type="line"/>
      <point x="1124" y="123"/>
      <point x="1039" y="104"/>
      <point x="942" y="104" type="curve" smooth="yes"/>
      <point x="807" y="104"/>
      <point x="701" y="187"/>
      <point x="695" y="363" type="curve"/>
      <point x="1226" y="363" type="line"/>
      <point x="1226" y="423" type="line"/>
      <point x="1226" y="591"/>
      <point x="1163" y="778"/>
      <point x="932" y="778" type="curve" smooth="yes"/>
    </contour>
    <contour>
      <point x="564" y="327"/>
      <point x="570" y="293"/>
      <point x="576" y="261" type="curve"/>
      <point x="574" y="255"/>
      <point x="570" y="249"/>
      <point x="564" y="243" type="curve" smooth="yes"/>
      <point x="482" y="123"/>
      <point x="413" y="104"/>
      <point x="336" y="104" type="curve" smooth="yes"/>
      <point x="261" y="104"/>
      <point x="209" y="151"/>
      <point x="209" y="209" type="curve" smooth="yes"/>
      <point x="209" y="278"/>
      <point x="245" y="329"/>
      <point x="370" y="351" type="curve" smooth="yes"/>
      <point x="417" y="360"/>
      <point x="527" y="361"/>
      <point x="564" y="363" type="curve"/>
    </contour>
    <contour>
      <point x="1014" y="665"/>
      <point x="1092" y="597"/>
      <point x="1092" y="467" type="curve"/>
      <point x="703" y="467" type="line"/>
      <point x="728" y="602"/>
      <point x="811" y="665"/>
      <point x="920" y="665" type="curve" smooth="yes"/>
    </contour>
  </outline>
</glyph>
<glyph name="eth" format="2">
  <advance width="870"/>
  <unicode hex="00F0"/>
  <anchor x="429" y="-75" name="L"/>
  <anchor x="429" y="1226" name="U"/>
  <outline>
    <contour>
      <point x="394" y="750" type="curve" smooth="yes"/>
      <point x="247" y="750"/>
      <point x="71" y="608"/>
      <point x="71" y="365" type="curve" smooth="yes"/>
      <point x="71" y="114"/>
      <point x="214" y="-18"/>
      <point x="420" y="-18" type="curve" smooth="yes"/>
      <point x="650" y="-18"/>
      <point x="787" y="138"/>
      <point x="787" y="454" type="curve" smooth="yes"/>
      <point x="787" y="772"/>
      <point x="576" y="1089"/>
      <point x="369" y="1215" type="curve"/>
      <point x="239" y="1149" type="line"/>
      <point x="405" y="1070"/>
      <point x="578" y="853"/>
      <point x="639" y="651" type="curve"/>
      <point x="570" y="715"/>
      <point x="515" y="750"/>
    </contour>
    <contour>
      <point x="210" y="365" type="curve" smooth="yes"/>
      <point x="210" y="525"/>
      <point x="291" y="630"/>
      <point x="427" y="630" type="curve" smooth="yes"/>
      <point x="556" y="630"/>
      <point x="645" y="533"/>
      <point x="645" y="365" type="curve" smooth="yes"/>
      <point x="645" y="205"/>
      <point x="563" y="101"/>
      <point x="427" y="101" type="curve" smooth="yes"/>
      <point x="298" y="101"/>
      <point x="210" y="198"/>
    </contour>
    <contour>
      <point x="747" y="1114" type="line"/>
      <point x="683" y="1193" type="line"/>
      <point x="240" y="919" type="line"/>
      <point x="303" y="838" type="line"/>
    </contour>
  </outline>
</glyph>
<glyph name="divide" format="1">
  <advance width="898"/>
  <unicode hex="00F7"/>
  <outline>
    <contour>
      <point x="342" y="304" type="curve" smooth="yes" name="hr00"/>
      <point x="342" y="247"/>
      <point x="392" y="199"/>
      <point x="448" y="199" type="curve" smooth="yes"/>
      <point x="505" y="199"/>
      <point x="552" y="247"/>
      <point x="552" y="304" type="curve" smooth="yes"/>
      <point x="552" y="361"/>
      <point x="505" y="408"/>
      <point x="448" y="408" type="curve" smooth="yes"/>
      <point x="392" y="408"/>
      <point x="342" y="361"/>
    </contour>
    <contour>
      <point x="342" y="782" type="curve" smooth="yes"/>
      <point x="342" y="725"/>
      <point x="392" y="677"/>
      <point x="448" y="677" type="curve" smooth="yes"/>
      <point x="505" y="677"/>
      <point x="552" y="725"/>
      <point x="552" y="782" type="curve" smooth="yes"/>
      <point x="552" y="839"/>
      <point x="505" y="885"/>
      <point x="448" y="885" type="curve" smooth="yes"/>
      <point x="392" y="885"/>
      <point x="342" y="839"/>
    </contour>
    <contour>
      <point x="116" y="485" type="line"/>
      <point x="782" y="485" type="line"/>
      <point x="782" y="598" type="line"/>
      <point x="116" y="598" type="line"/>
    </contour>
  </outline>
</glyph>
<glyph name="oslash" format="2">
  <advance width="855"/>
  <unicode hex="00F8"/>
  <anchor x="427" y="0" name="H"/>
  <anchor x="427" y="-75" name="L"/>
  <anchor x="629" y="0" name="O"/>
  <anchor x="855" y="750" name="R"/>
  <anchor x="427" y="825" name="U"/>
  <outline>
    <contour>
      <point x="420" y="-18" type="curve" smooth="yes"/>
      <point x="617" y="-18"/>
      <point x="783" y="122"/>
      <point x="783" y="380" type="curve" smooth="yes"/>
      <point x="783" y="638"/>
      <point x="641" y="780"/>
      <point x="435" y="780" type="curve" smooth="yes"/>
      <point x="237" y="780"/>
      <point x="71" y="638"/>
      <point x="71" y="380" type="curve" smooth="yes"/>
      <point x="71" y="122"/>
      <point x="214" y="-18"/>
    </contour>
    <contour>
      <point x="123" y="-56" type="line"/>
      <point x="234" y="-56" type="line"/>
      <point x="711" y="828" type="line"/>
      <point x="601" y="828" type="line"/>
    </contour>
    <contour>
      <point x="427" y="101" type="curve" smooth="yes"/>
      <point x="298" y="101"/>
      <point x="210" y="205"/>
      <point x="210" y="380" type="curve" smooth="yes"/>
      <point x="210" y="555"/>
      <point x="306" y="660"/>
      <point x="427" y="660" type="curve" smooth="yes"/>
      <point x="556" y="660"/>
      <point x="645" y="555"/>
      <point x="645" y="380" type="curve" smooth="yes"/>
      <point x="645" y="205"/>
      <point x="548" y="101"/>
    </contour>
  </outline>
</glyph>
<glyph name="idotless" format="2">
  <advance width="423"/>
  <unicode hex="0131"/>
  <anchor x="213" y="0" name="H"/>
  <anchor x="213" y="-75" name="L"/>
  <anchor x="390" y="0" name="O"/>
  <anchor x="412" y="750" name="R"/>
  <anchor x="213" y="825" name="U"/>
  <outline>
    <contour>
      <point x="281" y="765" type="line"/>
      <point x="131" y="765" type="line"/>
      <point x="141" y="686"/>
      <point x="142" y="543"/>
      <point x="142" y="397" type="curve" smooth="yes"/>
      <point x="142" y="252"/>
      <point x="142" y="0"/>
      <point x="142" y="0" type="curve"/>
      <point x="296" y="0" type="line"/>
      <point x="286" y="80"/>
      <point x="281" y="259"/>
      <point x="281" y="356" type="curve" smooth="yes"/>
    </contour>
  </outline>
</glyph>
<glyph name="OE" format="2">
  <advance width="1458"/>
  <unicode hex="0152"/>
  <outline>
    <contour>
      <point x="1369" y="0" type="line"/>
      <point x="1369" y="135" type="line"/>
      <point x="1309" y="123"/>
      <point x="1209" y="123"/>
      <point x="1061" y="123" type="curve" smooth="yes"/>
      <point x="939" y="123" type="line"/>
      <point x="939" y="513" type="line"/>
      <point x="1291" y="513" type="line"/>
      <point x="1291" y="633" type="line"/>
      <point x="939" y="633" type="line"/>
      <point x="939" y="969" type="line"/>
      <point x="1346" y="969" type="line"/>
      <point x="1346" y="1092" type="line"/>
      <point x="797" y="1092" type="line"/>
      <point x="797" y="970" type="line"/>
      <point x="731" y="1053"/>
      <point x="638" y="1111"/>
      <point x="516" y="1111" type="curve" smooth="yes"/>
      <point x="282" y="1111"/>
      <point x="71" y="897"/>
      <point x="71" y="539" type="curve" smooth="yes"/>
      <point x="71" y="180"/>
      <point x="267" y="-19"/>
      <point x="501" y="-19" type="curve" smooth="yes"/>
      <point x="613" y="-19"/>
      <point x="718" y="37"/>
      <point x="797" y="123" type="curve"/>
      <point x="797" y="0" type="line"/>
    </contour>
    <contour>
      <point x="804" y="269"/>
      <point x="693" y="112"/>
      <point x="508" y="112" type="curve" smooth="yes"/>
      <point x="329" y="112"/>
      <point x="217" y="284"/>
      <point x="217" y="558" type="curve" smooth="yes"/>
      <point x="217" y="816"/>
      <point x="334" y="979"/>
      <point x="508" y="979" type="curve" smooth="yes"/>
      <point x="698" y="979"/>
      <point x="804" y="811"/>
      <point x="804" y="535" type="curve" smooth="yes"/>
    </contour>
  </outline>
</glyph>
<glyph name="oe" format="2">
  <advance width="1395"/>
  <unicode hex="0153"/>
  <anchor x="741" y="0" name="H"/>
  <anchor x="716" y="-75" name="L"/>
  <anchor x="1262" y="0" name="O"/>
  <anchor x="1395" y="750" name="R"/>
  <anchor x="716" y="825" name="U"/>
  <outline>
    <contour>
      <point x="71" y="380" type="curve" smooth="yes"/>
      <point x="71" y="122"/>
      <point x="214" y="-18"/>
      <point x="420" y="-18" type="curve" smooth="yes"/>
      <point x="538" y="-18"/>
      <point x="645" y="32"/>
      <point x="712" y="129" type="curve"/>
      <point x="779" y="31"/>
      <point x="888" y="-18"/>
      <point x="1005" y="-18" type="curve" smooth="yes"/>
      <point x="1120" y="-18"/>
      <point x="1213" y="1"/>
      <point x="1320" y="56" type="curve"/>
      <point x="1305" y="180" type="line"/>
      <point x="1213" y="124"/>
      <point x="1120" y="105"/>
      <point x="1023" y="105" type="curve" smooth="yes"/>
      <point x="888" y="105"/>
      <point x="789" y="188"/>
      <point x="783" y="363" type="curve"/>
      <point x="1315" y="363" type="line"/>
      <point x="1316" y="377"/>
      <point x="1316" y="408"/>
      <point x="1316" y="422" type="curve" smooth="yes"/>
      <point x="1316" y="591"/>
      <point x="1252" y="780"/>
      <point x="1005" y="780" type="curve" smooth="yes"/>
      <point x="878" y="780"/>
      <point x="779" y="727"/>
      <point x="717" y="636" type="curve"/>
      <point x="656" y="730"/>
      <point x="556" y="780"/>
      <point x="435" y="780" type="curve" smooth="yes"/>
      <point x="237" y="780"/>
      <point x="71" y="638"/>
    </contour>
    <contour>
      <point x="210" y="380" type="curve" smooth="yes"/>
      <point x="210" y="555"/>
      <point x="306" y="660"/>
      <point x="427" y="660" type="curve" smooth="yes"/>
      <point x="556" y="660"/>
      <point x="645" y="555"/>
      <point x="645" y="380" type="curve" smooth="yes"/>
      <point x="645" y="205"/>
      <point x="548" y="101"/>
      <point x="427" y="101" type="curve" smooth="yes"/>
      <point x="298" y="101"/>
      <point x="210" y="205"/>
    </contour>
    <contour>
      <point x="993" y="667" type="curve" smooth="yes"/>
      <point x="1102" y="667"/>
      <point x="1181" y="597"/>
      <point x="1181" y="468" type="curve"/>
      <point x="789" y="468" type="line"/>
      <point x="811" y="604"/>
      <point x="884" y="667"/>
    </contour>
  </outline>
</glyph>
<glyph name="florin" format="2">
  <advance width="547"/>
  <unicode hex="0192"/>
  <anchor x="222" y="-375" name="L"/>
  <anchor x="405" y="1226" name="U"/>
  <outline>
    <contour>
      <point x="15" y="637" type="line"/>
      <point x="506" y="637" type="line"/>
      <point x="506" y="746" type="line"/>
      <point x="15" y="746" type="line"/>
    </contour>
    <contour>
      <point x="588" y="1162" type="line"/>
      <point x="542" y="1195"/>
      <point x="482" y="1215"/>
      <point x="423" y="1215" type="curve" smooth="yes"/>
      <point x="261" y="1215"/>
      <point x="165" y="1102"/>
      <point x="165" y="877" type="curve" smooth="yes"/>
      <point x="165" y="815"/>
      <point x="165" y="58"/>
      <point x="165" y="-18" type="curve" smooth="yes"/>
      <point x="165" y="-166"/>
      <point x="108" y="-225"/>
      <point x="28" y="-225" type="curve" smooth="yes"/>
      <point x="-13" y="-225"/>
      <point x="-83" y="-204"/>
      <point x="-116" y="-180" type="curve"/>
      <point x="-142" y="-303" type="line"/>
      <point x="-97" y="-334"/>
      <point x="-20" y="-352"/>
      <point x="21" y="-352" type="curve" smooth="yes"/>
      <point x="192" y="-352"/>
      <point x="303" y="-261"/>
      <point x="303" y="18" type="curve" smooth="yes"/>
      <point x="303" y="549"/>
      <point x="303" y="728"/>
      <point x="303" y="907" type="curve" smooth="yes"/>
      <point x="303" y="1043"/>
      <point x="345" y="1095"/>
      <point x="423" y="1095" type="curve" smooth="yes"/>
      <point x="467" y="1095"/>
      <point x="516" y="1077"/>
      <point x="554" y="1050" type="curve"/>
    </contour>
  </outline>
</glyph>
<glyph name="circumflex" format="1">
  <advance width="651"/>
  <unicode hex="02C6"/>
  <outline>
    <contour>
      <point x="120" y="875" type="line" name="hr00"/>
      <point x="325" y="1084" type="line"/>
      <point x="531" y="875" type="line"/>
      <point x="643" y="875" type="line"/>
      <point x="389" y="1197" type="line"/>
      <point x="261" y="1197" type="line"/>
      <point x="7" y="875" type="line"/>
    </contour>
    <contour>
      <point x="319" y="850" type="move" name="_above"/>
    </contour>
  </outline>
</glyph>
<glyph name="caron" format="2">
  <advance width="636"/>
  <unicode hex="02C7"/>
  <anchor x="319" y="850" name="_above"/>
  <outline>
    <contour>
      <point x="0" y="1197" type="line"/>
      <point x="255" y="875" type="line"/>
      <point x="381" y="875" type="line"/>
      <point x="636" y="1197" type="line"/>
      <point x="523" y="1197" type="line"/>
      <point x="318" y="987" type="line"/>
      <point x="112" y="1197" type="line"/>
    </contour>
  </outline>
</glyph>
<glyph name="modMacron" format="1">
  <advance width="636"/>
  <unicode hex="02C9"/>
  <outline>
    <contour>
      <point x="37" y="927" type="line"/>
      <point x="598" y="927" type="line"/>
      <point x="598" y="1039" type="line"/>
      <point x="37" y="1039" type="line"/>
    </contour>
    <contour>
      <point x="318" y="1084" type="move" name="U"/>
    </contour>
  </outline>
</glyph>
<glyph name="modMacron" format="1">
  <advance width="636"/>
  <unicode hex="02C9"/>
  <outline>
    <contour>
      <point x="37" y="927" type="line" name="hr00"/>
      <point x="598" y="927" type="line"/>
      <point x="598" y="1039" type="line"/>
      <point x="37" y="1039" type="line"/>
    </contour>
    <contour>
      <point x="318" y="1084" type="move" name="U"/>
    </contour>
  </outline>
</glyph>
<glyph name="colontriangularmod" format="2">
  <advance width="333"/>
  <unicode hex="02D0"/>
  <anchor x="167" y="-75" name="L"/>
  <anchor x="167" y="818" name="U"/>
  <outline>
    <contour>
      <point x="131" y="528" type="line"/>
      <point x="202" y="528" type="line"/>
      <point x="270" y="765" type="line"/>
      <point x="63" y="765" type="line"/>
    </contour>
    <contour>
      <point x="63" y="0" type="line"/>
      <point x="270" y="0" type="line"/>
      <point x="202" y="236" type="line"/>
      <point x="131" y="236" type="line"/>
    </contour>
  </outline>
</glyph>
<glyph name="dotaccent" format="2">
  <advance width="202"/>
  <unicode hex="02D9"/>
  <outline>
    <contour>
      <point x="0" y="1008" type="curve" smooth="yes"/>
      <point x="0" y="953"/>
      <point x="45" y="907"/>
      <point x="101" y="907" type="curve" smooth="yes"/>
      <point x="156" y="907"/>
      <point x="202" y="953"/>
      <point x="202" y="1008" type="curve" smooth="yes"/>
      <point x="202" y="1064"/>
      <point x="156" y="1110"/>
      <point x="101" y="1110" type="curve" smooth="yes"/>
      <point x="45" y="1110"/>
      <point x="0" y="1064"/>
    </contour>
  </outline>
</glyph>
<glyph name="ring" format="1">
  <advance width="321"/>
  <unicode hex="02DA"/>
  <outline>
    <contour>
      <point x="236" y="1036" type="curve" smooth="yes" name="hr00"/>
      <point x="236" y="992"/>
      <point x="205" y="961"/>
      <point x="161" y="961" type="curve" smooth="yes"/>
      <point x="116" y="961"/>
      <point x="85" y="992"/>
      <point x="85" y="1036" type="curve" smooth="yes"/>
      <point x="85" y="1081"/>
      <point x="116" y="1111"/>
      <point x="161" y="1111" type="curve" smooth="yes"/>
      <point x="205" y="1111"/>
      <point x="236" y="1081"/>
    </contour>
    <contour>
      <point x="0" y="1036" type="curve" smooth="yes"/>
      <point x="0" y="946"/>
      <point x="71" y="875"/>
      <point x="161" y="875" type="curve" smooth="yes"/>
      <point x="251" y="875"/>
      <point x="321" y="946"/>
      <point x="321" y="1036" type="curve" smooth="yes"/>
      <point x="321" y="1126"/>
      <point x="251" y="1197"/>
      <point x="161" y="1197" type="curve" smooth="yes"/>
      <point x="71" y="1197"/>
      <point x="0" y="1126"/>
    </contour>
    <contour>
      <point x="161" y="850" type="move" name="_above"/>
    </contour>
  </outline>
</glyph>
<glyph name="tilde" format="2">
  <advance width="532"/>
  <unicode hex="02DC"/>
  <outline>
    <contour>
      <point x="78" y="903" type="line"/>
      <point x="82" y="940"/>
      <point x="105" y="967"/>
      <point x="142" y="967" type="curve" smooth="yes"/>
      <point x="170" y="967"/>
      <point x="201" y="955"/>
      <point x="258" y="928" type="curve" smooth="yes"/>
      <point x="304" y="907"/>
      <point x="344" y="892"/>
      <point x="384" y="892" type="curve" smooth="yes"/>
      <point x="476" y="892"/>
      <point x="532" y="984"/>
      <point x="532" y="1080" type="curve"/>
      <point x="453" y="1080" type="line"/>
      <point x="448" y="1045"/>
      <point x="425" y="1016"/>
      <point x="390" y="1016" type="curve" smooth="yes"/>
      <point x="358" y="1016"/>
      <point x="327" y="1030"/>
      <point x="273" y="1052" type="curve" smooth="yes"/>
      <point x="221" y="1073"/>
      <point x="186" y="1091"/>
      <point x="144" y="1091" type="curve" smooth="yes"/>
      <point x="54" y="1091"/>
      <point x="0" y="995"/>
      <point x="0" y="903" type="curve"/>
    </contour>
  </outline>
</glyph>
<glyph name="pi" format="2">
  <advance width="986"/>
  <unicode hex="03C0"/>
  <anchor x="487" y="-75" name="L"/>
  <anchor x="487" y="825" name="U"/>
  <outline>
    <contour>
      <point x="930" y="656" type="line"/>
      <point x="930" y="765" type="line"/>
      <point x="45" y="765" type="line"/>
      <point x="45" y="656" type="line"/>
      <point x="198" y="656" type="line"/>
      <point x="198" y="0" type="line"/>
      <point x="337" y="0" type="line"/>
      <point x="337" y="656" type="line"/>
      <point x="637" y="656" type="line"/>
      <point x="637" y="468" type="line"/>
      <point x="637" y="356"/>
      <point x="638" y="246"/>
      <point x="641" y="177" type="curve" smooth="yes"/>
      <point x="645" y="102"/>
      <point x="652" y="45"/>
      <point x="671" y="0" type="curve"/>
      <point x="817" y="0" type="line"/>
      <point x="786" y="84"/>
      <point x="776" y="154"/>
      <point x="776" y="300" type="curve"/>
      <point x="776" y="656" type="line"/>
    </contour>
  </outline>
</glyph>
<glyph name="absNumberSign" format="1">
  <advance width="1595"/>
  <unicode hex="0600"/>
  <outline>
    <contour>
      <point x="1144" y="30" type="curve" name="hr00"/>
      <point x="1021" y="8"/>
      <point x="790" y="3"/>
      <point x="616" y="3" type="curve" smooth="yes"/>
      <point x="453" y="3"/>
      <point x="247" y="11"/>
      <point x="80" y="27" type="curve"/>
      <point x="91" y="-47"/>
      <point x="129" y="-104"/>
      <point x="142" y="-113" type="curve"/>
      <point x="212" y="-118"/>
      <point x="460" y="-125"/>
      <point x="636" y="-125" type="curve" smooth="yes"/>
      <point x="1077" y="-125"/>
      <point x="1407" y="-67"/>
      <point x="1475" y="-39" type="curve"/>
      <point x="1499" y="-8"/>
      <point x="1515" y="38"/>
      <point x="1515" y="100" type="curve"/>
      <point x="1439" y="78"/>
      <point x="1342" y="56"/>
      <point x="1287" y="52" type="curve"/>
      <point x="1294" y="134"/>
      <point x="1334" y="280"/>
      <point x="1400" y="398" type="curve"/>
      <point x="1382" y="423"/>
      <point x="1369" y="444"/>
      <point x="1345" y="462" type="curve"/>
      <point x="1228" y="330"/>
      <point x="1173" y="177"/>
    </contour>
    <contour>
      <point x="315" y="0" type="move" name="digit"/>
    </contour>
  </outline>
</glyph>
<glyph name="number-ar" format="2">
  <advance width="1655"/>
  <unicode hex="0600"/>
  <anchor x="116" y="0" name="digitR"/>
  <outline>
    <contour>
      <point x="666" y="-125" type="curve" smooth="yes"/>
      <point x="1067" y="-125"/>
      <point x="1477" y="-91"/>
      <point x="1545" y="-63" type="curve"/>
      <point x="1569" y="-32"/>
      <point x="1585" y="12"/>
      <point x="1585" y="74" type="curve"/>
      <point x="1309" y="16"/>
      <point x="923" y="3"/>
      <point x="646" y="3" type="curve" smooth="yes"/>
      <point x="443" y="3"/>
      <point x="277" y="11"/>
      <point x="70" y="27" type="curve"/>
      <point x="71" y="-47"/>
      <point x="119" y="-104"/>
      <point x="132" y="-113" type="curve"/>
      <point x="202" y="-118"/>
      <point x="450" y="-125"/>
    </contour>
    <contour>
      <point x="1345" y="-60" type="line"/>
      <point x="1376" y="-30"/>
      <point x="1396" y="-6"/>
      <point x="1396" y="43" type="curve"/>
      <point x="1378" y="41"/>
      <point x="1360" y="40"/>
      <point x="1343" y="40" type="curve" smooth="yes"/>
      <point x="1173" y="40"/>
      <point x="1094" y="133"/>
      <point x="1094" y="215" type="curve" smooth="yes"/>
      <point x="1094" y="279"/>
      <point x="1143" y="337"/>
      <point x="1236" y="337" type="curve" smooth="yes"/>
      <point x="1300" y="337"/>
      <point x="1360" y="304"/>
      <point x="1412" y="235" type="curve"/>
      <point x="1463" y="253"/>
      <point x="1500" y="283"/>
      <point x="1520" y="324" type="curve"/>
      <point x="1449" y="423"/>
      <point x="1349" y="468"/>
      <point x="1244" y="468" type="curve" smooth="yes"/>
      <point x="1062" y="468"/>
      <point x="951" y="343"/>
      <point x="951" y="209" type="curve" smooth="yes"/>
      <point x="951" y="138"/>
      <point x="982" y="65"/>
      <point x="1050" y="6" type="curve"/>
    </contour>
  </outline>
</glyph>
<glyph name="year-ar" format="2">
  <advance width="2086"/>
  <unicode hex="0601"/>
  <anchor x="1134" y="0" name="digitR"/>
  <outline>
    <contour>
      <point x="1910" y="-194" type="curve"/>
      <point x="1967" y="-189"/>
      <point x="2008" y="-144"/>
      <point x="2026" y="-108" type="curve"/>
      <point x="2029" y="-36"/>
      <point x="1981" y="27"/>
      <point x="1856" y="27" type="curve" smooth="yes"/>
      <point x="1655" y="27"/>
      <point x="1268" y="-22"/>
      <point x="1152" y="-22" type="curve" smooth="yes"/>
      <point x="1022" y="-22"/>
      <point x="998" y="78"/>
      <point x="958" y="258" type="curve"/>
      <point x="910" y="256"/>
      <point x="864" y="245"/>
      <point x="833" y="229" type="curve"/>
      <point x="834" y="212"/>
      <point x="835" y="196"/>
      <point x="835" y="181" type="curve" smooth="yes"/>
      <point x="835" y="24"/>
      <point x="767" y="-46"/>
      <point x="704" y="-46" type="curve" smooth="yes"/>
      <point x="638" y="-46"/>
      <point x="584" y="32"/>
      <point x="584" y="183" type="curve" smooth="yes"/>
      <point x="584" y="198"/>
      <point x="585" y="214"/>
      <point x="586" y="230" type="curve"/>
      <point x="531" y="230"/>
      <point x="491" y="223"/>
      <point x="449" y="205" type="curve"/>
      <point x="452" y="23"/>
      <point x="362" y="-66"/>
      <point x="291" y="-66" type="curve" smooth="yes"/>
      <point x="240" y="-66"/>
      <point x="196" y="-20"/>
      <point x="196" y="71" type="curve" smooth="yes"/>
      <point x="196" y="109"/>
      <point x="203" y="154"/>
      <point x="221" y="207" type="curve"/>
      <point x="180" y="209"/>
      <point x="115" y="202"/>
      <point x="84" y="185" type="curve"/>
      <point x="67" y="135"/>
      <point x="60" y="89"/>
      <point x="60" y="47" type="curve" smooth="yes"/>
      <point x="60" y="-106"/>
      <point x="161" y="-198"/>
      <point x="277" y="-198" type="curve" smooth="yes"/>
      <point x="359" y="-198"/>
      <point x="447" y="-153"/>
      <point x="513" y="-53" type="curve"/>
      <point x="550" y="-136"/>
      <point x="625" y="-177"/>
      <point x="703" y="-177" type="curve" smooth="yes"/>
      <point x="787" y="-177"/>
      <point x="874" y="-129"/>
      <point x="922" y="-34" type="curve"/>
      <point x="971" y="-97"/>
      <point x="1009" y="-156"/>
      <point x="1134" y="-156" type="curve" smooth="yes"/>
      <point x="1288" y="-156"/>
      <point x="1646" y="-102"/>
      <point x="1823" y="-102" type="curve" smooth="yes"/>
      <point x="1883" y="-102"/>
      <point x="1903" y="-130"/>
    </contour>
  </outline>
</glyph>
<glyph name="absFootnoteSign" format="1">
  <advance width="1453"/>
  <unicode hex="0602"/>
  <outline>
    <contour>
      <point x="184" y="147" type="curve" smooth="yes" name="hr00"/>
      <point x="184" y="210"/>
      <point x="234" y="238"/>
      <point x="285" y="238" type="curve" smooth="yes"/>
      <point x="340" y="238"/>
      <point x="397" y="205"/>
      <point x="397" y="120" type="curve" smooth="yes"/>
      <point x="397" y="68"/>
      <point x="380" y="35"/>
      <point x="348" y="-3" type="curve"/>
      <point x="413" y="-31" type="line"/>
      <point x="468" y="10"/>
      <point x="499" y="88"/>
      <point x="499" y="163" type="curve" smooth="yes"/>
      <point x="499" y="266"/>
      <point x="440" y="365"/>
      <point x="299" y="365" type="curve" smooth="yes"/>
      <point x="182" y="365"/>
      <point x="80" y="286"/>
      <point x="80" y="145" type="curve" smooth="yes"/>
      <point x="80" y="-51"/>
      <point x="265" y="-125"/>
      <point x="735" y="-125" type="curve" smooth="yes"/>
      <point x="999" y="-125"/>
      <point x="1199" y="-121"/>
      <point x="1317" y="-109" type="curve"/>
      <point x="1339" y="-77"/>
      <point x="1360" y="-38"/>
      <point x="1373" y="25" type="curve"/>
      <point x="1241" y="10"/>
      <point x="1035" y="3"/>
      <point x="782" y="3" type="curve" smooth="yes"/>
      <point x="249" y="3"/>
      <point x="184" y="61"/>
    </contour>
    <contour>
      <point x="590" y="0" type="move" name="digit"/>
    </contour>
  </outline>
</glyph>
<glyph name="footnotemarker-ar" format="2">
  <advance width="1447"/>
  <unicode hex="0602"/>
  <anchor x="598" y="0" name="digitR"/>
  <outline>
    <contour>
      <point x="268" y="3"/>
      <point x="207" y="77"/>
      <point x="207" y="145" type="curve" smooth="yes"/>
      <point x="207" y="203"/>
      <point x="246" y="233"/>
      <point x="287" y="233" type="curve" smooth="yes"/>
      <point x="330" y="233"/>
      <point x="375" y="199"/>
      <point x="375" y="129" type="curve" smooth="yes"/>
      <point x="375" y="87"/>
      <point x="358" y="40"/>
      <point x="320" y="-3" type="curve"/>
      <point x="429" y="-51" type="line"/>
      <point x="486" y="-3"/>
      <point x="514" y="70"/>
      <point x="514" y="142" type="curve" smooth="yes"/>
      <point x="514" y="255"/>
      <point x="434" y="365"/>
      <point x="292" y="365" type="curve" smooth="yes"/>
      <point x="176" y="365"/>
      <point x="70" y="288"/>
      <point x="70" y="145" type="curve" smooth="yes"/>
      <point x="70" y="-71"/>
      <point x="279" y="-125"/>
      <point x="689" y="-125" type="curve" smooth="yes"/>
      <point x="983" y="-125"/>
      <point x="1153" y="-121"/>
      <point x="1321" y="-109" type="curve"/>
      <point x="1343" y="-77"/>
      <point x="1364" y="-38"/>
      <point x="1377" y="25" type="curve"/>
      <point x="1245" y="10"/>
      <point x="1019" y="3"/>
      <point x="556" y="3" type="curve" smooth="yes"/>
    </contour>
  </outline>
</glyph>
<glyph name="absPageSign" format="1">
  <advance width="2079"/>
  <unicode hex="0603"/>
  <outline>
    <contour>
      <point x="1612" y="-64" type="curve" smooth="yes"/>
      <point x="1820" y="-64"/>
      <point x="2026" y="63"/>
      <point x="2026" y="280" type="curve" smooth="yes"/>
      <point x="2026" y="404"/>
      <point x="1914" y="526"/>
      <point x="1721" y="526" type="curve" smooth="yes"/>
      <point x="1513" y="526"/>
      <point x="1333" y="385"/>
      <point x="1151" y="184" type="curve" smooth="yes"/>
      <point x="1011" y="29"/>
      <point x="843" y="3"/>
      <point x="519" y="3" type="curve" smooth="yes" name="hr01"/>
      <point x="336" y="3"/>
      <point x="164" y="16"/>
      <point x="80" y="25" type="curve"/>
      <point x="91" y="-49"/>
      <point x="127" y="-87"/>
      <point x="142" y="-109" type="curve"/>
      <point x="232" y="-117"/>
      <point x="360" y="-125"/>
      <point x="497" y="-125" type="curve" smooth="yes"/>
      <point x="768" y="-125"/>
      <point x="1064" y="-102"/>
      <point x="1231" y="88" type="curve" smooth="yes"/>
      <point x="1312" y="180"/>
      <point x="1511" y="393"/>
      <point x="1690" y="393" type="curve" smooth="yes"/>
      <point x="1792" y="393"/>
      <point x="1895" y="351"/>
      <point x="1895" y="239" type="curve" smooth="yes"/>
      <point x="1895" y="134"/>
      <point x="1739" y="71"/>
      <point x="1576" y="71" type="curve" smooth="yes" name="hr02"/>
      <point x="1327" y="71"/>
      <point x="1231" y="203"/>
      <point x="1179" y="363" type="curve"/>
      <point x="1064" y="291" type="line"/>
      <point x="1170" y="-47"/>
      <point x="1483" y="-64"/>
    </contour>
    <contour>
      <point x="235" y="0" type="move" name="digit"/>
    </contour>
  </outline>
</glyph>
<glyph name="pagenumber-ar" format="2">
  <advance width="2079"/>
  <unicode hex="0603"/>
  <anchor x="235" y="0" name="digit"/>
  <outline>
    <contour>
      <point x="1164" y="58"/>
      <point x="1410" y="-45"/>
      <point x="1631" y="-45" type="curve" smooth="yes"/>
      <point x="1854" y="-45"/>
      <point x="2052" y="59"/>
      <point x="2052" y="260" type="curve" smooth="yes"/>
      <point x="2052" y="397"/>
      <point x="1949" y="525"/>
      <point x="1750" y="525" type="curve" smooth="yes"/>
      <point x="1276" y="525"/>
      <point x="1280" y="3"/>
      <point x="669" y="3" type="curve" smooth="yes"/>
      <point x="336" y="3"/>
      <point x="164" y="16"/>
      <point x="80" y="25" type="curve"/>
      <point x="91" y="-49"/>
      <point x="127" y="-87"/>
      <point x="142" y="-109" type="curve"/>
      <point x="232" y="-117"/>
      <point x="360" y="-125"/>
      <point x="647" y="-125" type="curve" smooth="yes"/>
      <point x="1321" y="-125"/>
      <point x="1376" y="392"/>
      <point x="1739" y="392" type="curve" smooth="yes"/>
      <point x="1855" y="392"/>
      <point x="1915" y="328"/>
      <point x="1915" y="258" type="curve" smooth="yes"/>
      <point x="1915" y="142"/>
      <point x="1792" y="84"/>
      <point x="1646" y="84" type="curve" smooth="yes"/>
      <point x="1460" y="84"/>
      <point x="1236" y="178"/>
      <point x="1179" y="363" type="curve"/>
      <point x="1132" y="342"/>
      <point x="1093" y="312"/>
      <point x="1064" y="271" type="curve"/>
    </contour>
  </outline>
</glyph>
<glyph name="absSamvatSign" format="1">
  <advance width="1921"/>
  <unicode hex="0604"/>
  <outline>
    <contour>
      <point x="1779" y="273"/>
      <point x="1841" y="370"/>
      <point x="1841" y="486" type="curve" smooth="yes"/>
      <point x="1841" y="546"/>
      <point x="1824" y="612"/>
      <point x="1787" y="672" type="curve"/>
      <point x="1757" y="665"/>
      <point x="1714" y="647"/>
      <point x="1697" y="638" type="curve"/>
      <point x="1728" y="575"/>
      <point x="1741" y="521"/>
      <point x="1741" y="480" type="curve" smooth="yes"/>
      <point x="1741" y="427"/>
      <point x="1719" y="395"/>
      <point x="1682" y="395" type="curve" smooth="yes"/>
      <point x="1624" y="395"/>
      <point x="1599" y="453"/>
      <point x="1558" y="556" type="curve"/>
      <point x="1528" y="544"/>
      <point x="1500" y="531"/>
      <point x="1480" y="521" type="curve"/>
      <point x="1505" y="348"/>
      <point x="1582" y="273"/>
      <point x="1683" y="273" type="curve" smooth="yes"/>
    </contour>
    <contour>
      <point x="1483" y="503"/>
      <point x="1485" y="480"/>
      <point x="1485" y="456" type="curve" smooth="yes"/>
      <point x="1485" y="383"/>
      <point x="1467" y="300"/>
      <point x="1405" y="300" type="curve" smooth="yes"/>
      <point x="1341" y="300"/>
      <point x="1285" y="440"/>
      <point x="1190" y="440" type="curve" smooth="yes"/>
      <point x="1061" y="440"/>
      <point x="992" y="329"/>
      <point x="992" y="206" type="curve" smooth="yes"/>
      <point x="992" y="72"/>
      <point x="1055" y="-62"/>
      <point x="1236" y="-90" type="curve"/>
      <point x="1254" y="-76"/>
      <point x="1282" y="-9"/>
      <point x="1284" y="30" type="curve"/>
      <point x="1141" y="69"/>
      <point x="1093" y="162"/>
      <point x="1093" y="231" type="curve" smooth="yes"/>
      <point x="1093" y="280"/>
      <point x="1117" y="317"/>
      <point x="1148" y="317" type="curve" smooth="yes"/>
      <point x="1198" y="317"/>
      <point x="1265" y="163"/>
      <point x="1384" y="163" type="curve" smooth="yes"/>
      <point x="1470" y="163"/>
      <point x="1556" y="235"/>
      <point x="1575" y="404" type="curve"/>
      <point x="1544" y="441"/>
      <point x="1507" y="505"/>
      <point x="1480" y="521" type="curve"/>
    </contour>
    <contour>
      <point x="1111" y="107" type="line"/>
      <point x="1003" y="40"/>
      <point x="887" y="3"/>
      <point x="563" y="3" type="curve" smooth="yes"/>
      <point x="334" y="3"/>
      <point x="185" y="12"/>
      <point x="80" y="25" type="curve"/>
      <point x="91" y="-49"/>
      <point x="127" y="-87"/>
      <point x="142" y="-109" type="curve"/>
      <point x="222" y="-118"/>
      <point x="404" y="-125"/>
      <point x="541" y="-125" type="curve" smooth="yes"/>
      <point x="812" y="-125"/>
      <point x="1017" y="-97"/>
      <point x="1193" y="12" type="curve"/>
    </contour>
    <contour>
      <point x="186" y="0" type="move" name="digit"/>
    </contour>
  </outline>
</glyph>
<glyph name="samvat-ar" format="2">
  <advance width="1904"/>
  <unicode hex="0604"/>
  <anchor x="66" y="0" name="digitR"/>
  <outline>
    <contour>
      <point x="1031" y="110" type="line"/>
      <point x="923" y="33"/>
      <point x="867" y="10"/>
      <point x="543" y="10" type="curve" smooth="yes"/>
      <point x="314" y="10"/>
      <point x="165" y="19"/>
      <point x="60" y="32" type="curve"/>
      <point x="60" y="-42"/>
      <point x="86" y="-87"/>
      <point x="111" y="-109" type="curve"/>
      <point x="201" y="-118"/>
      <point x="384" y="-125"/>
      <point x="521" y="-125" type="curve" smooth="yes"/>
      <point x="792" y="-125"/>
      <point x="997" y="-97"/>
      <point x="1173" y="12" type="curve"/>
    </contour>
    <contour>
      <point x="1816" y="628" type="curve"/>
      <point x="1771" y="624"/>
      <point x="1713" y="606"/>
      <point x="1686" y="592" type="curve"/>
      <point x="1702" y="546"/>
      <point x="1710" y="500"/>
      <point x="1710" y="461" type="curve" smooth="yes"/>
      <point x="1710" y="399"/>
      <point x="1691" y="355"/>
      <point x="1656" y="355" type="curve" smooth="yes"/>
      <point x="1607" y="355"/>
      <point x="1582" y="420"/>
      <point x="1554" y="568" type="curve"/>
      <point x="1518" y="567"/>
      <point x="1455" y="557"/>
      <point x="1426" y="539" type="curve"/>
      <point x="1428" y="517"/>
      <point x="1429" y="495"/>
      <point x="1429" y="474" type="curve" smooth="yes"/>
      <point x="1429" y="357"/>
      <point x="1396" y="266"/>
      <point x="1349" y="266" type="curve" smooth="yes"/>
      <point x="1273" y="266"/>
      <point x="1292" y="450"/>
      <point x="1124" y="450" type="curve" smooth="yes"/>
      <point x="988" y="450"/>
      <point x="909" y="342"/>
      <point x="909" y="223" type="curve" smooth="yes"/>
      <point x="909" y="87"/>
      <point x="1010" y="-63"/>
      <point x="1246" y="-90" type="curve"/>
      <point x="1247" y="-46"/>
      <point x="1244" y="5"/>
      <point x="1228" y="45" type="curve"/>
      <point x="1096" y="65"/>
      <point x="1043" y="154"/>
      <point x="1043" y="225" type="curve" smooth="yes"/>
      <point x="1043" y="276"/>
      <point x="1070" y="317"/>
      <point x="1115" y="317" type="curve" smooth="yes"/>
      <point x="1196" y="317"/>
      <point x="1178" y="133"/>
      <point x="1344" y="133" type="curve" smooth="yes"/>
      <point x="1427" y="133"/>
      <point x="1510" y="184"/>
      <point x="1534" y="341" type="curve"/>
      <point x="1506" y="311" type="line"/>
      <point x="1530" y="260"/>
      <point x="1590" y="220"/>
      <point x="1652" y="220" type="curve" smooth="yes"/>
      <point x="1783" y="220"/>
      <point x="1844" y="331"/>
      <point x="1844" y="465" type="curve" smooth="yes"/>
      <point x="1844" y="518"/>
      <point x="1834" y="574"/>
    </contour>
  </outline>
</glyph>
<glyph name="numbermark-ar" format="2">
  <advance width="980"/>
  <unicode hex="0605"/>
  <anchor x="0" y="0" name="digitR"/>
  <outline>
    <contour>
      <point x="172" y="1351" type="line"/>
      <point x="220" y="1225"/>
      <point x="342" y="1165"/>
      <point x="491" y="1165" type="curve" smooth="yes"/>
      <point x="657" y="1165"/>
      <point x="856" y="1239"/>
      <point x="1023" y="1376" type="curve"/>
      <point x="1012" y="1411"/>
      <point x="987" y="1440"/>
      <point x="957" y="1455" type="curve"/>
      <point x="815" y="1361"/>
      <point x="646" y="1299"/>
      <point x="508" y="1299" type="curve" smooth="yes"/>
      <point x="393" y="1299"/>
      <point x="300" y="1342"/>
      <point x="264" y="1445" type="curve"/>
      <point x="161" y="1437"/>
      <point x="54" y="1383"/>
      <point x="-58" y="1304" type="curve"/>
      <point x="-40" y="1274"/>
      <point x="-3" y="1224"/>
      <point x="45" y="1205" type="curve"/>
      <point x="106" y="1251"/>
      <point x="182" y="1302"/>
      <point x="274" y="1328" type="curve"/>
    </contour>
  </outline>
</glyph>
<glyph name="ray-ar" format="2">
  <advance width="1517"/>
  <unicode hex="0608"/>
  <outline>
    <contour>
      <point x="575" y="-259" type="curve" smooth="yes"/>
      <point x="868" y="-259"/>
      <point x="1151" y="-47"/>
      <point x="1151" y="337" type="curve" smooth="yes"/>
      <point x="1152" y="551"/>
      <point x="1048" y="709"/>
      <point x="863" y="709" type="curve" smooth="yes"/>
      <point x="702" y="709"/>
      <point x="608" y="584"/>
      <point x="608" y="456" type="curve" smooth="yes"/>
      <point x="608" y="323"/>
      <point x="710" y="188"/>
      <point x="947" y="188" type="curve" smooth="yes"/>
      <point x="1216" y="188"/>
      <point x="1427" y="310"/>
      <point x="1427" y="482" type="curve" smooth="yes"/>
      <point x="1427" y="587"/>
      <point x="1408" y="671"/>
      <point x="1375" y="766" type="curve"/>
      <point x="1336" y="761"/>
      <point x="1275" y="734"/>
      <point x="1248" y="718" type="curve"/>
      <point x="1276" y="641"/>
      <point x="1296" y="573"/>
      <point x="1296" y="487" type="curve" smooth="yes"/>
      <point x="1296" y="392"/>
      <point x="1166" y="323"/>
      <point x="934" y="323" type="curve" smooth="yes"/>
      <point x="798" y="323"/>
      <point x="743" y="396"/>
      <point x="743" y="465" type="curve" smooth="yes"/>
      <point x="743" y="519"/>
      <point x="784" y="574"/>
      <point x="861" y="574" type="curve" smooth="yes"/>
      <point x="975" y="574"/>
      <point x="1014" y="459"/>
      <point x="1014" y="301" type="curve" smooth="yes"/>
      <point x="1014" y="32"/>
      <point x="795" y="-124"/>
      <point x="564" y="-124" type="curve" smooth="yes"/>
      <point x="335" y="-124"/>
      <point x="227" y="12"/>
      <point x="227" y="180" type="curve" smooth="yes"/>
      <point x="227" y="277"/>
      <point x="263" y="385"/>
      <point x="330" y="484" type="curve"/>
      <point x="311" y="514"/>
      <point x="289" y="527"/>
      <point x="260" y="537" type="curve"/>
      <point x="149" y="422"/>
      <point x="93" y="283"/>
      <point x="93" y="154" type="curve" smooth="yes"/>
      <point x="93" y="-67"/>
      <point x="255" y="-259"/>
    </contour>
    <contour>
      <point x="-35" y="374" type="curve"/>
      <point x="80" y="390"/>
      <point x="170" y="419"/>
      <point x="330" y="484" type="curve"/>
      <point x="321" y="507"/>
      <point x="285" y="535"/>
      <point x="249" y="545" type="curve"/>
      <point x="160" y="512"/>
      <point x="44" y="486"/>
      <point x="-90" y="468" type="curve"/>
      <point x="-80" y="429"/>
      <point x="-64" y="402"/>
    </contour>
  </outline>
</glyph>
<glyph name="absPerMilleSign" format="1">
  <advance width="1475"/>
  <unicode hex="0609"/>
  <outline>
    <contour>
      <point x="1083" y="1417" type="line" name="hr00"/>
      <point x="995" y="1417" type="line"/>
      <point x="84" y="-29" type="line"/>
      <point x="170" y="-29" type="line"/>
    </contour>
    <contour>
      <point x="385" y="1196" type="curve"/>
      <point x="221" y="1327" type="line"/>
      <point x="109" y="1188" type="line"/>
      <point x="119" y="1165"/>
      <point x="176" y="1114"/>
      <point x="258" y="1055" type="curve"/>
      <point x="274" y="1061"/>
      <point x="322" y="1110"/>
    </contour>
    <contour>
      <point x="1358" y="266" type="curve"/>
      <point x="1194" y="397" type="line"/>
      <point x="1081" y="258" type="line"/>
      <point x="1092" y="236"/>
      <point x="1149" y="184"/>
      <point x="1231" y="125" type="curve"/>
      <point x="1247" y="131"/>
      <point x="1294" y="180"/>
    </contour>
    <contour>
      <point x="1030" y="225" type="curve"/>
      <point x="866" y="356" type="line"/>
      <point x="754" y="217" type="line"/>
      <point x="764" y="195"/>
      <point x="821" y="143"/>
      <point x="903" y="84" type="curve"/>
      <point x="920" y="90"/>
      <point x="967" y="139"/>
    </contour>
  </outline>
</glyph>
<glyph name="absPerTenThousandSign" format="1">
  <advance width="1782"/>
  <unicode hex="060A"/>
  <outline>
    <contour>
      <point x="1083" y="1417" type="line"/>
      <point x="995" y="1417" type="line"/>
      <point x="84" y="-29" type="line"/>
      <point x="170" y="-29" type="line"/>
    </contour>
    <contour>
      <point x="221" y="1327" type="line"/>
      <point x="109" y="1188" type="line"/>
      <point x="119" y="1165"/>
      <point x="176" y="1114"/>
      <point x="258" y="1055" type="curve"/>
      <point x="274" y="1061"/>
      <point x="322" y="1110"/>
      <point x="385" y="1196" type="curve"/>
    </contour>
    <contour>
      <point x="1194" y="397" type="line"/>
      <point x="1081" y="258" type="line"/>
      <point x="1092" y="236"/>
      <point x="1149" y="184"/>
      <point x="1231" y="125" type="curve"/>
      <point x="1247" y="131"/>
      <point x="1294" y="180"/>
      <point x="1358" y="266" type="curve"/>
    </contour>
    <contour>
      <point x="866" y="356" type="line"/>
      <point x="754" y="217" type="line"/>
      <point x="764" y="195"/>
      <point x="821" y="143"/>
      <point x="903" y="84" type="curve"/>
      <point x="920" y="90"/>
      <point x="967" y="139"/>
      <point x="1030" y="225" type="curve"/>
    </contour>
    <contour>
      <point x="1501" y="459" type="line"/>
      <point x="1389" y="319" type="line"/>
      <point x="1399" y="297"/>
      <point x="1456" y="246"/>
      <point x="1538" y="186" type="curve"/>
      <point x="1554" y="193"/>
      <point x="1602" y="242"/>
      <point x="1665" y="328" type="curve"/>
    </contour>
  </outline>
</glyph>
